<svg width="20" height="21" viewBox="0 0 20 21" fill="none" xmlns="http://www.w3.org/2000/svg">
<path d="M5.75 0.75C5.75 0.335786 5.41421 0 5 0C4.58579 0 4.25 0.335786 4.25 0.75V2.32926C2.81067 2.44451 1.86577 2.72737 1.17157 3.42157C0.477374 4.11577 0.194513 5.06067 0.0792572 6.5H19.9207C19.8055 5.06067 19.5226 4.11577 18.8284 3.42157C18.1342 2.72737 17.1893 2.44451 15.75 2.32926V0.75C15.75 0.335786 15.4142 0 15 0C14.5858 0 14.25 0.335786 14.25 0.75V2.2629C13.5847 2.25 12.839 2.25 12 2.25H8C7.16097 2.25 6.41527 2.25 5.75 2.2629V0.75Z" fill="#681AD6"/>
<path fill-rule="evenodd" clip-rule="evenodd" d="M0 10.25C0 9.41096 0 8.66527 0.012902 8H19.9871C20 8.66527 20 9.41096 20 10.25V12.25C20 16.0212 20 17.9069 18.8284 19.0784C17.6569 20.25 15.7712 20.25 12 20.25H8C4.22876 20.25 2.34315 20.25 1.17157 19.0784C0 17.9069 0 16.0212 0 12.25V10.25ZM15 12.25C15.5523 12.25 16 11.8023 16 11.25C16 10.6977 15.5523 10.25 15 10.25C14.4477 10.25 14 10.6977 14 11.25C14 11.8023 14.4477 12.25 15 12.25ZM15 16.25C15.5523 16.25 16 15.8023 16 15.25C16 14.6977 15.5523 14.25 15 14.25C14.4477 14.25 14 14.6977 14 15.25C14 15.8023 14.4477 16.25 15 16.25ZM11 11.25C11 11.8023 10.5523 12.25 10 12.25C9.44772 12.25 9 11.8023 9 11.25C9 10.6977 9.44772 10.25 10 10.25C10.5523 10.25 11 10.6977 11 11.25ZM11 15.25C11 15.8023 10.5523 16.25 10 16.25C9.44772 16.25 9 15.8023 9 15.25C9 14.6977 9.44772 14.25 10 14.25C10.5523 14.25 11 14.6977 11 15.25ZM5 12.25C5.55229 12.25 6 11.8023 6 11.25C6 10.6977 5.55229 10.25 5 10.25C4.44772 10.25 4 10.6977 4 11.25C4 11.8023 4.44772 12.25 5 12.25ZM5 16.25C5.55229 16.25 6 15.8023 6 15.25C6 14.6977 5.55229 14.25 5 14.25C4.44772 14.25 4 14.6977 4 15.25C4 15.8023 4.44772 16.25 5 16.25Z" fill="#681AD6"/>
</svg>
