<svg width="16" height="16" viewBox="0 0 16 16" fill="none" xmlns="http://www.w3.org/2000/svg">
<path d="M11.1296 9.01685C13.2341 9.52126 14.6667 10.5187 14.6667 11.6666C14.6666 13.3234 11.6819 14.6666 8.00004 14.6666C4.31822 14.6666 1.3335 13.3234 1.33337 11.6666C1.33337 10.5187 2.76597 9.52126 4.87048 9.01685L4.24679 10.6392C3.74744 11.9376 4.70601 13.3333 6.09705 13.3333C6.80815 13.3331 7.46486 12.9519 7.81775 12.3346L8.00004 12.0149L8.18233 12.3346C8.53522 12.9519 9.19193 13.3331 9.90304 13.3333C11.2941 13.3333 12.2526 11.9376 11.7533 10.6392L11.1296 9.01685Z" fill="#F93B93"/>
<path d="M11.431 5.26489C12.067 5.12863 12.6667 5.61386 12.6667 6.26424C12.6666 6.70388 12.3852 7.09395 11.9681 7.23299L10.5183 7.71672C10.3432 7.77508 10.2554 7.80436 10.1895 7.84497C9.96509 7.98349 9.84322 8.24124 9.87895 8.50252C9.88944 8.57924 9.92267 8.66541 9.98897 8.83781L10.8197 10.9993C11.067 11.6425 10.5922 12.3339 9.90304 12.3339C9.55081 12.3338 9.22568 12.1449 9.05082 11.8391L8.00004 10.0006L6.94926 11.8391C6.77441 12.1449 6.44927 12.3338 6.09705 12.3339C5.40784 12.3339 4.93306 11.6425 5.18038 10.9993L6.01111 8.83781C6.07741 8.66541 6.11064 8.57924 6.12113 8.50252C6.15686 8.24124 6.035 7.98349 5.81059 7.84497C5.74472 7.80436 5.65689 7.77508 5.48181 7.71672L4.03194 7.23299C3.61486 7.09395 3.33344 6.70388 3.33337 6.26424C3.33337 5.61386 3.93311 5.12863 4.56905 5.26489L5.83403 5.53638C5.90437 5.55145 5.93978 5.55911 5.97465 5.56633C7.31075 5.84266 8.68934 5.84266 10.0254 5.56633C10.0603 5.55911 10.0957 5.55145 10.1661 5.53638L11.431 5.26489Z" fill="#F93B93"/>
<path d="M8.00004 0.833252C9.01256 0.833252 9.83337 1.65406 9.83337 2.66659C9.83337 3.67911 9.01256 4.49992 8.00004 4.49992C6.98752 4.49992 6.16671 3.67911 6.16671 2.66659C6.16671 1.65406 6.98752 0.833252 8.00004 0.833252Z" fill="#F93B93"/>
</svg>
