<svg width="20" height="20" viewBox="0 0 20 20" fill="none" xmlns="http://www.w3.org/2000/svg">
<path d="M9.72249 8.47249C9.95249 8.47264 10.1392 8.65913 10.1392 8.88916V12.2225C10.1392 12.4525 9.95249 12.639 9.72249 12.6392C9.49237 12.6392 9.30583 12.4526 9.30583 12.2225V8.88916C9.30583 8.65904 9.49237 8.47249 9.72249 8.47249Z" fill="#2CD0FF"/>
<path d="M9.72249 6.66667C10.0292 6.66681 10.2775 6.91576 10.2775 7.22249C10.2775 7.52923 10.0292 7.77817 9.72249 7.77832C9.41567 7.77832 9.16667 7.52932 9.16667 7.22249C9.16667 6.91567 9.41567 6.66667 9.72249 6.66667Z" fill="#2CD0FF"/>
<path fill-rule="evenodd" clip-rule="evenodd" d="M10 0C15.5228 0 20 4.47715 20 10C20 15.5228 15.5228 20 10 20C4.47715 20 0 15.5228 0 10C0 4.47715 4.47715 0 10 0ZM10 4.16667C6.77834 4.16667 4.16667 6.77834 4.16667 10C4.16667 13.2217 6.77834 15.8333 10 15.8333C13.2217 15.8333 15.8333 13.2217 15.8333 10C15.8333 6.77834 13.2217 4.16667 10 4.16667Z" fill="#2CD0FF"/>
</svg>
