<svg width="16" height="16" viewBox="0 0 16 16" fill="none" xmlns="http://www.w3.org/2000/svg">
<path fill-rule="evenodd" clip-rule="evenodd" d="M7.99998 14.6666C11.6819 14.6666 14.6666 11.6818 14.6666 7.99992C14.6666 4.31802 11.6819 1.33325 7.99998 1.33325C4.31808 1.33325 1.33331 4.31802 1.33331 7.99992C1.33331 11.6818 4.31808 14.6666 7.99998 14.6666ZM8.31309 5.64637C8.50836 5.4511 8.82494 5.4511 9.0202 5.64637L11.0202 7.64637C11.2155 7.84163 11.2155 8.15821 11.0202 8.35347L9.0202 10.3535C8.82494 10.5487 8.50836 10.5487 8.31309 10.3535C8.11783 10.1582 8.11783 9.84163 8.31309 9.64637L9.45954 8.49992H5.33331C5.05717 8.49992 4.83331 8.27606 4.83331 7.99992C4.83331 7.72378 5.05717 7.49992 5.33331 7.49992H9.45954L8.31309 6.35347C8.11783 6.15821 8.11783 5.84163 8.31309 5.64637Z" fill="#FAFAFA"/>
</svg>
