<svg width="32" height="32" viewBox="0 0 32 32" fill="none" xmlns="http://www.w3.org/2000/svg">
<path d="M29.1855 9.56228C29.3333 11.2443 29.3333 13.3409 29.3333 16.0001C29.3333 21.5116 29.3333 24.6067 28.0168 26.6018L20.0815 18.6665L29.1855 9.56228Z" fill="#9C5CFF"/>
<path d="M26.6027 28.0162L18.6673 20.0807L9.56223 29.1856C11.2442 29.3334 13.3409 29.3334 16 29.3334C21.5125 29.3334 24.6076 29.3334 26.6027 28.0162Z" fill="#9C5CFF"/>
<path fill-rule="evenodd" clip-rule="evenodd" d="M16 2.66675C22.2854 2.66675 25.4281 2.66675 27.3807 4.61937C28.0525 5.29119 28.4932 6.1039 28.7823 7.13701L7.13694 28.7823C6.10382 28.4933 5.29112 28.0526 4.61929 27.3808C2.66667 25.4282 2.66667 22.2855 2.66667 16.0001C2.66667 9.71469 2.66667 6.57199 4.61929 4.61937C6.57191 2.66675 9.71461 2.66675 16 2.66675ZM7.33334 11.6765C7.33334 14.0563 8.82278 16.8334 11.1466 17.8265C11.6884 18.058 12.3117 18.058 12.8534 17.8265C15.1772 16.8334 16.6667 14.0563 16.6667 11.6765C16.6667 9.27788 14.5773 7.33342 12 7.33342C9.42268 7.33342 7.33334 9.27788 7.33334 11.6765Z" fill="#9C5CFF"/>
<path d="M14 12.0001C14 13.1047 13.1046 14.0001 12 14.0001C10.8954 14.0001 10 13.1047 10 12.0001C10 10.8955 10.8954 10.0001 12 10.0001C13.1046 10.0001 14 10.8955 14 12.0001Z" fill="#9C5CFF"/>
</svg>
