<svg width="22" height="22" viewBox="0 0 22 22" fill="none" xmlns="http://www.w3.org/2000/svg">
<path d="M16.75 6.75C16.75 7.85457 15.8546 8.75 14.75 8.75C13.6454 8.75 12.75 7.85457 12.75 6.75C12.75 5.64543 13.6454 4.75 14.75 4.75C15.8546 4.75 16.75 5.64543 16.75 6.75Z" fill="#6D6B76"/>
<path fill-rule="evenodd" clip-rule="evenodd" d="M10.8074 2.01191e-07H10.6926C8.38424 -1.22504e-05 6.57519 -2.19941e-05 5.16371 0.189747C3.71897 0.383987 2.57895 0.789327 1.68414 1.68414C0.789327 2.57895 0.383987 3.71897 0.189747 5.16371C-2.19941e-05 6.57519 -1.22504e-05 8.38422 2.01189e-07 10.6926V10.8074C-1.22504e-05 13.1158 -2.19941e-05 14.9248 0.189747 16.3363C0.383987 17.781 0.789327 18.9211 1.68414 19.8159C2.57895 20.7107 3.71897 21.116 5.16371 21.3103C6.57519 21.5 8.38423 21.5 10.6926 21.5H10.8074C13.1158 21.5 14.9248 21.5 16.3363 21.3103C17.781 21.116 18.9211 20.7107 19.8159 19.8159C20.7107 18.9211 21.116 17.781 21.3103 16.3363C21.5 14.9248 21.5 13.1158 21.5 10.8074V10.6926C21.5 8.38423 21.5 6.57519 21.3103 5.16371C21.116 3.71897 20.7107 2.57895 19.8159 1.68414C18.9211 0.789327 17.781 0.383987 16.3363 0.189747C14.9248 -2.19941e-05 13.1158 -1.22504e-05 10.8074 2.01191e-07ZM2.7448 2.7448C3.31445 2.17514 4.08517 1.84825 5.36358 1.67637C6.66356 1.50159 8.37178 1.5 10.75 1.5C13.1282 1.5 14.8364 1.50159 16.1364 1.67637C17.4148 1.84825 18.1855 2.17514 18.7552 2.7448C19.3249 3.31445 19.6518 4.08517 19.8236 5.36358C19.9984 6.66356 20 8.37178 20 10.75C20 11.2002 19.9999 11.6264 19.9987 12.0304L19.7766 11.9997C16.9328 11.6059 14.3305 13.0843 13.0054 15.3126C11.2959 10.9876 6.77844 8.03807 1.73073 8.76287L1.50497 8.79542C1.51633 7.38992 1.55368 6.27616 1.67637 5.36358C1.84825 4.08517 2.17514 3.31445 2.7448 2.7448Z" fill="#6D6B76"/>
</svg>
