<svg width="16" height="16" viewBox="0 0 16 16" fill="none" xmlns="http://www.w3.org/2000/svg">
<path fill-rule="evenodd" clip-rule="evenodd" d="M7.23111 14.6227C3.91134 14.2415 1.33325 11.4218 1.33325 7.99992C1.33325 4.31802 4.31802 1.33325 7.99992 1.33325C11.6818 1.33325 14.6666 4.31802 14.6666 7.99992C14.6666 11.4376 12.4781 11.1549 10.6089 10.9134C9.53086 10.7742 8.55899 10.6486 8.1745 11.2586C7.91155 11.6757 8.1958 12.1958 8.54446 12.5445C8.9801 12.9801 8.9801 13.6864 8.54446 14.122C8.1958 14.4707 7.72098 14.679 7.23111 14.6227ZM7.38992 4.66642C7.38992 5.21871 6.94221 5.66642 6.38992 5.66642C5.83764 5.66642 5.38992 5.21871 5.38992 4.66642C5.38992 4.11414 5.83764 3.66642 6.38992 3.66642C6.94221 3.66642 7.38992 4.11414 7.38992 4.66642ZM4.33325 8.66658C4.88554 8.66658 5.33325 8.21886 5.33325 7.66658C5.33325 7.11429 4.88554 6.66657 4.33325 6.66657C3.78097 6.66657 3.33325 7.11429 3.33325 7.66658C3.33325 8.21886 3.78097 8.66658 4.33325 8.66658ZM11.6666 8.66658C12.2189 8.66658 12.6666 8.21886 12.6666 7.66658C12.6666 7.11429 12.2189 6.66657 11.6666 6.66657C11.1143 6.66657 10.6666 7.11429 10.6666 7.66658C10.6666 8.21886 11.1143 8.66658 11.6666 8.66658ZM9.66659 5.66657C10.2189 5.66657 10.6666 5.21886 10.6666 4.66657C10.6666 4.11429 10.2189 3.66657 9.66659 3.66657C9.1143 3.66657 8.66659 4.11429 8.66659 4.66657C8.66659 5.21886 9.1143 5.66657 9.66659 5.66657Z" fill="#F93B93"/>
</svg>
