<svg width="48" height="48" viewBox="0 0 48 48" fill="none" xmlns="http://www.w3.org/2000/svg">
<rect width="48" height="48" rx="8" fill="#FFF8ED"/>
<path opacity="0.5" d="M18.8859 8.76245C20.056 8.74293 20.7487 9.5585 20.756 10.2576L20.8712 21.2546C20.8783 21.9359 21.4222 22.4746 22.0861 22.4578C22.7501 22.4407 23.2826 21.8746 23.2755 21.1931L23.1896 12.9451C23.1824 12.2582 23.8413 11.4295 25.007 11.4099C26.177 11.3904 26.8697 12.206 26.8771 12.905L26.9943 24.0759C27.0028 24.894 26.4157 25.5856 25.6613 25.8611C22.9626 26.8467 20.9553 29.272 20.9865 32.2527C20.9914 32.7302 21.2607 33.1356 21.6495 33.3308C21.2007 34.3844 20.9523 35.544 20.9523 36.7615C20.9523 37.6121 21.0758 38.434 21.3019 39.2117C15.5603 38.8661 11.2291 34.6227 11.1769 29.6453L11.048 17.2722C11.041 16.5854 11.6997 15.7565 12.8654 15.7371C14.0353 15.7176 14.7279 16.5332 14.7355 17.2322L14.7931 22.7312C14.8002 23.4125 15.3441 23.9511 16.0079 23.9343C16.672 23.9173 17.2045 23.3511 17.1974 22.6697L17.0685 10.2976C17.0613 9.61073 17.7201 8.78196 18.8859 8.76245ZM31.1857 19.5564C32.3557 19.5369 33.0483 20.3525 33.0558 21.0515L33.1359 28.6931C32.0847 28.2468 30.928 27.9998 29.714 27.9998C27.5168 27.9999 25.5097 28.8101 23.9718 30.1462C24.7629 28.8476 26.303 27.8874 28.2257 27.8552C28.5464 27.8499 28.8539 27.7138 29.0792 27.4763C29.3046 27.2388 29.4293 26.9197 29.4259 26.5906L29.3683 21.0916C29.3612 20.4047 30.0201 19.576 31.1857 19.5564Z" fill="#FF8000"/>
<path fill-rule="evenodd" clip-rule="evenodd" d="M29.7144 27.2615C25.7169 27.2615 22.4763 30.5021 22.4763 34.4996C22.4763 38.4971 25.7169 41.7377 29.7144 41.7377C33.7118 41.7377 36.9524 38.4971 36.9524 34.4996C36.9524 30.5021 33.7118 27.2615 29.7144 27.2615ZM27.5429 34.4996C26.3437 34.4996 25.3715 35.4718 25.3715 36.671C25.3715 37.8702 26.3437 38.8424 27.5429 38.8424C28.7422 38.8424 29.7144 37.8702 29.7144 36.671C29.7144 35.4718 28.7422 34.4996 27.5429 34.4996ZM24.7932 32.9123C25.0702 33.027 25.2017 33.3445 25.087 33.6215L24.7873 34.3453C24.6726 34.6223 24.3551 34.7539 24.0781 34.6392C23.8011 34.5245 23.6695 34.207 23.7842 33.93L24.0839 33.2062C24.1986 32.9292 24.5162 32.7976 24.7932 32.9123ZM30.9606 31.0788C31.0014 31.3745 31.2731 31.5815 31.5686 31.5429C32.0482 31.5166 33.0074 31.7674 33.0074 32.9817C32.9688 33.2772 33.1758 33.5489 33.4715 33.5896C33.7685 33.6306 34.0454 33.3989 34.0864 33.1019C34.0877 33.0903 34.0892 33.0752 34.0907 33.057C34.0938 33.0206 34.0968 32.9711 34.0979 32.9111C34.1 32.7918 34.0945 32.6269 34.0643 32.4372C34.0044 32.0609 33.8417 31.5566 33.4177 31.1326C32.9937 30.7085 32.4894 30.5459 32.1131 30.486C31.9234 30.4558 31.7585 30.4503 31.6392 30.4524C31.5792 30.4535 31.5297 30.4565 31.4933 30.4596C31.4751 30.4611 31.4283 30.4663 31.4283 30.4663C31.1313 30.5073 30.9197 30.7818 30.9606 31.0788ZM28.0808 32.466C28.1217 32.763 27.9142 33.0369 27.6172 33.0779L27.6163 33.078L27.6153 33.0781L27.6132 33.0784L27.6078 33.0791L27.593 33.0809C27.5814 33.0822 27.5664 33.0837 27.5481 33.0852C27.5117 33.0882 27.4623 33.0913 27.4023 33.0923C27.2829 33.0945 27.1181 33.089 26.9284 33.0588C26.552 32.9988 26.0478 32.8362 25.6237 32.4122C25.1997 31.9881 25.0371 31.4839 24.9771 31.1075C24.9469 30.9178 24.9414 30.753 24.9436 30.6336C24.9446 30.5736 24.9477 30.5242 24.9507 30.4878C24.9522 30.4695 24.9537 30.4545 24.955 30.4429L24.9568 30.4281L24.9575 30.4227C24.9984 30.1257 25.2729 29.9142 25.5699 29.9551C25.8656 29.9959 26.0726 30.2676 26.0341 30.563C26.0078 31.0426 26.2587 32.0018 27.4729 32.0018C27.7683 31.9633 28.04 32.1703 28.0808 32.466ZM35.3139 35.2181C35.3705 35.5086 35.1841 35.79 34.8963 35.8524L34.8944 35.8529C34.888 35.8547 34.8732 35.8592 34.8522 35.8675C34.8098 35.8843 34.7444 35.9154 34.671 35.9691C34.5318 36.071 34.3393 36.2714 34.2316 36.6733C34.1239 37.0754 34.1904 37.3451 34.26 37.503C34.2967 37.5862 34.3378 37.6459 34.3661 37.6815C34.3802 37.6992 34.3908 37.7105 34.3954 37.7153L34.3968 37.7167C34.6148 37.9146 34.6355 38.2516 34.4413 38.4748C34.2445 38.701 33.9016 38.7248 33.6754 38.528L34.0316 38.1186C33.6754 38.528 33.6757 38.5283 33.6754 38.528L33.6744 38.5272L33.6733 38.5262L33.671 38.5242L33.6658 38.5195L33.6526 38.5073C33.6428 38.498 33.6307 38.4863 33.617 38.4721C33.5895 38.4438 33.5548 38.4056 33.5163 38.3572C33.4396 38.2607 33.3464 38.1222 33.2666 37.941C33.1032 37.5704 33.0074 37.0473 33.1829 36.3924C33.3584 35.7374 33.7028 35.3323 34.0297 35.093C34.1894 34.9761 34.3394 34.9026 34.4541 34.8574C34.5116 34.8348 34.5608 34.819 34.5987 34.8083C34.6177 34.8029 34.634 34.7987 34.6472 34.7956L34.6646 34.7917L34.6716 34.7902L34.6746 34.7896L34.676 34.7893C34.6763 34.7893 34.6773 34.7891 34.7811 35.3219L34.6773 34.7891C34.9716 34.7317 35.2566 34.9238 35.3139 35.2181ZM30.3143 38.3441C30.4984 38.1074 30.8395 38.0648 31.0761 38.2489L32.2187 39.1377C32.4554 39.3218 32.498 39.6629 32.3139 39.8995C32.1298 40.1362 31.7888 40.1788 31.5521 39.9947L30.4095 39.1059C30.1729 38.9218 30.1302 38.5807 30.3143 38.3441ZM32.0667 34.4996C32.0667 34.1998 31.8237 33.9567 31.5239 33.9567C31.2241 33.9567 30.981 34.1998 30.981 34.4996V35.9472C30.981 36.247 31.2241 36.49 31.5239 36.49C31.8237 36.49 32.0667 36.247 32.0667 35.9472V34.4996ZM28.2667 28.89H29.7144C30.0142 28.89 30.2572 29.1331 30.2572 29.4329C30.2572 29.7327 30.0142 29.9758 29.7144 29.9758H28.2667C27.9669 29.9758 27.7239 29.7327 27.7239 29.4329C27.7239 29.1331 27.9669 28.89 28.2667 28.89ZM29.7363 31.5824C29.5243 31.3704 29.1806 31.3704 28.9686 31.5824C28.7566 31.7944 28.7566 32.1381 28.9686 32.3501L29.6924 33.0739C29.9044 33.2859 30.2481 33.2859 30.4601 33.0739C30.6721 32.8619 30.6721 32.5182 30.4601 32.3062L29.7363 31.5824Z" fill="#FF8000"/>
</svg>
