<svg width="16" height="16" viewBox="0 0 16 16" fill="none" xmlns="http://www.w3.org/2000/svg">
<path fill-rule="evenodd" clip-rule="evenodd" d="M4.83001 1.33325H11.17C11.9426 1.33325 12.3289 1.33325 12.6404 1.44166C13.2312 1.64722 13.695 2.12471 13.8947 2.73289C14 3.05362 14 3.45129 14 4.24663V13.5827C14 14.1549 13.3433 14.4584 12.9279 14.0783C12.6839 13.855 12.3161 13.855 12.0721 14.0783L11.75 14.373C11.3223 14.7644 10.6777 14.7644 10.25 14.373C9.82228 13.9816 9.17772 13.9816 8.75 14.373C8.32228 14.7644 7.67772 14.7644 7.25 14.373C6.82228 13.9816 6.17772 13.9816 5.75 14.373C5.32228 14.7644 4.67772 14.7644 4.25 14.373L3.92794 14.0783C3.68388 13.855 3.31612 13.855 3.07206 14.0783C2.65666 14.4584 2 14.1549 2 13.5827V4.24663C2 3.45129 2 3.05362 2.1053 2.73289C2.30499 2.12471 2.76881 1.64722 3.35959 1.44166C3.67114 1.33325 4.05743 1.33325 4.83001 1.33325ZM10.0396 5.66627C10.2236 5.46028 10.2057 5.1442 9.99967 4.96029C9.79369 4.77637 9.47761 4.79426 9.2937 5.00025L7.28571 7.24919L6.7063 6.60025C6.52239 6.39426 6.20631 6.37637 6.00033 6.56029C5.79434 6.7442 5.77645 7.06028 5.96036 7.26626L6.91275 8.33293C7.00761 8.43918 7.14328 8.49992 7.28571 8.49992C7.42815 8.49992 7.56382 8.43918 7.65868 8.33293L10.0396 5.66627ZM5 9.83326C4.72386 9.83326 4.5 10.0571 4.5 10.3333C4.5 10.6094 4.72386 10.8333 5 10.8333H11C11.2761 10.8333 11.5 10.6094 11.5 10.3333C11.5 10.0571 11.2761 9.83326 11 9.83326H5Z" fill="#6D6B76"/>
</svg>
