<svg width="16" height="16" viewBox="0 0 16 16" fill="none" xmlns="http://www.w3.org/2000/svg">
<path fill-rule="evenodd" clip-rule="evenodd" d="M4.83001 1.33325H11.17C11.9426 1.33325 12.3289 1.33325 12.6404 1.44166C13.2312 1.64722 13.695 2.12471 13.8947 2.73289C14 3.05362 14 3.45129 14 4.24663V13.5827C14 14.1549 13.3433 14.4584 12.9279 14.0783C12.6839 13.855 12.3161 13.855 12.0721 14.0783L11.75 14.373C11.3223 14.7644 10.6777 14.7644 10.25 14.373C9.82228 13.9816 9.17772 13.9816 8.75 14.373C8.32228 14.7644 7.67772 14.7644 7.25 14.373C6.82228 13.9816 6.17772 13.9816 5.75 14.373C5.32228 14.7644 4.67772 14.7644 4.25 14.373L3.92794 14.0783C3.68388 13.855 3.31612 13.855 3.07206 14.0783C2.65666 14.4584 2 14.1549 2 13.5827V4.24663C2 3.45129 2 3.05362 2.1053 2.73289C2.30499 2.12471 2.76881 1.64722 3.35959 1.44166C3.67114 1.33325 4.05743 1.33325 4.83001 1.33325ZM4.66667 4.49992C4.39052 4.49992 4.16667 4.72378 4.16667 4.99992C4.16667 5.27606 4.39052 5.49992 4.66667 5.49992H5C5.27614 5.49992 5.5 5.27606 5.5 4.99992C5.5 4.72378 5.27614 4.49992 5 4.49992H4.66667ZM7 4.49992C6.72386 4.49992 6.5 4.72378 6.5 4.99992C6.5 5.27606 6.72386 5.49992 7 5.49992H11.3333C11.6095 5.49992 11.8333 5.27606 11.8333 4.99992C11.8333 4.72378 11.6095 4.49992 11.3333 4.49992H7ZM4.66667 6.83325C4.39052 6.83325 4.16667 7.05711 4.16667 7.33325C4.16667 7.6094 4.39052 7.83325 4.66667 7.83325H5C5.27614 7.83325 5.5 7.6094 5.5 7.33325C5.5 7.05711 5.27614 6.83325 5 6.83325H4.66667ZM7 6.83325C6.72386 6.83325 6.5 7.05711 6.5 7.33325C6.5 7.6094 6.72386 7.83325 7 7.83325H11.3333C11.6095 7.83325 11.8333 7.6094 11.8333 7.33325C11.8333 7.05711 11.6095 6.83325 11.3333 6.83325H7ZM4.66667 9.16659C4.39052 9.16659 4.16667 9.39044 4.16667 9.66659C4.16667 9.94273 4.39052 10.1666 4.66667 10.1666H5C5.27614 10.1666 5.5 9.94273 5.5 9.66659C5.5 9.39044 5.27614 9.16659 5 9.16659H4.66667ZM7 9.16659C6.72386 9.16659 6.5 9.39044 6.5 9.66659C6.5 9.94273 6.72386 10.1666 7 10.1666H11.3333C11.6095 10.1666 11.8333 9.94273 11.8333 9.66659C11.8333 9.39044 11.6095 9.16659 11.3333 9.16659H7Z" fill="#681AD6"/>
</svg>
