<svg width="16" height="16" viewBox="0 0 16 16" fill="none" xmlns="http://www.w3.org/2000/svg">
<path d="M11.1699 1.33301C11.9425 1.33301 12.3291 1.333 12.6406 1.44141C13.2314 1.64699 13.6949 2.12525 13.8945 2.7334C13.9997 3.05406 14 3.45201 14 4.24707V13.583C13.9998 14.155 13.3431 14.4582 12.9277 14.0781C12.6838 13.8551 12.3162 13.8551 12.0723 14.0781L11.75 14.373C11.349 14.74 10.7578 14.7625 10.333 14.4414L10.167 14.3047C9.77052 14.0051 9.22948 14.0051 8.83301 14.3047L8.66699 14.4414C8.27051 14.741 7.72949 14.741 7.33301 14.4414L7.16699 14.3047C6.77052 14.0051 6.22948 14.0051 5.83301 14.3047L5.66699 14.4414C5.24218 14.7625 4.65098 14.74 4.25 14.373L3.92773 14.0781C3.68376 13.8551 3.31624 13.8551 3.07227 14.0781C2.65692 14.4582 2.00016 14.155 2 13.583V4.24707C2 3.45201 2.00028 3.05406 2.10547 2.7334C2.30514 2.12525 2.76864 1.64699 3.35938 1.44141C3.67092 1.333 4.0575 1.33301 4.83008 1.33301H11.1699ZM3.50586 5.83301C3.41078 5.83301 3.33301 5.90795 3.33301 6V6.32129C3.33319 6.41319 3.4109 6.4873 3.50586 6.4873H4.36035V9C4.36035 9.09205 4.43813 9.16699 4.5332 9.16699H4.99414C5.08922 9.16699 5.16699 9.09205 5.16699 9V6.4873H6.02051C6.11533 6.48715 6.1922 6.41309 6.19238 6.32129V6C6.19238 5.90805 6.11544 5.83317 6.02051 5.83301H3.50586ZM7.28809 5.83301C7.21393 5.83301 7.14741 5.87915 7.12402 5.94727L6.02246 9.16699H6.77344C6.849 9.16699 6.91625 9.11875 6.93848 9.04883L7.12305 8.4668H8.29199L8.47754 9.04883C8.4998 9.11869 8.56609 9.16698 8.6416 9.16699H9.39355L8.29102 5.94727C8.26761 5.87931 8.20193 5.83311 8.12793 5.83301H7.28809ZM9.96582 5.83301C9.83247 5.83301 9.74953 5.97391 9.81738 6.08496L10.6855 7.5L9.7959 8.91309C9.72607 9.02414 9.80905 9.16699 9.94336 9.16699H10.4688C10.5303 9.16699 10.5874 9.1346 10.6182 9.08301L11.2031 8.10254H11.2295L11.8135 9.08301C11.8442 9.1346 11.9014 9.16699 11.9629 9.16699H12.4941C12.6286 9.16699 12.7108 9.02414 12.6406 8.91309L11.748 7.5L12.6143 6.08496C12.6823 5.97386 12.5992 5.83301 12.4658 5.83301H11.9531C11.8915 5.83301 11.8344 5.86522 11.8037 5.91699L11.2295 6.88672H11.2031L10.6348 5.91797C10.6042 5.86582 10.5463 5.83301 10.4844 5.83301H9.96582ZM8.09668 7.85449H7.31836L7.69336 6.67285H7.71973L8.09668 7.85449Z" fill="#6D6B76"/>
</svg>
