<svg width="48" height="48" viewBox="0 0 48 48" fill="none" xmlns="http://www.w3.org/2000/svg">
<path fill-rule="evenodd" clip-rule="evenodd" d="M17.2247 3.7334C26.9993 3.73354 40.7698 14.2264 40.1377 25.7089C39.5056 37.1913 32.2366 37.3893 28.6021 39.9629C24.9677 42.5366 23.7035 46.1001 15.0124 46.892C6.32127 47.6839 8.89389e-05 36.9935 0 25.115C0 12.0486 7.45013 3.7334 17.2247 3.7334ZM13.7475 25.7089C13.0494 25.7089 11.1553 26.5922 11.1552 27.4667C11.1552 28.3414 13.0493 31.0537 13.7475 31.0538C14.4456 31.0538 15.0116 30.3448 15.0116 29.4701C16.2866 27.7334 14.4456 25.7089 13.7475 25.7089ZM19.8563 18.1334C18.5473 18.1334 15.3944 20.7602 15.3942 22.4001C15.3942 24.0401 18.2848 27.0941 19.5939 27.0941C20.9029 27.094 23.2028 24.8401 23.2028 23.2001C23.2026 21.5603 21.1652 18.1335 19.8563 18.1334Z" fill="#FCD755"/>
<path fill-rule="evenodd" clip-rule="evenodd" d="M17.2248 3.19995C26.9994 3.20009 40.7699 13.3042 40.1378 24.3614C39.5057 35.4185 32.2367 35.6091 28.6022 38.0874C24.9677 40.5658 23.7035 43.9972 15.0125 44.7598C6.32128 45.5224 8.89391e-05 35.228 0 23.7895C0 11.2072 7.45014 3.19995 17.2248 3.19995ZM13.7475 26.4583C13.0494 26.4583 12.4835 27.1411 12.4834 27.9833C12.4834 28.8256 13.0493 29.5082 13.7475 29.5083C14.4457 29.5083 15.0116 28.8256 15.0116 27.9833C15.0115 27.1411 14.4456 26.4583 13.7475 26.4583ZM19.5939 19.976C18.285 19.976 17.2237 21.2563 17.2235 22.8354C17.2235 24.4147 18.2848 25.6953 19.5939 25.6953C20.903 25.6952 21.964 24.4146 21.964 22.8354C21.9638 21.2563 20.9028 19.9761 19.5939 19.976Z" fill="white"/>
<path d="M18.0146 15.0195C22.4654 15.0198 26.0732 19.3727 26.0732 24.7422C26.0732 30.1117 22.4654 34.4646 18.0146 34.4648C13.5637 34.4648 9.95508 30.1119 9.95508 24.7422C9.95512 19.3725 13.5637 15.0195 18.0146 15.0195ZM13.749 26.458C13.051 26.458 12.4846 27.1413 12.4844 27.9834C12.4846 28.8255 13.051 29.5078 13.749 29.5078C14.4468 29.5074 15.0125 28.8252 15.0127 27.9834C15.0125 27.1416 14.4468 26.4584 13.749 26.458ZM19.5947 19.9756C18.2859 19.9756 17.2249 21.256 17.2246 22.835C17.2246 24.4143 18.2857 25.6953 19.5947 25.6953C20.9037 25.6952 21.9648 24.4142 21.9648 22.835C21.9645 21.256 20.9035 19.9757 19.5947 19.9756Z" fill="#FBC224"/>
<path d="M13.7488 26.4587C14.4468 26.459 15.0125 27.142 15.0125 27.9841C15.0122 28.826 14.4466 29.5082 13.7488 29.5085C13.0507 29.5085 12.4843 28.8262 12.4841 27.9841C12.4841 27.1418 13.0506 26.4587 13.7488 26.4587ZM19.5945 19.9763C20.9035 19.9763 21.9645 21.2565 21.9646 22.8357C21.9646 24.415 20.9036 25.696 19.5945 25.696C18.2854 25.696 17.2244 24.415 17.2244 22.8357C17.2245 21.2565 18.2855 19.9764 19.5945 19.9763Z" fill="#FEF4C7"/>
</svg>
