<svg width="16" height="16" viewBox="0 0 16 16" fill="none" xmlns="http://www.w3.org/2000/svg">
<path d="M5.16659 1.66675C5.16659 1.39061 4.94273 1.16675 4.66659 1.16675C4.39044 1.16675 4.16659 1.39061 4.16659 1.66675V2.71959C3.20703 2.79642 2.5771 2.985 2.1143 3.4478C1.6515 3.9106 1.46293 4.54053 1.38609 5.50008H14.6137C14.5369 4.54053 14.3483 3.9106 13.8855 3.4478C13.4227 2.985 12.7928 2.79642 11.8333 2.71959V1.66675C11.8333 1.39061 11.6094 1.16675 11.3333 1.16675C11.0571 1.16675 10.8333 1.39061 10.8333 1.66675V2.67535C10.3897 2.66675 9.89261 2.66675 9.33325 2.66675H6.66659C6.10723 2.66675 5.6101 2.66675 5.16659 2.67535V1.66675Z" fill="#00C1FF"/>
<path fill-rule="evenodd" clip-rule="evenodd" d="M14.6666 8.00008C14.6666 7.44073 14.6666 6.94359 14.658 6.50008H1.34185C1.33325 6.94359 1.33325 7.44073 1.33325 8.00008V9.33342C1.33325 11.8476 1.33325 13.1047 2.1143 13.8857C2.89535 14.6667 4.15243 14.6667 6.66659 14.6667H9.33325C11.8474 14.6667 13.1045 14.6667 13.8855 13.8857C14.6666 13.1047 14.6666 11.8476 14.6666 9.33342V8.00008ZM9.33325 8.16675C8.68892 8.16675 8.16659 8.68908 8.16659 9.33342V10.6667C8.16659 11.3111 8.68892 11.8334 9.33325 11.8334C9.97758 11.8334 10.4999 11.3111 10.4999 10.6667V9.33342C10.4999 8.68908 9.97758 8.16675 9.33325 8.16675ZM9.33325 9.16675C9.2412 9.16675 9.16659 9.24137 9.16659 9.33342V10.6667C9.16659 10.7588 9.2412 10.8334 9.33325 10.8334C9.4253 10.8334 9.49992 10.7588 9.49992 10.6667V9.33342C9.49992 9.24137 9.4253 9.16675 9.33325 9.16675ZM7.19126 8.20481C7.3781 8.2822 7.49992 8.46452 7.49992 8.66675V11.3334C7.49992 11.6096 7.27606 11.8334 6.99992 11.8334C6.72378 11.8334 6.49992 11.6096 6.49992 11.3334V9.87386L6.35347 10.0203C6.15821 10.2156 5.84163 10.2156 5.64637 10.0203C5.4511 9.82504 5.4511 9.50846 5.64637 9.3132L6.64637 8.3132C6.78936 8.1702 7.00442 8.12742 7.19126 8.20481Z" fill="#00C1FF"/>
</svg>
