<svg width="20" height="20" viewBox="0 0 20 20" fill="none" xmlns="http://www.w3.org/2000/svg">
<path fill-rule="evenodd" clip-rule="evenodd" d="M7.99375 2.66697C7.79081 2.83992 7.68934 2.9264 7.58097 2.99903C7.33255 3.16553 7.05356 3.28109 6.76016 3.33902C6.63217 3.36429 6.49928 3.37489 6.23348 3.3961C5.56566 3.44939 5.23175 3.47604 4.95317 3.57444C4.30884 3.80202 3.80202 4.30884 3.57444 4.95317C3.47604 5.23175 3.44939 5.56566 3.3961 6.23348C3.37489 6.49928 3.36429 6.63217 3.33902 6.76016C3.28109 7.05356 3.16553 7.33255 2.99903 7.58097C2.92639 7.68934 2.83992 7.79081 2.66697 7.99375C2.23244 8.50365 2.01517 8.75861 1.88776 9.02517C1.59308 9.64171 1.59308 10.3585 1.88776 10.975C2.01517 11.2416 2.23244 11.4965 2.66697 12.0064C2.8399 12.2093 2.9264 12.3108 2.99903 12.4192C3.16553 12.6676 3.28109 12.9466 3.33902 13.24C3.36429 13.368 3.37489 13.5009 3.3961 13.7667C3.44939 14.4345 3.47604 14.7684 3.57444 15.047C3.80202 15.6913 4.30884 16.1981 4.95317 16.4257C5.23175 16.5241 5.56566 16.5508 6.23348 16.6041C6.49928 16.6253 6.63217 16.6359 6.76017 16.6611C7.05356 16.7191 7.33255 16.8346 7.58097 17.0011C7.68934 17.0738 7.79081 17.1602 7.99375 17.3332C8.50366 17.7677 8.75861 17.985 9.02517 18.1124C9.64171 18.4071 10.3585 18.4071 10.975 18.1124C11.2416 17.985 11.4965 17.7677 12.0064 17.3332C12.2094 17.1602 12.3108 17.0738 12.4192 17.0011C12.6676 16.8346 12.9466 16.7191 13.24 16.6611C13.368 16.6359 13.5009 16.6253 13.7667 16.6041C14.4345 16.5508 14.7684 16.5241 15.047 16.4257C15.6913 16.1981 16.1981 15.6913 16.4257 15.047C16.5241 14.7684 16.5508 14.4345 16.6041 13.7667C16.6253 13.5009 16.6359 13.368 16.6611 13.24C16.7191 12.9466 16.8346 12.6676 17.0011 12.4192C17.0738 12.3108 17.1602 12.2094 17.3332 12.0064C17.7677 11.4965 17.985 11.2416 18.1124 10.975C18.4071 10.3585 18.4071 9.64171 18.1124 9.02517C17.985 8.75861 17.7677 8.50366 17.3332 7.99375C17.1602 7.79081 17.0738 7.68934 17.0011 7.58097C16.8346 7.33255 16.7191 7.05356 16.6611 6.76017C16.6359 6.63217 16.6253 6.49928 16.6041 6.23348C16.5508 5.56566 16.5241 5.23175 16.4257 4.95317C16.1981 4.30884 15.6913 3.80202 15.047 3.57444C14.7684 3.47604 14.4345 3.44939 13.7667 3.3961C13.5009 3.37489 13.368 3.36429 13.24 3.33902C12.9466 3.28109 12.6676 3.16553 12.4192 2.99903C12.3108 2.92639 12.2094 2.83992 12.0064 2.66697C11.4965 2.23244 11.2416 2.01517 10.975 1.88776C10.3585 1.59308 9.64171 1.59308 9.02517 1.88776C8.75861 2.01517 8.50365 2.23244 7.99375 2.66697ZM13.6447 8.21936C13.9095 7.9545 13.9095 7.52508 13.6447 7.26022C13.3798 6.99536 12.9504 6.99536 12.6855 7.26022L8.64364 11.3021L7.31463 9.97308C7.04977 9.70823 6.62035 9.70823 6.35549 9.97308C6.09063 10.2379 6.09063 10.6674 6.35549 10.9322L8.16407 12.7408C8.42893 13.0057 8.85835 13.0057 9.12321 12.7408L13.6447 8.21936Z" fill="#19CE68"/>
</svg>
