<svg width="16" height="16" viewBox="0 0 16 16" fill="none" xmlns="http://www.w3.org/2000/svg">
<path d="M2.94252 11.9057C3.18103 11.7666 3.487 11.8476 3.62612 12.086C4.17736 13.0313 5.02046 13.7459 6.05971 14.2097C6.31188 14.3223 6.42486 14.6183 6.31231 14.8705C6.19972 15.1225 5.90425 15.2356 5.65216 15.1231C4.44458 14.5842 3.43147 13.7364 2.76283 12.5899C2.62373 12.3514 2.70398 12.0448 2.94252 11.9057Z" fill="#00C1FF"/>
<path d="M6.47898 2.05411C6.90143 1.81267 7.3174 1.96108 7.4601 2.2058L9.7407 6.11596C9.9077 6.40235 9.83216 6.76352 9.61244 7.01179C8.82653 7.89985 8.58079 9.15649 9.18927 10.1999C9.32836 10.4385 9.63433 10.5187 9.87286 10.3796C10.1114 10.2405 10.1923 9.93458 10.0532 9.69603C9.60307 8.92402 9.91816 7.78761 10.9464 7.19994C11.0622 7.13376 11.1469 7.02405 11.1815 6.89525C11.2159 6.76652 11.1971 6.62953 11.13 6.51439L10.0076 4.58926C9.86741 4.34882 9.94163 3.92488 10.3624 3.68432C10.7849 3.44288 11.2009 3.59129 11.3436 3.83601L13.0272 6.72338C14.0972 8.55845 13.3 11.1191 11.0571 12.4011C8.81256 13.6839 6.16564 13.0873 5.09291 11.2481L2.56687 6.91674C2.42674 6.67629 2.50096 6.25232 2.92169 6.01179C3.34414 5.77035 3.7601 5.91876 3.90281 6.16348L5.0252 8.08861C5.16435 8.32705 5.47095 8.40738 5.70945 8.2683C5.94778 8.12914 6.02814 7.82316 5.88914 7.58471L3.36375 3.25333C3.22354 3.01286 3.29767 2.58892 3.71856 2.34838C4.14084 2.10719 4.55627 2.25549 4.69903 2.50007L6.94448 6.34968C7.08358 6.58822 7.38953 6.66911 7.62807 6.53002C7.86654 6.39096 7.94733 6.08494 7.80841 5.84642L6.12416 2.95905C5.98397 2.71864 6.05828 2.29468 6.47898 2.05411Z" fill="#00C1FF"/>
<path d="M9.74656 0.975982C11.0386 0.60836 12.3828 0.959657 13.3182 1.91478C13.5113 2.11205 13.5082 2.42861 13.311 2.62181C13.1137 2.81498 12.7972 2.81186 12.604 2.61465C11.928 1.92434 10.9637 1.6697 10.02 1.93822C9.75449 2.0136 9.47835 1.85932 9.40281 1.59382C9.32732 1.32826 9.481 1.05154 9.74656 0.975982Z" fill="#00C1FF"/>
</svg>
