<svg width="16" height="16" viewBox="0 0 16 16" fill="none" xmlns="http://www.w3.org/2000/svg">
<path fill-rule="evenodd" clip-rule="evenodd" d="M4.22222 1.33325H11.7778C11.9841 1.33325 12.0873 1.33325 12.1743 1.34124C13.1412 1.42999 13.9078 2.23428 13.9924 3.24873C14 3.34 14 3.44825 14 3.66476V13.5064C14 14.0881 13.2942 14.335 12.9615 13.8696C12.7308 13.5468 12.2692 13.5468 12.0385 13.8696L11.75 14.2731C11.375 14.7977 10.625 14.7977 10.25 14.2731C9.875 13.7486 9.125 13.7486 8.75 14.2731C8.375 14.7977 7.625 14.7977 7.25 14.2731C6.875 13.7486 6.125 13.7486 5.75 14.2731C5.375 14.7977 4.625 14.7977 4.25 14.2731L3.96154 13.8696C3.73077 13.5468 3.26923 13.5468 3.03846 13.8696C2.7058 14.335 2 14.0881 2 13.5064V3.66476C2 3.44825 2 3.34 2.00761 3.24873C2.0922 2.23428 2.85879 1.42999 3.82569 1.34124C3.91268 1.33325 4.01586 1.33325 4.22222 1.33325ZM7.02023 4.9797C6.82497 4.78444 6.50839 4.78444 6.31312 4.9797C6.11786 5.17496 6.11786 5.49154 6.31312 5.68681L7.29291 6.66659L6.31314 7.64637C6.11787 7.84163 6.11787 8.15821 6.31314 8.35347C6.5084 8.54873 6.82498 8.54873 7.02024 8.35347L8.00002 7.3737L8.97978 8.35346C9.17504 8.54872 9.49162 8.54872 9.68689 8.35346C9.88215 8.1582 9.88215 7.84162 9.68689 7.64635L8.70712 6.66659L9.6869 5.68682C9.88216 5.49155 9.88216 5.17497 9.6869 4.97971C9.49164 4.78445 9.17505 4.78445 8.97979 4.97971L8.00002 5.95948L7.02023 4.9797ZM5 9.83325C4.72386 9.83325 4.5 10.0571 4.5 10.3333C4.5 10.6094 4.72386 10.8333 5 10.8333H11C11.2761 10.8333 11.5 10.6094 11.5 10.3333C11.5 10.0571 11.2761 9.83325 11 9.83325H5Z" fill="#FF4646"/>
</svg>
