<svg width="48" height="48" viewBox="0 0 48 48" fill="none" xmlns="http://www.w3.org/2000/svg">
<rect width="48" height="48" rx="12" fill="#FEF1F8"/>
<path d="M21.12 23.9772C21.12 22.3894 22.4094 21.1023 24 21.1023C25.5906 21.1023 26.88 22.3894 26.88 23.9772C26.88 24.7784 26.5517 25.5031 26.0219 26.0244C25.9561 26.069 25.8948 26.1225 25.8398 26.1848L25.8266 26.2C25.3296 26.6075 24.6934 26.8521 24 26.8521C22.4094 26.8521 21.12 25.5649 21.12 23.9772Z" fill="#F93B93"/>
<path fill-rule="evenodd" clip-rule="evenodd" d="M33.5727 27.5484C34.4782 26.8799 35.6302 26.8599 36.322 27.4485C36.6334 26.3447 36.8 25.1804 36.8 23.9772C36.8 21.4497 36.0648 19.0936 34.7963 17.1103L33.6383 18.2662C33.2634 18.6404 32.6556 18.6404 32.2807 18.2662C31.9058 17.892 31.9058 17.2852 32.2807 16.911L33.5607 15.6332C33.5847 15.6093 33.6097 15.5868 33.6355 15.5659C31.2893 12.8899 27.8423 11.2 24 11.2C21.468 11.2 19.1077 11.9338 17.1209 13.2001L18.2783 14.3555C18.6532 14.7297 18.6532 15.3365 18.2783 15.7107C17.9034 16.085 17.2956 16.085 16.9207 15.7107L15.6407 14.433C15.6168 14.4092 15.5945 14.3845 15.5737 14.3589C12.893 16.7009 11.2 20.1417 11.2 23.9772C11.2 24.3405 11.2152 24.7003 11.245 25.056C11.5219 25.2521 11.8645 25.4811 12.2484 25.7093C13.2963 26.3324 14.4921 26.8521 15.4647 26.8521C16.1255 26.8521 17.0559 26.6133 18.0078 26.243C18.546 26.0337 19.052 25.7977 19.4729 25.5736C19.2962 25.0743 19.2 24.5369 19.2 23.9772C19.2 21.3309 21.349 19.1857 24 19.1857C26.651 19.1857 28.8 21.3309 28.8 23.9772C28.8 24.9702 28.4974 25.8926 27.9792 26.6576C28.1254 26.7541 28.2852 26.8584 28.4556 26.9696L28.6721 27.1109C29.2829 27.51 30.0323 28.0047 30.4388 28.4104C30.4556 28.4272 30.4716 28.4444 30.4869 28.462C31.095 28.537 31.6399 28.8205 31.9994 29.3058L32.3518 29.7816C32.3917 29.8353 32.47 29.8411 32.5174 29.7939C32.5424 29.7689 32.5536 29.7334 32.5489 29.6984C32.448 28.9502 32.8214 28.103 33.5727 27.5484ZM29.6955 14.2665C30.1196 14.584 30.2056 15.1847 29.8875 15.6081L27.9675 18.1635C27.6494 18.5869 27.0476 18.6728 26.6235 18.3552C26.1993 18.0377 26.1134 17.437 26.4315 17.0136L28.3515 14.4581C28.6696 14.0347 29.2713 13.9489 29.6955 14.2665ZM22.0407 13.0778C21.6658 13.452 21.6658 14.0588 22.0407 14.433L23.3207 15.7107C23.6956 16.085 24.3034 16.085 24.6783 15.7107C25.0532 15.3365 25.0532 14.7297 24.6783 14.3555L23.3983 13.0778C23.0234 12.7035 22.4156 12.7035 22.0407 13.0778ZM19.4037 18.3043C19.5409 18.8155 20.0673 19.1189 20.5794 18.9819L22.328 18.5142C22.8401 18.3772 23.144 17.8518 23.0068 17.3405C22.8696 16.8293 22.3432 16.526 21.831 16.6629L20.0825 17.1306C19.5704 17.2676 19.2665 17.7931 19.4037 18.3043ZM16.1875 17.8104C15.7048 18.0294 15.4914 18.5976 15.7108 19.0794L16.4599 20.7244C16.6793 21.2062 17.2484 21.4192 17.7311 21.2002C18.2138 20.9812 18.4272 20.4131 18.2078 19.9313L17.4587 18.2863C17.2393 17.8045 16.6701 17.5914 16.1875 17.8104ZM30.0812 22.8763C30.6108 22.8515 31.02 22.4028 30.9951 21.8741L30.9101 20.0691C30.8852 19.5405 30.4357 19.132 29.9061 19.1569C29.3765 19.1817 28.9673 19.6304 28.9922 20.1591L29.0772 21.9641C29.1021 22.4928 29.5516 22.9012 30.0812 22.8763ZM32.2386 24.052C32.589 24.4492 33.1956 24.4876 33.5935 24.1378L35.7414 22.2495C36.1393 21.8997 36.1778 21.2942 35.8274 20.897C35.477 20.4998 34.8704 20.4614 34.4725 20.8112L32.3246 22.6995C31.9267 23.0493 31.8882 23.6548 32.2386 24.052ZM17.5265 22.565C17.9543 22.8776 18.0473 23.4772 17.7342 23.9043L16.6651 25.3625C16.3519 25.7895 15.7513 25.8824 15.3234 25.5698C14.8956 25.2572 14.8026 24.6576 15.1157 24.2305L16.1848 22.7724C16.4979 22.3453 17.0986 22.2524 17.5265 22.565ZM13.1996 19.1077C12.6702 19.1372 12.265 19.5894 12.2944 20.1179L12.3951 21.922C12.4246 22.4505 12.8777 22.855 13.407 22.8255C13.9364 22.7961 14.3416 22.3439 14.3122 21.8154L14.2115 20.0113C14.182 19.4828 13.7289 19.0783 13.1996 19.1077Z" fill="#F93B93"/>
<path opacity="0.5" d="M24.3179 36.2292C24.0724 35.4052 24.347 34.3741 25.1679 33.768C25.7982 33.3028 26.5478 33.1516 27.1786 33.3012C27.2614 33.3208 27.3499 33.3002 27.4101 33.2401C27.4901 33.1603 27.4995 33.034 27.4323 32.9432L27.3121 32.7811C26.5294 31.7245 26.9199 30.1092 28.1823 29.1592C27.9986 29.0344 27.7959 28.9003 27.5801 28.7592L27.3518 28.6105C27.0782 28.4325 26.7912 28.2457 26.5323 28.0679C25.7887 28.54 24.9062 28.8135 23.9597 28.8135C22.5605 28.8135 21.3012 28.2159 20.4238 27.2625C19.9028 27.5449 19.2932 27.8291 18.6647 28.0736C17.6396 28.4724 16.4436 28.8135 15.4244 28.8135C14.1048 28.8135 12.7436 28.2431 11.6874 27.6647C13.2584 32.9467 18.1583 36.7993 23.9597 36.7993C24.2328 36.7993 24.3957 36.4904 24.3179 36.2292Z" fill="#F93B93"/>
<path d="M29.6 31.2043L33.599 33.5038L37.5956 31.2L35.2961 35.199L37.6 39.1956L33.6009 36.8961L29.6044 39.2L31.9039 35.2009L29.6 31.2043Z" fill="#F93B93"/>
<path opacity="0.5" d="M34.4 10.4017L35.9997 11.3215L37.5983 10.3999L36.6785 11.9995L37.6 13.5981L36.0004 12.6784L34.4018 13.5999L35.3216 12.0003L34.4 10.4017Z" fill="#F93B93"/>
<path opacity="0.5" d="M8.79999 8.80268L11.1994 10.1824L13.5974 8.80005L12.2177 11.1995L13.6 13.5974L11.2005 12.2177L8.80262 13.6L10.1823 11.2006L8.79999 8.80268Z" fill="#F93B93"/>
</svg>
