<svg width="48" height="48" viewBox="0 0 48 48" fill="none" xmlns="http://www.w3.org/2000/svg">
<rect width="48" height="48" rx="12" fill="#F9F5FF"/>
<path opacity="0.5" d="M21.7611 8C22.8875 8 23.8011 8.90969 23.8011 10.0312C23.801 10.7827 23.3901 11.439 22.7806 11.79V12.1328C24.6219 12.3576 26.3086 13.103 27.6849 14.2158C27.7111 14.1822 27.7399 14.15 27.7709 14.1191L28.6293 13.2646C28.5842 13.0969 28.5599 12.9202 28.5599 12.7383C28.56 11.6169 29.4728 10.7081 30.599 10.708C31.7254 10.708 32.6389 11.6168 32.639 12.7383C32.639 13.8598 31.7254 14.7695 30.599 14.7695C30.4164 14.7695 30.2391 14.745 30.0707 14.7002L29.2123 15.5547C29.1813 15.5855 29.1494 15.6146 29.1156 15.6406C29.4087 16.0001 29.6758 16.3812 29.9154 16.7803C29.458 17.0173 29.0286 17.3273 28.6449 17.7109L26.806 19.5488C26.3094 19.3061 25.7511 19.169 25.1605 19.1689C23.0954 19.1689 21.4213 20.8364 21.4213 22.8926C21.4213 23.4862 21.5617 24.0469 21.8099 24.5449L17.2308 29.125C17.091 29.2649 16.9643 29.4151 16.849 29.5723C16.7781 29.5285 16.7058 29.487 16.6361 29.4414L14.764 31.3516C14.892 31.6657 14.9623 32.0093 14.9623 32.3691C14.9623 33.8645 13.7453 35.077 12.2435 35.0771C10.7416 35.0771 9.5238 33.8646 9.5238 32.3691C9.52385 30.8738 10.7417 29.6611 12.2435 29.6611C12.6353 29.6612 13.0076 29.7441 13.3441 29.8926L15.0511 28.1514C13.9658 27.0599 13.1389 25.7129 12.6722 24.2129C12.5327 24.2349 12.3893 24.2461 12.2435 24.2461C10.7416 24.2461 9.5238 23.0335 9.5238 21.5381C9.52401 20.0428 10.7418 18.8311 12.2435 18.8311C12.3603 18.8311 12.4754 18.8383 12.5883 18.8525C12.9315 17.6265 13.5191 16.5045 14.2953 15.541L13.3051 14.5547C12.9789 14.6926 12.6202 14.7695 12.2435 14.7695C10.7416 14.7695 9.5238 13.5569 9.5238 12.0615C9.52381 10.5661 10.7416 9.35352 12.2435 9.35352C13.7453 9.35368 14.9623 10.5662 14.9623 12.0615C14.9623 12.4367 14.886 12.7943 14.7474 13.1191L15.7377 14.1045C17.1302 12.9923 18.8526 12.2706 20.7416 12.1006V11.79C20.1321 11.439 19.7222 10.7827 19.722 10.0312C19.722 8.90971 20.6347 8.00003 21.7611 8ZM17.682 21.5381C16.9311 21.5381 16.3226 22.1449 16.3226 22.8926C16.3228 23.6401 16.9312 24.2461 17.682 24.2461C18.4329 24.2461 19.0412 23.6402 19.0414 22.8926C19.0414 22.1449 18.433 21.5381 17.682 21.5381ZM23.4603 22.8945V22.8926C23.4603 21.9599 24.2186 21.2033 25.1547 21.2002L23.4603 22.8945ZM19.722 14.7695C18.5957 14.7695 17.6821 15.6783 17.682 16.7998C17.682 17.9214 18.5956 18.8311 19.722 18.8311C20.8483 18.8308 21.7611 17.9212 21.7611 16.7998C21.7611 16.7213 21.7571 16.6435 21.7484 16.5674C21.6736 15.9144 21.2873 15.3554 20.7416 15.041C20.4417 14.8683 20.0934 14.7696 19.722 14.7695Z" fill="#9C5CFF"/>
<path fill-rule="evenodd" clip-rule="evenodd" d="M19.8688 38.9457L19.3792 39.4353C18.6262 40.1882 17.4055 40.1882 16.6526 39.4353C15.8997 38.6824 15.8997 37.4616 16.6526 36.7087L17.1422 36.2191C17.6944 35.6669 17.9657 34.8936 17.8794 34.1175L17.7661 33.0975C17.6367 31.9333 18.0436 30.7734 18.8719 29.9451L30.2855 18.5315C32.2933 16.5237 35.5486 16.5237 37.5564 18.5315C39.5642 20.5393 39.5642 23.7946 37.5564 25.8024L36.4157 26.9431L34.7559 25.2832C34.382 24.9094 33.7759 24.9094 33.4021 25.2832C33.0283 25.6571 33.0283 26.2632 33.4021 26.637L35.0619 28.2968L32.3321 31.0267L30.6723 29.3668C30.2984 28.993 29.6923 28.993 29.3185 29.3668C28.9447 29.7407 28.9447 30.3468 29.3185 30.7206L30.9783 32.3804L28.236 35.1228L26.5761 33.463C26.2023 33.0891 25.5962 33.0891 25.2223 33.463C24.8485 33.8368 24.8485 34.4429 25.2223 34.8167L26.8822 36.4766L26.1428 37.216C25.3145 38.0443 24.1546 38.4511 22.9904 38.3218L21.9704 38.2084C21.1943 38.1222 20.421 38.3935 19.8688 38.9457ZM32.7192 24.7225C33.093 24.3486 33.093 23.7425 32.7192 23.3687C32.3454 22.9949 31.7393 22.9949 31.3654 23.3687L23.0691 31.665C22.6953 32.0388 22.6953 32.6449 23.0691 33.0188C23.443 33.3926 24.0491 33.3926 24.4229 33.0188L32.7192 24.7225Z" fill="#9C5CFF"/>
</svg>
