<svg width="48" height="48" viewBox="0 0 48 48" fill="none" xmlns="http://www.w3.org/2000/svg">
<g clip-path="url(#clip0_364_3663)">
<mask id="mask0_364_3663" style="mask-type:luminance" maskUnits="userSpaceOnUse" x="0" y="0" width="48" height="48">
<path d="M48 0H0V48H48V0Z" fill="white"/>
</mask>
<g mask="url(#mask0_364_3663)">
<mask id="mask1_364_3663" style="mask-type:luminance" maskUnits="userSpaceOnUse" x="0" y="0" width="48" height="48">
<path d="M48 23.8784C48 10.7725 37.2548 0.148071 24 0.148071C10.7452 0.148071 0 10.7725 0 23.8784C0 36.9843 10.7452 47.6087 24 47.6087C37.2548 47.6087 48 36.9843 48 23.8784Z" fill="white"/>
</mask>
<g mask="url(#mask1_364_3663)">
<path d="M48 23.8784C48 10.7725 37.2548 0.148071 24 0.148071C10.7452 0.148071 0 10.7725 0 23.8784C0 36.9843 10.7452 47.6087 24 47.6087C37.2548 47.6087 48 36.9843 48 23.8784Z" fill="white"/>
<mask id="mask2_364_3663" style="mask-type:luminance" maskUnits="userSpaceOnUse" x="0" y="0" width="48" height="48">
<path d="M0 0.148071H48V47.6087H0V0.148071Z" fill="white"/>
</mask>
<g mask="url(#mask2_364_3663)">
<path d="M0 0.148071H48V47.6087H0V0.148071Z" fill="url(#paint0_linear_364_3663)"/>
<mask id="mask3_364_3663" style="mask-type:luminance" maskUnits="userSpaceOnUse" x="0" y="0" width="48" height="48">
<path d="M0 0.148071H48V47.6087H0V0.148071Z" fill="white"/>
</mask>
<g mask="url(#mask3_364_3663)">
<mask id="mask4_364_3663" style="mask-type:luminance" maskUnits="userSpaceOnUse" x="0" y="0" width="48" height="49">
<path d="M0 24.1462C0 37.4011 10.7452 48.1462 24 48.1462C37.2548 48.1462 48 37.4011 48 24.1462C48 10.8914 37.2548 0.14624 24 0.14624C10.7452 0.14624 0 10.8914 0 24.1462Z" fill="white"/>
</mask>
<g mask="url(#mask4_364_3663)">
<path d="M112.138 175.411H-50.3623V-175.17H112.138V175.411Z" fill="url(#paint1_linear_364_3663)"/>
<mask id="mask5_364_3663" style="mask-type:luminance" maskUnits="userSpaceOnUse" x="-42" y="-95" width="132" height="237">
<path d="M-41.4424 -94.3245H89.3718V141.722H-41.4424V-94.3245Z" fill="white"/>
</mask>
<g mask="url(#mask5_364_3663)">
<g filter="url(#filter0_f_364_3663)">
<mask id="mask6_364_3663" style="mask-type:luminance" maskUnits="userSpaceOnUse" x="-42" y="-95" width="132" height="237">
<path d="M89.3718 141.72H-41.4424V-94.3264H89.3718V141.72Z" fill="white"/>
</mask>
<g mask="url(#mask6_364_3663)">
<g opacity="0.7">
<path d="M91.1178 254.512H-66.9053V-105.837H91.1178V254.512Z" fill="#FE64B0"/>
<path d="M0.665794 -125.435L124.754 -82.9404L33.0969 184.708L-90.9912 142.213L0.665794 -125.435Z" fill="url(#paint2_linear_364_3663)"/>
<path d="M0.665794 -125.435L124.754 -82.9404L33.0969 184.708L-90.9912 142.213L0.665794 -125.435Z" fill="url(#paint3_radial_364_3663)" fill-opacity="0.3"/>
<path d="M0.665794 -125.435L124.754 -82.9404L33.0969 184.708L-90.9912 142.213L0.665794 -125.435Z" fill="url(#paint4_radial_364_3663)" fill-opacity="0.4"/>
<path d="M0.665794 -125.435L124.754 -82.9404L33.0969 184.708L-90.9912 142.213L0.665794 -125.435Z" fill="url(#paint5_radial_364_3663)" fill-opacity="0.4"/>
<path d="M-41.4418 -94.3245H89.3718V86.0236H-41.4424L-41.4418 -94.3245Z" fill="url(#paint6_linear_364_3663)"/>
</g>
</g>
</g>
</g>
<g opacity="0.8" filter="url(#filter1_f_364_3663)">
<path fill-rule="evenodd" clip-rule="evenodd" d="M27.6113 -5.99809C24.2731 -9.19172 18.1537 -6.74155 13.7033 -4.50901C9.83603 -2.56935 7.67875 1.79754 4.92804 5.37956C2.84004 8.0992 1.32368 10.9923 -0.457775 13.935C-2.76068 17.7368 -5.83379 20.9621 -7.07743 25.2025C-8.96579 31.6421 -11.866 38.8127 -9.43052 44.5301C-6.92688 50.4052 -0.824864 54.561 5.43204 54.5692C11.6115 54.5779 16.3711 47.8907 22.0678 44.5737C27.0288 41.685 33.4842 41.3174 36.7537 36.3319C40.01 31.365 40.2511 24.6161 38.6349 19.311C37.1971 14.5928 30.6162 14.271 28.6749 9.81411C26.6137 5.08229 31.2031 -2.56173 27.6113 -5.99809Z" fill="#9C5CFF"/>
<path d="M27.6113 -5.99809C24.2731 -9.19172 18.1537 -6.74155 13.7033 -4.50901C9.83603 -2.56935 7.67875 1.79754 4.92804 5.37956C2.84004 8.0992 1.32368 10.9923 -0.457775 13.935C-2.76068 17.7368 -5.83379 20.9621 -7.07743 25.2025C-8.96579 31.6421 -11.866 38.8127 -9.43052 44.5301C-6.92688 50.4052 -0.824864 54.561 5.43204 54.5692C11.6115 54.5779 16.3711 47.8907 22.0678 44.5737C27.0288 41.685 33.4842 41.3174 36.7537 36.3319C40.01 31.365 40.2511 24.6161 38.6349 19.311C37.1971 14.5928 30.6162 14.271 28.6749 9.81411C26.6137 5.08229 31.2031 -2.56173 27.6113 -5.99809Z" fill="#9C5CFF" stroke="#B17EFF" stroke-width="5.663"/>
</g>
<g filter="url(#filter2_f_364_3663)">
<path fill-rule="evenodd" clip-rule="evenodd" d="M28.7391 -23.9152C25.217 -27.2853 18.7594 -24.6992 14.0631 -22.3438C9.98207 -20.297 7.705 -15.6882 4.80284 -11.9082C2.59945 -9.03889 0.999285 -5.98592 -0.881193 -2.88114C-3.31194 1.1319 -6.55429 4.53601 -7.86665 9.01014C-9.85937 15.8051 -12.9198 23.3719 -10.3498 29.4053C-7.70836 35.6056 -1.26799 39.9905 5.33412 39.9997C11.8556 40.009 16.8783 32.9521 22.8899 29.4513C28.1249 26.403 34.9371 26.015 38.3867 20.7541C41.8236 15.5132 42.078 8.39137 40.3725 2.79251C38.8552 -2.18641 31.9101 -2.52597 29.8615 -7.22867C27.6869 -12.222 32.53 -20.289 28.7391 -23.9152Z" fill="#FE64B0"/>
<path d="M28.7391 -23.9152C25.217 -27.2853 18.7594 -24.6992 14.0631 -22.3438C9.98207 -20.297 7.705 -15.6882 4.80284 -11.9082C2.59945 -9.03888 0.999284 -5.98592 -0.881193 -2.88114C-3.31194 1.1319 -6.55429 4.53601 -7.86665 9.01013C-9.85937 15.8051 -12.9198 23.3719 -10.3498 29.4053C-7.70836 35.6056 -1.26799 39.9905 5.33412 39.9997C11.8556 40.009 16.8783 32.9521 22.8899 29.4513C28.1249 26.403 34.9371 26.015 38.3867 20.7541C41.8236 15.5132 42.078 8.39137 40.3725 2.79251C38.8552 -2.18641 31.9101 -2.52597 29.8615 -7.22867C27.6869 -12.222 32.53 -20.289 28.7391 -23.9152Z" stroke="#7B2AF3" stroke-width="5.663"/>
</g>
<g filter="url(#filter3_f_364_3663)">
<path fill-rule="evenodd" clip-rule="evenodd" d="M16.7143 -21.9303C13.8196 -24.1841 9.59997 -23.5906 6.5907 -22.9034C3.97522 -22.3055 2.94541 -20.1035 1.37395 -18.4252C0.180498 -17.151 -0.565686 -15.7034 -1.50332 -14.2623C-2.71423 -12.4001 -4.57205 -10.9677 -4.93969 -8.71773C-5.49767 -5.30099 -6.71131 -1.60063 -4.15587 1.97101C-1.5295 5.64191 3.54213 8.80503 8.1856 9.6292C12.7712 10.4424 15.4276 7.26029 19.2201 6.11865C22.5229 5.12429 27.264 5.75974 29.0372 3.35102C30.804 0.951557 30.0992 -2.85681 28.2054 -6.08701C26.5216 -8.9599 21.5961 -10.0039 19.5725 -12.7944C17.4245 -15.7563 19.8289 -19.5052 16.7143 -21.9303Z" fill="white" fill-opacity="0.5"/>
</g>
</g>
<g filter="url(#filter4_ii_364_3663)">
<mask id="mask7_364_3663" style="mask-type:luminance" maskUnits="userSpaceOnUse" x="0" y="-1" width="48" height="49">
<path d="M48 23.9996C48 10.7448 37.2548 -0.000366211 24 -0.000366211C10.7452 -0.000366211 0 10.7448 0 23.9996C0 37.2545 10.7452 47.9996 24 47.9996C37.2548 47.9996 48 37.2545 48 23.9996Z" fill="white"/>
</mask>
<g mask="url(#mask7_364_3663)">
<path d="M48 23.9996C48 10.7448 37.2548 -0.000366211 24 -0.000366211C10.7452 -0.000366211 0 10.7448 0 23.9996C0 37.2545 10.7452 47.9996 24 47.9996C37.2548 47.9996 48 37.2545 48 23.9996Z" fill="url(#paint7_linear_364_3663)" fill-opacity="0.06"/>
<g filter="url(#filter5_di_364_3663)">
<path d="M19.4531 14.7124C19.8278 13.7622 21.1726 13.7622 21.5474 14.7124L22.7088 17.6571C22.8232 17.9472 23.0528 18.1768 23.3429 18.2912L26.2876 19.4526C27.2378 19.8274 27.2378 21.1722 26.2876 21.5469L23.3429 22.7083C23.0528 22.8227 22.8232 23.0523 22.7088 23.3424L21.5474 26.2871C21.1726 27.2373 19.8278 27.2373 19.4531 26.2871L18.2917 23.3424C18.1773 23.0523 17.9477 22.8227 17.6576 22.7083L14.7129 21.5469C13.7627 21.1722 13.7627 19.8274 14.7129 19.4526L17.6576 18.2912C17.9477 18.1768 18.1773 17.9472 18.2917 17.6571L19.4531 14.7124Z" fill="white"/>
<path d="M28.9248 25.3914C29.1307 24.8692 29.8698 24.8692 30.0757 25.3914L30.9764 27.6751C31.0393 27.8345 31.1655 27.9607 31.3249 28.0236L33.6086 28.9243C34.1308 29.1302 34.1308 29.8693 33.6086 30.0752L31.3249 30.9759C31.1655 31.0388 31.0393 31.165 30.9764 31.3244L30.0757 33.6081C29.8698 34.1303 29.1307 34.1303 28.9248 33.6081L28.0241 31.3244C27.9612 31.165 27.835 31.0388 27.6756 30.9759L25.3919 30.0752C24.8697 29.8693 24.8697 29.1302 25.3919 28.9243L27.6756 28.0236C27.835 27.9607 27.9612 27.8345 28.0241 27.6751L28.9248 25.3914Z" fill="white"/>
</g>
</g>
</g>
</g>
<g style="mix-blend-mode:overlay">
<path d="M0 0H48V48H0V0Z" fill="black" fill-opacity="0.2"/>
</g>
</g>
</g>
</g>
</g>
<defs>
<filter id="filter0_f_364_3663" x="-137.372" y="-190.256" width="322.674" height="427.906" filterUnits="userSpaceOnUse" color-interpolation-filters="sRGB">
<feFlood flood-opacity="0" result="BackgroundImageFix"/>
<feBlend mode="normal" in="SourceGraphic" in2="BackgroundImageFix" result="shape"/>
<feGaussianBlur stdDeviation="47.965" result="effect1_foregroundBlur_364_3663"/>
</filter>
<filter id="filter1_f_364_3663" x="-46.8469" y="-44.0125" width="122.941" height="135.067" filterUnits="userSpaceOnUse" color-interpolation-filters="sRGB">
<feFlood flood-opacity="0" result="BackgroundImageFix"/>
<feBlend mode="normal" in="SourceGraphic" in2="BackgroundImageFix" result="shape"/>
<feGaussianBlur stdDeviation="16.827" result="effect1_foregroundBlur_364_3663"/>
</filter>
<filter id="filter2_f_364_3663" x="-36.8156" y="-51.0121" width="103.699" height="116.495" filterUnits="userSpaceOnUse" color-interpolation-filters="sRGB">
<feFlood flood-opacity="0" result="BackgroundImageFix"/>
<feBlend mode="normal" in="SourceGraphic" in2="BackgroundImageFix" result="shape"/>
<feGaussianBlur stdDeviation="11.326" result="effect1_foregroundBlur_364_3663"/>
</filter>
<filter id="filter3_f_364_3663" x="-28.3727" y="-46.1764" width="81.0777" height="78.589" filterUnits="userSpaceOnUse" color-interpolation-filters="sRGB">
<feFlood flood-opacity="0" result="BackgroundImageFix"/>
<feBlend mode="normal" in="SourceGraphic" in2="BackgroundImageFix" result="shape"/>
<feGaussianBlur stdDeviation="11.326" result="effect1_foregroundBlur_364_3663"/>
</filter>
<filter id="filter4_ii_364_3663" x="0" y="-1.83337" width="48" height="52.277" filterUnits="userSpaceOnUse" color-interpolation-filters="sRGB">
<feFlood flood-opacity="0" result="BackgroundImageFix"/>
<feBlend mode="normal" in="SourceGraphic" in2="BackgroundImageFix" result="shape"/>
<feColorMatrix in="SourceAlpha" type="matrix" values="0 0 0 0 0 0 0 0 0 0 0 0 0 0 0 0 0 0 127 0" result="hardAlpha"/>
<feOffset dy="2.444"/>
<feGaussianBlur stdDeviation="4.889"/>
<feComposite in2="hardAlpha" operator="arithmetic" k2="-1" k3="1"/>
<feColorMatrix type="matrix" values="0 0 0 0 1 0 0 0 0 1 0 0 0 0 1 0 0 0 0.3 0"/>
<feBlend mode="normal" in2="shape" result="effect1_innerShadow_364_3663"/>
<feColorMatrix in="SourceAlpha" type="matrix" values="0 0 0 0 0 0 0 0 0 0 0 0 0 0 0 0 0 0 127 0" result="hardAlpha"/>
<feOffset dy="-1.833"/>
<feGaussianBlur stdDeviation="6.111"/>
<feComposite in2="hardAlpha" operator="arithmetic" k2="-1" k3="1"/>
<feColorMatrix type="matrix" values="0 0 0 0 1 0 0 0 0 0.808333 0 0 0 0 0.894388 0 0 0 0.7 0"/>
<feBlend mode="normal" in2="effect1_innerShadow_364_3663" result="effect2_innerShadow_364_3663"/>
</filter>
<filter id="filter5_di_364_3663" x="11.3122" y="11.9998" width="25.376" height="25.38" filterUnits="userSpaceOnUse" color-interpolation-filters="sRGB">
<feFlood flood-opacity="0" result="BackgroundImageFix"/>
<feColorMatrix in="SourceAlpha" type="matrix" values="0 0 0 0 0 0 0 0 0 0 0 0 0 0 0 0 0 0 127 0" result="hardAlpha"/>
<feOffset dy="0.688"/>
<feGaussianBlur stdDeviation="0.344"/>
<feComposite in2="hardAlpha" operator="out"/>
<feColorMatrix type="matrix" values="0 0 0 0 0.526458 0 0 0 0 0.352917 0 0 0 0 0.7 0 0 0 0.26 0"/>
<feBlend mode="normal" in2="BackgroundImageFix" result="effect1_dropShadow_364_3663"/>
<feBlend mode="normal" in="SourceGraphic" in2="effect1_dropShadow_364_3663" result="shape"/>
<feColorMatrix in="SourceAlpha" type="matrix" values="0 0 0 0 0 0 0 0 0 0 0 0 0 0 0 0 0 0 127 0" result="hardAlpha"/>
<feOffset dy="1.38"/>
<feGaussianBlur stdDeviation="0.875"/>
<feComposite in2="hardAlpha" operator="arithmetic" k2="-1" k3="1"/>
<feColorMatrix type="matrix" values="0 0 0 0 0.611765 0 0 0 0 0.360784 0 0 0 0 1 0 0 0 0.12 0"/>
<feBlend mode="normal" in2="shape" result="effect2_innerShadow_364_3663"/>
</filter>
<linearGradient id="paint0_linear_364_3663" x1="45.8591" y1="1.39715" x2="4.91607" y2="45.2408" gradientUnits="userSpaceOnUse">
<stop stop-color="#FFA2D2"/>
<stop offset="0.427" stop-color="#FE64B0"/>
<stop offset="0.597" stop-color="#B17EFF"/>
<stop offset="1" stop-color="#CFB0FF"/>
</linearGradient>
<linearGradient id="paint1_linear_364_3663" x1="30.8881" y1="63.8826" x2="30.8881" y2="-131.726" gradientUnits="userSpaceOnUse">
<stop stop-color="#9C5CFF"/>
<stop offset="0.29" stop-color="#CFB0FF"/>
<stop offset="1" stop-color="#9C5CFF"/>
</linearGradient>
<linearGradient id="paint2_linear_364_3663" x1="33.5512" y1="-19.042" x2="-17.5893" y2="130.293" gradientUnits="userSpaceOnUse">
<stop stop-opacity="0"/>
<stop offset="1" stop-color="#2CD0FF"/>
</linearGradient>
<radialGradient id="paint3_radial_364_3663" cx="0" cy="0" r="1" gradientTransform="matrix(-90.1842 -159.26 143.756 -83.2656 64.0248 231.677)" gradientUnits="userSpaceOnUse">
<stop stop-color="#3B3A40" stop-opacity="0"/>
<stop offset="0.557" stop-color="#FE64B0"/>
<stop offset="1" stop-color="#3B3A40" stop-opacity="0"/>
</radialGradient>
<radialGradient id="paint4_radial_364_3663" cx="0" cy="0" r="1" gradientTransform="matrix(-20.6765 -371.921 312.858 -17.7905 36.0895 405.848)" gradientUnits="userSpaceOnUse">
<stop stop-color="#FE64B0"/>
<stop offset="1" stop-color="#3B3A40" stop-opacity="0"/>
</radialGradient>
<radialGradient id="paint5_radial_364_3663" cx="0" cy="0" r="1" gradientTransform="matrix(210.426 -277.981 166.611 129.004 -195.011 311.906)" gradientUnits="userSpaceOnUse">
<stop stop-color="#41CAFC"/>
<stop offset="1" stop-opacity="0"/>
</radialGradient>
<linearGradient id="paint6_linear_364_3663" x1="23.9647" y1="-94.3245" x2="21.5173" y2="209.506" gradientUnits="userSpaceOnUse">
<stop stop-color="#C2D9FF"/>
<stop offset="0.128" stop-color="#4A93FF"/>
<stop offset="0.766" stop-opacity="0"/>
</linearGradient>
<linearGradient id="paint7_linear_364_3663" x1="24" y1="-0.000366211" x2="24" y2="47.9996" gradientUnits="userSpaceOnUse">
<stop stop-color="white" stop-opacity="0.43"/>
<stop offset="1" stop-color="white" stop-opacity="0.94"/>
</linearGradient>
<clipPath id="clip0_364_3663">
<rect width="48" height="48" fill="white"/>
</clipPath>
</defs>
</svg>
