<svg width="20" height="20" viewBox="0 0 20 20" fill="none" xmlns="http://www.w3.org/2000/svg">
<path fill-rule="evenodd" clip-rule="evenodd" d="M1.66667 10.0001C1.66667 6.07171 1.66667 4.10752 2.88706 2.88714C4.10744 1.66675 6.07163 1.66675 10 1.66675C13.9284 1.66675 15.8926 1.66675 17.1129 2.88714C18.3333 4.10752 18.3333 6.07171 18.3333 10.0001C18.3333 13.9285 18.3333 15.8926 17.1129 17.113C15.8926 18.3334 13.9284 18.3334 10 18.3334C6.07163 18.3334 4.10744 18.3334 2.88706 17.113C1.66667 15.8926 1.66667 13.9285 1.66667 10.0001ZM10 5.20841C10.3452 5.20841 10.625 5.48824 10.625 5.83342V10.1579L12.0581 8.72481C12.3021 8.48073 12.6979 8.48073 12.9419 8.72481C13.186 8.96888 13.186 9.36461 12.9419 9.60869L10.4419 12.1087C10.3247 12.2259 10.1658 12.2917 10 12.2917C9.83424 12.2917 9.67527 12.2259 9.55806 12.1087L7.05806 9.60869C6.81398 9.36461 6.81398 8.96888 7.05806 8.72481C7.30214 8.48073 7.69787 8.48073 7.94194 8.72481L9.375 10.1579V5.83342C9.375 5.48824 9.65482 5.20841 10 5.20841ZM6.66667 13.5417C6.32149 13.5417 6.04167 13.8216 6.04167 14.1667C6.04167 14.5119 6.32149 14.7917 6.66667 14.7917H13.3333C13.6785 14.7917 13.9583 14.5119 13.9583 14.1667C13.9583 13.8216 13.6785 13.5417 13.3333 13.5417H6.66667Z" fill="#6D6B76"/>
</svg>
