<svg width="32" height="32" viewBox="0 0 32 32" fill="none" xmlns="http://www.w3.org/2000/svg">
<path d="M12.6667 26.6667V29.3334C12.6667 29.8857 13.1144 30.3334 13.6667 30.3334C14.219 30.3334 14.6667 29.8857 14.6667 29.3334V26.6667H12.6667Z" fill="#9C5CFF"/>
<path d="M20 26.6667H18V29.3334C18 29.8857 18.4477 30.3334 19 30.3334C19.5523 30.3334 20 29.8857 20 29.3334V26.6667Z" fill="#9C5CFF"/>
<path fill-rule="evenodd" clip-rule="evenodd" d="M23.1795 8.77969L23.5209 8.71134C24.0752 8.60037 24.6484 8.65335 25.1751 8.86426C26.0956 9.23279 27.1021 9.30163 28.0611 9.06166L28.143 9.04115C28.8413 8.86642 29.3333 8.21741 29.3333 7.47122V4.63053C29.3333 3.64678 28.4478 2.92201 27.5272 3.15237C26.9986 3.28465 26.4438 3.2467 25.9365 3.04356L25.839 3.00454C24.9896 2.66446 24.0654 2.57902 23.1716 2.75796L22.5734 2.87773C21.8535 3.02184 21.3333 3.67637 21.3333 4.43802V13.7077C21.3333 14.2374 21.7466 14.6667 22.2564 14.6667C22.7662 14.6667 23.1795 14.2374 23.1795 13.7077V8.77969Z" fill="#9C5CFF"/>
<path d="M19.3333 8.00008V13.7077C19.3333 15.2692 20.5707 16.6668 22.2564 16.6668C23.9422 16.6668 25.1795 15.2692 25.1795 13.7077V10.9707C26.194 11.2445 27.2595 11.2766 28.2933 11.06C28.9496 12.1824 29.3333 13.5389 29.3333 15.0001V23.2338C29.3333 25.1298 28.0159 26.6667 26.3908 26.6667H16.6667V15.0001C16.6667 12.2936 15.5572 9.70146 13.7101 8.00008H19.3333Z" fill="#9C5CFF"/>
<path fill-rule="evenodd" clip-rule="evenodd" d="M2.66667 15.0001C2.66667 11.1341 5.35296 8.00008 8.66667 8.00008C11.9804 8.00008 14.6667 11.1341 14.6667 15.0001V26.6667H5.64342C3.99941 26.6667 2.66667 25.1119 2.66667 23.1939V15.0001ZM5.66667 21.3334C5.66667 20.7811 6.11439 20.3334 6.66667 20.3334H10.6667C11.219 20.3334 11.6667 20.7811 11.6667 21.3334C11.6667 21.8857 11.219 22.3334 10.6667 22.3334H6.66667C6.11439 22.3334 5.66667 21.8857 5.66667 21.3334Z" fill="#9C5CFF"/>
</svg>
