<svg width="40" height="40" viewBox="0 0 40 40" fill="none" xmlns="http://www.w3.org/2000/svg">
<path d="M0 8C0 3.58172 3.58172 0 8 0H32C36.4183 0 40 3.58172 40 8V32C40 36.4183 36.4183 40 32 40H8C3.58172 40 0 36.4183 0 32V8Z" fill="white"/>
<path fill-rule="evenodd" clip-rule="evenodd" d="M25 10C27.7614 10 30 12.2386 30 15C30 17.7614 27.7614 20 25 20C24.9079 20 24.8165 19.9961 24.7256 19.9912C24.6919 19.9894 24.6585 19.9869 24.625 19.9844C24.5645 19.9799 24.5042 19.9754 24.4443 19.9688C24.4084 19.9648 24.3726 19.9598 24.3369 19.9551C24.2803 19.9476 24.224 19.9391 24.168 19.9297C24.1356 19.9243 24.1034 19.9182 24.0713 19.9121C24.0116 19.9009 23.9525 19.8883 23.8936 19.875C23.8639 19.8683 23.8342 19.8617 23.8047 19.8545C23.74 19.8386 23.676 19.8211 23.6123 19.8027C23.5899 19.7963 23.5672 19.7909 23.5449 19.7842C23.4666 19.7604 23.3892 19.7345 23.3125 19.707C23.3041 19.704 23.2955 19.7013 23.2871 19.6982C23.2017 19.6671 23.1173 19.6342 23.0342 19.5986C23.0184 19.5919 23.003 19.5841 22.9873 19.5771C22.9268 19.5505 22.8668 19.5231 22.8076 19.4941C22.7964 19.4887 22.7846 19.4841 22.7734 19.4785C22.5953 19.3898 22.3914 19.3597 22.1992 19.4111L21.0869 19.709C20.6037 19.8383 20.1617 19.3963 20.291 18.9131L20.5889 17.8008C20.6403 17.6086 20.6102 17.4047 20.5215 17.2266C20.5157 17.215 20.5105 17.203 20.5049 17.1914C20.3896 16.9554 20.2922 16.7091 20.2148 16.4541C20.2039 16.4179 20.1947 16.3812 20.1846 16.3447C20.1707 16.2948 20.1569 16.2448 20.1445 16.1943C20.1373 16.1648 20.1307 16.1352 20.124 16.1055C20.1107 16.0466 20.0981 15.9874 20.0869 15.9277C20.0809 15.8956 20.0748 15.8634 20.0693 15.8311C20.06 15.775 20.0514 15.7187 20.0439 15.6621C20.0392 15.6264 20.0342 15.5906 20.0303 15.5547C20.0237 15.4948 20.0191 15.4345 20.0146 15.374C20.0122 15.3406 20.0096 15.3071 20.0078 15.2734C20.0029 15.1829 20 15.0918 20 15C20 12.2386 22.2386 10 25 10ZM25 16.5C23.4549 16.5 22.7047 16.9156 22.3408 17.582C22.1656 17.9034 22.2949 18.2985 22.5967 18.5059C23.2802 18.9753 24.1081 19.25 25 19.25C25.8919 19.25 26.7198 18.9754 27.4033 18.5059C27.7051 18.2986 27.8344 17.9035 27.6592 17.582C27.2953 16.9155 26.5451 16.5 25 16.5ZM25 12C24.1716 12 23.5 12.6716 23.5 13.5C23.5 14.3284 24.1716 15 25 15C25.8284 15 26.5 14.3284 26.5 13.5C26.5 12.6716 25.8284 12 25 12Z" fill="#6D6B76"/>
<path d="M16.0376 15.3162L16.6866 16.4791C17.2723 17.5286 17.0372 18.9053 16.1147 19.8278C16.1147 19.8278 14.9958 20.9467 17.0245 22.9755C19.0532 25.0042 20.1722 23.8853 20.1722 23.8853C21.0947 22.9628 22.4714 22.7277 23.5209 23.3134L24.6838 23.9624C26.2686 24.8468 26.4557 27.0692 25.0628 28.4622C24.2258 29.2992 23.2004 29.9505 22.0669 29.9934C20.1588 30.0658 16.9183 29.5829 13.6677 26.3323C10.4171 23.0817 9.93421 19.8412 10.0066 17.9331C10.0495 16.7996 10.7008 15.7742 11.5378 14.9372C12.9308 13.5443 15.1532 13.7314 16.0376 15.3162Z" fill="#6D6B76"/>
</svg>
