<svg width="24" height="24" viewBox="0 0 24 24" fill="none" xmlns="http://www.w3.org/2000/svg">
<path d="M14.5 4.5C14.5 5.88071 13.3807 7 12 7C10.6193 7 9.5 5.88071 9.5 4.5C9.5 3.11929 10.6193 2 12 2C13.3807 2 14.5 3.11929 14.5 4.5Z" fill="#6D6B76" stroke="#6D6B76" stroke-width="2"/>
<path d="M16.8495 14.1504C16.8495 12.2662 15.5033 10.6724 13.6864 10.3662L12.7958 10.2168L12.7939 10.2159C12.6449 10.1905 12.348 10.1709 11.9999 10.1709C11.6522 10.1709 11.3554 10.1906 11.206 10.2159L11.204 10.2168L10.3134 10.3662C8.49652 10.6724 7.15031 12.2662 7.15031 14.1504C7.15025 15.363 6.55005 16.4999 5.54387 17.1778L5.44231 17.2461C5.15797 17.4376 4.84916 17.5908 4.52434 17.7002L3.36711 18.0899C2.76525 18.2926 2.11286 17.969 1.91008 17.3672C1.70736 16.7654 2.0309 16.113 2.63274 15.9102L3.79094 15.5205C3.92034 15.4769 4.04407 15.4157 4.15813 15.3389L4.25871 15.2705C4.62495 15.0238 4.84947 14.6046 4.84953 14.1504C4.84953 11.1606 6.9905 8.59409 9.93156 8.09866L10.8212 7.94925C11.1583 7.89211 11.6047 7.87017 11.9999 7.87015C12.3949 7.87013 12.8413 7.89102 13.1786 7.94827L13.1777 7.94925L14.0683 8.09866C17.0093 8.59409 19.1503 11.1606 19.1503 14.1504C19.1504 14.6046 19.3749 15.0238 19.7411 15.2705L19.8417 15.3389C19.9558 15.4157 20.0795 15.4769 20.2089 15.5205L21.3671 15.9102C21.9689 16.113 22.2925 16.7654 22.0898 17.3672C21.887 17.969 21.2346 18.2926 20.6327 18.0899L19.4755 17.7002C19.1507 17.5908 18.8419 17.4376 18.5575 17.2461L18.456 17.1778C17.4498 16.4999 16.8496 15.363 16.8495 14.1504Z" fill="#6D6B76"/>
<path d="M12.3096 18.0801C12.8176 17.6991 13.5388 17.8017 13.9199 18.3096C14.3009 18.8176 14.1983 19.5388 13.6904 19.9199L13.3691 20.1602C13.7738 20.3116 13.9733 20.3849 14.1729 20.4473C14.8695 20.665 15.5906 20.7952 16.3193 20.8359C16.5587 20.8493 16.8035 20.8496 17.3779 20.8496H18.3154C18.6106 20.8496 18.8496 20.6106 18.8496 20.3154C18.8496 20.0702 18.6831 19.8565 18.4453 19.7969L16.9717 19.4287C16.4785 19.3054 16.0146 19.1996 15.6006 18.9609C15.4858 18.8947 15.3751 18.8213 15.2695 18.7412C14.8888 18.4523 14.6116 18.0659 14.3066 17.6592L13.5801 16.6904C13.1991 16.1824 13.3017 15.4612 13.8096 15.0801C14.3176 14.6991 15.0388 14.8017 15.4199 15.3096L16.1465 16.2793C16.5283 16.7883 16.595 16.8598 16.6602 16.9092C16.6886 16.9308 16.7181 16.9509 16.749 16.9688C16.8198 17.0096 16.9119 17.0429 17.5293 17.1973L19.0029 17.5654C20.2648 17.8809 21.1504 19.0147 21.1504 20.3154C21.1503 21.8809 19.8809 23.1503 18.3154 23.1504H17.3779C16.8279 23.1504 16.5095 23.1506 16.1914 23.1328C15.2733 23.0815 14.3649 22.9169 13.4873 22.6426C13.1833 22.5475 12.8851 22.4353 12.3701 22.2422L11.1465 21.7832C9.71677 22.673 8.06251 23.1504 6.36816 23.1504H5.68457C4.1191 23.1503 2.84966 21.8809 2.84961 20.3154C2.84961 19.0147 3.73523 17.8809 4.99707 17.5654L6.79102 17.1172C7.05458 17.0513 7.09628 17.0388 7.12891 17.0264C7.24665 16.9814 7.35332 16.9104 7.44043 16.8193C7.46458 16.7941 7.49197 16.7607 7.65527 16.543L8.58008 15.3096C8.96122 14.8017 9.68243 14.6991 10.1904 15.0801C10.6983 15.4612 10.8009 16.1824 10.4199 16.6904L9.49512 17.9229C9.36391 18.0978 9.24385 18.2614 9.10254 18.4092C8.77971 18.7467 8.38555 19.0083 7.94922 19.1748C7.75814 19.2477 7.56085 19.2956 7.34863 19.3486L5.55469 19.7969C5.31685 19.8565 5.15039 20.0702 5.15039 20.3154C5.15044 20.6106 5.38936 20.8496 5.68457 20.8496H6.36816C7.82748 20.8496 9.24757 20.3765 10.415 19.501L12.3096 18.0801Z" fill="#6D6B76"/>
</svg>
