<svg width="14" height="14" viewBox="0 0 14 14" fill="none" xmlns="http://www.w3.org/2000/svg">
<path d="M6.16651 0C3.3543 0.00274198 1.89925 0.0530523 0.976153 0.976153C0.0530523 1.89925 0.00274198 3.3543 0 6.16651H3.27568C3.0417 5.87424 2.86687 5.52951 2.77154 5.14818C2.4127 3.71284 3.71284 2.4127 5.14819 2.77154C5.52951 2.86687 5.87424 3.0417 6.16651 3.27568V0Z" fill="#681AD6"/>
<path d="M0 7.16651C0.00274199 9.97872 0.0530523 11.4338 0.976153 12.3569C1.89925 13.28 3.3543 13.3303 6.16651 13.333V8.08227C5.64675 9.12043 4.5732 9.83318 3.33318 9.83318C3.05703 9.83318 2.83318 9.60932 2.83318 9.33318C2.83318 9.05703 3.05703 8.83318 3.33318 8.83318C4.3577 8.83318 5.21614 8.12208 5.44187 7.16651H0Z" fill="#681AD6"/>
<path d="M7.16651 13.333C9.97872 13.3303 11.4338 13.28 12.3569 12.3569C13.28 11.4338 13.3303 9.97872 13.333 7.16651H7.89115C8.11687 8.12208 8.97532 8.83318 9.99984 8.83318C10.276 8.83318 10.4998 9.05703 10.4998 9.33318C10.4998 9.60932 10.276 9.83318 9.99984 9.83318C8.75982 9.83318 7.68627 9.12043 7.16651 8.08227V13.333Z" fill="#681AD6"/>
<path d="M13.333 6.16651C13.3303 3.3543 13.28 1.89925 12.3569 0.976153C11.4338 0.0530523 9.97872 0.00274199 7.16651 0V3.27568C7.45877 3.0417 7.80351 2.86687 8.18483 2.77154C9.62017 2.4127 10.9203 3.71284 10.5615 5.14818C10.4661 5.52951 10.2913 5.87424 10.0573 6.16651H13.333Z" fill="#681AD6"/>
<path d="M4.90565 3.74168C5.64667 3.92694 6.16651 4.59274 6.16651 5.35656V6.16651H5.35656C4.59274 6.16651 3.92694 5.64667 3.74168 4.90565C3.56594 4.20269 4.20269 3.56594 4.90565 3.74168Z" fill="#681AD6"/>
<path d="M7.16651 5.35656V6.16651H7.97646C8.74028 6.16651 9.40608 5.64667 9.59134 4.90565C9.76708 4.20269 9.13033 3.56594 8.42737 3.74168C7.68635 3.92694 7.16651 4.59274 7.16651 5.35656Z" fill="#681AD6"/>
</svg>
