<svg width="24" height="24" viewBox="0 0 24 24" fill="none" xmlns="http://www.w3.org/2000/svg">
<path d="M21.2501 14C21.2501 12.0932 21.2486 10.7386 21.1105 9.71094C20.9752 8.70485 20.7212 8.12536 20.298 7.70215C19.8747 7.27894 19.2953 7.02491 18.2892 6.88965C17.2615 6.7515 15.9069 6.75 14.0001 6.75H10.0001C8.09335 6.75 6.73869 6.7515 5.71104 6.88965C4.70495 7.02491 4.12546 7.27894 3.70225 7.70215C3.27904 8.12536 3.02502 8.70485 2.88975 9.71094C2.7516 10.7386 2.7501 12.0932 2.7501 14C2.7501 15.9068 2.7516 17.2614 2.88975 18.2891C3.02502 19.2952 3.27904 19.8746 3.70225 20.2979C4.12546 20.7211 4.70495 20.9751 5.71104 21.1104C6.73869 21.2485 8.09335 21.25 10.0001 21.25H14.0001C15.9069 21.25 17.2615 21.2485 18.2892 21.1104C19.2953 20.9751 19.8747 20.7211 20.298 20.2979C20.7212 19.8746 20.9752 19.2952 21.1105 18.2891C21.2486 17.2614 21.2501 15.9068 21.2501 14ZM22.7501 14C22.7501 15.8644 22.7515 17.3384 22.5968 18.4893C22.4391 19.6616 22.1068 20.6101 21.3585 21.3584C20.6102 22.1067 19.6617 22.439 18.4894 22.5967C17.3385 22.7514 15.8645 22.75 14.0001 22.75H10.0001C8.13569 22.75 6.66169 22.7514 5.51085 22.5967C4.33854 22.439 3.39001 22.1067 2.64171 21.3584C1.8934 20.6101 1.56107 19.6616 1.40342 18.4893C1.2487 17.3384 1.2501 15.8644 1.2501 14C1.2501 12.1356 1.2487 10.6616 1.40342 9.51074C1.56107 8.33844 1.8934 7.38991 2.64171 6.6416C3.39001 5.89329 4.33854 5.56096 5.51085 5.40332C6.66169 5.24859 8.13569 5.25 10.0001 5.25H14.0001C15.8645 5.25 17.3385 5.24859 18.4894 5.40332C19.6617 5.56096 20.6102 5.89329 21.3585 6.6416C22.1068 7.38991 22.4391 8.33844 22.5968 9.51074C22.7515 10.6616 22.7501 12.1356 22.7501 14Z" fill="#6D6B76"/>
<path d="M13.5187 2.25C15.0112 2.25 16.2059 2.24866 17.1417 2.37402C18.0989 2.50226 18.8974 2.77551 19.5304 3.40625C20.1904 4.06413 20.4603 4.90139 20.5821 5.91016L20.588 5.95508V7H19.088V6.05469C18.9838 5.22443 18.7862 4.78305 18.4708 4.46875C18.1632 4.16228 17.7342 3.96642 16.9425 3.86035C16.1294 3.75145 15.0534 3.75 13.5187 3.75H10.3077C8.77307 3.75 7.69692 3.75147 6.88389 3.86035C6.09212 3.96643 5.66219 4.16223 5.3546 4.46875C5.04059 4.78181 4.8429 5.22115 4.73838 6.04492L4.7501 6.99121L3.25108 7.00879L3.23838 6.00879L3.23741 5.95898L3.24424 5.91016C3.36607 4.90134 3.63592 4.06414 4.296 3.40625C4.92895 2.77551 5.72752 2.50226 6.68467 2.37402C7.62047 2.24869 8.81524 2.25 10.3077 2.25H13.5187Z" fill="#6D6B76"/>
<path d="M18.2501 10.5C18.2501 10.0858 17.9143 9.75 17.5001 9.75C17.0859 9.75 16.7501 10.0858 16.7501 10.5C16.7501 10.9142 17.0859 11.25 17.5001 11.25C17.9143 11.25 18.2501 10.9142 18.2501 10.5ZM19.7501 10.5C19.7501 11.7426 18.7427 12.75 17.5001 12.75C16.2575 12.75 15.2501 11.7426 15.2501 10.5C15.2501 9.25736 16.2575 8.25 17.5001 8.25C18.7427 8.25 19.7501 9.25736 19.7501 10.5Z" fill="#6D6B76"/>
<path d="M3.25792 12.4033C4.46634 11.346 6.28755 11.4066 7.42296 12.542L11.713 16.8311C12.1425 17.2606 12.8186 17.32 13.3155 16.9707L13.6134 16.7607C15.0436 15.7556 16.979 15.8717 18.2784 17.041L21.5021 19.9424C21.8099 20.2195 21.8348 20.6941 21.5577 21.002C21.2806 21.3098 20.806 21.3347 20.4981 21.0576L17.2745 18.1563C16.4949 17.4548 15.3338 17.3852 14.4757 17.9883L14.1778 18.1973C13.0847 18.9655 11.5974 18.8371 10.6524 17.8926L6.36241 13.6025C5.7854 13.0255 4.85934 12.9949 4.24522 13.5322L2.49424 15.0645C2.18254 15.3372 1.70842 15.3058 1.43565 14.9941C1.16291 14.6824 1.1943 14.2083 1.50596 13.9355L3.25792 12.4033Z" fill="#6D6B76"/>
</svg>
