<svg width="42" height="32" viewBox="0 0 42 32" fill="none" xmlns="http://www.w3.org/2000/svg">
<path d="M23.3264 3.20604C27.5999 -1.07322 34.5285 -1.06734 38.7982 3.21564C43.068 7.49864 43.0678 14.4427 38.7944 18.722L28.7362 28.794C26.602 30.9311 23.8057 31.9994 21.0091 32C21.006 32 21.0029 32 20.9998 32C20.9968 32 20.9938 32 20.9908 32C18.1942 31.9993 15.3978 30.9311 13.2637 28.794L3.2055 18.722C-1.06786 14.4427 -1.06791 7.49861 3.20182 3.21564C7.47157 -1.06732 14.4002 -1.07323 18.6736 3.20604L21 5.53562L23.3264 3.20604Z" fill="#FF4646"/>
<ellipse cx="10.9382" cy="15.8769" rx="3.206" ry="3.21317" fill="#ED1515"/>
<ellipse cx="30.7399" cy="16.0659" rx="3.01741" ry="3.02416" fill="#ED1515"/>
<path d="M18.0485 14.1769C18.3548 14.1154 18.653 14.3145 18.7145 14.6215C18.8154 15.1262 19.0846 15.5814 19.4778 15.9125C19.8711 16.2435 20.365 16.4306 20.8784 16.4431C21.3919 16.4556 21.8943 16.2927 22.3032 15.9811C22.712 15.6696 23.0028 15.2279 23.1281 14.7288C23.2042 14.4251 23.5117 14.2408 23.8146 14.317C24.1176 14.3933 24.3017 14.7016 24.2255 15.0053C24.0377 15.7541 23.6013 16.4166 22.9881 16.8839C22.3749 17.3513 21.6212 17.5957 20.851 17.577C20.0809 17.5583 19.3399 17.2775 18.75 16.7809C18.1601 16.2843 17.7562 15.6013 17.6048 14.8443C17.5435 14.5373 17.7422 14.2384 18.0485 14.1769Z" fill="black"/>
<path d="M13.1069 12.0966C13.3152 12.0966 13.4841 12.2659 13.4841 12.4747C13.4841 13.1532 14.0329 13.7032 14.7099 13.7032C15.3869 13.7032 15.9357 13.1532 15.9357 12.4747C15.9357 12.2659 16.1046 12.0966 16.3129 12.0966H16.5015C16.7098 12.0966 16.8787 12.2659 16.8787 12.4747C16.8787 13.6751 15.9077 14.6483 14.7099 14.6483C13.5121 14.6483 12.5411 13.6751 12.5411 12.4747C12.5411 12.2659 12.71 12.0966 12.9183 12.0966H13.1069Z" fill="black"/>
<path d="M25.5537 12.0966C25.762 12.0966 25.9309 12.2659 25.9309 12.4747C25.9309 13.1532 26.4797 13.7032 27.1567 13.7032C27.8337 13.7032 28.3826 13.1532 28.3826 12.4747C28.3826 12.2659 28.5514 12.0966 28.7597 12.0966H28.9483C29.1566 12.0966 29.3255 12.2659 29.3255 12.4747C29.3255 13.6751 28.3545 14.6483 27.1567 14.6483C25.959 14.6483 24.988 13.6751 24.988 12.4747C24.988 12.2659 25.1568 12.0966 25.3651 12.0966H25.5537Z" fill="black"/>
</svg>
