<svg width="48" height="48" viewBox="0 0 48 48" fill="none" xmlns="http://www.w3.org/2000/svg">
<rect width="48" height="48" rx="12" fill="#EFFAFF"/>
<path d="M32.0991 24.6526L25.1694 31.1028L21.3755 27.3079C20.9904 26.9229 20.3651 26.923 19.98 27.3079C19.5951 27.6929 19.5953 28.3173 19.98 28.7024L23.7749 32.4973L23.0171 33.2542L20.853 31.0891C20.468 30.7045 19.8435 30.7046 19.4585 31.0891C19.0734 31.4743 19.0734 32.0995 19.4585 32.4846L21.5308 34.5579C19.1712 36.1354 16.0384 36.0684 13.7437 34.3586L11.9458 36.1594C11.5607 36.5444 10.9354 36.5444 10.5503 36.1594C10.1652 35.7743 10.1653 35.1491 10.5503 34.7639L12.3491 32.9641C10.3767 30.3162 10.5918 26.5526 12.9956 24.1487L22.4722 15.0256L32.0991 24.6526ZM31.4146 10.2336C31.8017 9.84697 32.4299 9.84676 32.8169 10.2336L36.6616 14.0803C37.0486 14.4674 37.0485 15.0945 36.6616 15.4817C36.2744 15.8687 35.6464 15.8688 35.2593 15.4817L34.0376 14.26L31.855 16.4436L32.9702 17.5579C33.9665 18.5541 34.4642 19.0529 34.6704 19.6194C34.889 20.2201 34.889 20.879 34.6704 21.4797C34.4642 22.046 33.9661 22.5444 32.9702 23.5403L32.8159 23.6946L23.2026 14.0803L23.356 13.926C24.3519 12.9301 24.8502 12.4321 25.4165 12.2258C26.0172 12.0072 26.6762 12.0072 27.2769 12.2258C27.8432 12.432 28.3414 12.93 29.3374 13.926L30.4526 15.0413L32.6362 12.8586L31.4146 11.636C31.0275 11.2488 31.0274 10.6208 31.4146 10.2336Z" fill="#008BFF"/>
<path d="M36.0303 30.0249C36.224 30.5122 36.9189 30.5122 37.1126 30.0249L37.3014 29.5497C37.3606 29.4009 37.4792 29.2832 37.6291 29.2245L38.1079 29.0371C38.599 28.8449 38.599 28.1552 38.1079 27.963L37.6291 27.7756C37.4792 27.7169 37.3606 27.5991 37.3014 27.4503L37.1126 26.9752C36.9189 26.4878 36.224 26.4878 36.0303 26.9752L35.8415 27.4503C35.7823 27.5991 35.6637 27.7169 35.5138 27.7756L35.035 27.963C34.5439 28.1552 34.5439 28.8449 35.035 29.0371L35.5138 29.2245C35.6637 29.2832 35.7823 29.4009 35.8415 29.5497L36.0303 30.0249Z" fill="#008BFF"/>
<path opacity="0.5" d="M30.657 38.8315C30.8753 39.3807 31.6584 39.3807 31.8766 38.8315L32.4602 37.3631C32.5268 37.1954 32.6605 37.0627 32.8295 36.9966L34.3091 36.4174C34.8625 36.2008 34.8625 35.4236 34.3091 35.207L32.8295 34.6279C32.6605 34.5618 32.5268 34.429 32.4602 34.2614L31.8766 32.7929C31.6584 32.2437 30.8753 32.2437 30.657 32.7929L30.0735 34.2614C30.0068 34.429 29.8731 34.5618 29.7042 34.6279L28.2245 35.207C27.6712 35.4236 27.6712 36.2008 28.2245 36.4174L29.7042 36.9966C29.8731 37.0627 30.0068 37.1954 30.0735 37.3631L30.657 38.8315Z" fill="#008BFF"/>
<path opacity="0.5" d="M11.272 16.777C11.4644 17.2648 12.1547 17.2648 12.347 16.777L12.8615 15.4727C12.9202 15.3238 13.0381 15.2059 13.187 15.1471L14.4913 14.6327C14.9791 14.4404 14.9791 13.7501 14.4913 13.5577L13.187 13.0433C13.0381 12.9845 12.9202 12.8667 12.8615 12.7177L12.347 11.4134C12.1547 10.9256 11.4644 10.9256 11.272 11.4134L10.7576 12.7177C10.6988 12.8667 10.581 12.9845 10.4321 13.0433L9.12772 13.5577C8.63996 13.7501 8.63996 14.4404 9.12772 14.6327L10.4321 15.1471C10.581 15.2059 10.6988 15.3238 10.7576 15.4727L11.272 16.777Z" fill="#008BFF"/>
</svg>
