<svg width="20" height="20" viewBox="0 0 20 20" fill="none" xmlns="http://www.w3.org/2000/svg">
<path fill-rule="evenodd" clip-rule="evenodd" d="M2.64306 1.80956C1.66675 2.78587 1.66675 4.35722 1.66675 7.49992V10.8333C1.66675 13.9759 1.66675 15.5473 2.64306 16.5236C3.61937 17.4999 5.19072 17.4999 8.33342 17.4999H11.6667C14.8094 17.4999 16.3808 17.4999 17.3571 16.5236C18.3334 15.5473 18.3334 13.9759 18.3334 10.8333V7.49992C18.3334 4.35722 18.3334 2.78587 17.3571 1.80956C16.3808 0.833252 14.8094 0.833252 11.6667 0.833252H8.33342C5.19072 0.833252 3.61937 0.833252 2.64306 1.80956ZM10.423 13.1018L10.4167 13.1051V6.06889L10.435 6.0586C10.8961 5.79181 11.6405 5.39455 12.2501 5.22558C12.7004 5.10074 13.2839 5.04322 13.7974 5.018C14.4683 4.98505 15.0001 5.53778 15.0001 6.20954V10.7589C15.0001 11.453 14.434 12.0125 13.7418 12.0641C13.32 12.0955 12.8647 12.1485 12.5001 12.2376C11.803 12.4079 10.9313 12.834 10.423 13.1018ZM5.00008 6.24699V10.7589C5.00008 11.453 5.5662 12.0125 6.25834 12.0641C6.68015 12.0955 7.13548 12.1485 7.50008 12.2376C8.19721 12.4079 9.06889 12.834 9.57721 13.1018L9.58342 13.1051V6.09237C9.57351 6.08763 9.56367 6.08269 9.55391 6.07757C9.04257 5.80917 8.18667 5.39333 7.50008 5.22558C7.13001 5.13516 6.66647 5.08195 6.23939 5.05068C5.55457 5.00053 5.00008 5.56034 5.00008 6.24699Z" fill="#9C5CFF"/>
</svg>
