<svg width="24" height="24" viewBox="0 0 24 24" fill="none" xmlns="http://www.w3.org/2000/svg">
<g clip-path="url(#clip0_4721_566)">
<path d="M6.97183 0.5C3.1214 0.5 0 3.82815 0 7.93363C0 10.6057 1.32272 12.9478 3.30766 14.258C3.4647 14.4549 3.63491 14.6426 3.81767 14.8197L1.7687 22.4936C1.63308 23.0016 2.0159 23.5 2.54163 23.5H12.0242C12.632 23.5 13.0178 22.849 12.7259 22.3158L9.57059 16.5524C11.0542 16.3173 12.3958 15.6269 13.3742 14.648C13.4487 14.5819 13.4407 14.4634 13.3606 14.4043C12.8029 13.9925 12.5623 13.6077 12.2535 12.8186L13.8914 13.3674C14.0209 13.4109 14.1549 13.3144 14.1549 13.1778V11.9844L14.3798 11.9238C14.7456 11.8253 15 11.4919 15 11.1112C15 10.6466 14.6253 10.2699 14.1632 10.2699H13.8631C13.7284 10.2699 13.6322 10.1393 13.6676 10.0093C13.847 9.35052 13.9437 8.65412 13.9437 7.93363C13.9437 3.82815 10.8223 0.5 6.97183 0.5Z" fill="#6D6B76"/>
<path d="M16.4847 17.7406L16.7347 18.5667H16.2103L16.4594 17.7406C16.4611 17.7352 16.4664 17.7319 16.472 17.7318C16.4777 17.7318 16.4829 17.7352 16.4847 17.7406Z" fill="#6D6B76"/>
<path d="M19.0394 18.4828C19.1093 18.4828 19.1688 18.4937 19.2181 18.515C19.2683 18.5364 19.3072 18.5677 19.3344 18.6087C19.3615 18.6499 19.3754 18.7008 19.3754 18.7601C19.3753 18.8448 19.346 18.9089 19.2885 18.9525C19.2308 18.9951 19.1447 19.0169 19.0297 19.0169H18.975C18.8276 19.0169 18.7084 18.8968 18.7084 18.7494C18.7086 18.6022 18.8277 18.4828 18.975 18.4828H19.0394Z" fill="#6D6B76"/>
<path d="M18.9994 17.5736C19.085 17.5736 19.1563 17.5942 19.2123 17.6361C19.2683 17.6773 19.2963 17.7375 19.2963 17.8158C19.2962 17.8674 19.2834 17.9115 19.2572 17.9476C19.2317 17.983 19.1949 18.0107 19.1488 18.0296C19.1028 18.0484 19.0496 18.058 18.9896 18.058H18.9506C18.8169 18.058 18.7085 17.9495 18.7084 17.8158C18.7084 17.682 18.8168 17.5736 18.9506 17.5736H18.9994Z" fill="#6D6B76"/>
<path fill-rule="evenodd" clip-rule="evenodd" d="M18.5804 13.5179C21.332 13.2863 23.7509 15.3289 23.9828 18.0804C24.2144 20.8321 22.171 23.2511 19.4193 23.4828C16.6678 23.7142 14.2496 21.6708 14.0179 18.9193C13.9532 18.15 14.066 17.4065 14.3226 16.7298C14.4108 16.4973 14.4272 16.2412 14.3431 16.0072L14.0746 15.2601C13.8631 14.6719 14.3675 14.0755 14.9828 14.1859L15.7631 14.3255C16.0079 14.3695 16.2584 14.3108 16.473 14.1849C17.0973 13.8187 17.8111 13.5827 18.5804 13.5179ZM21.556 17.0003C21.3289 17.0004 21.1232 17.0502 20.9388 17.1498C20.7543 17.2486 20.6072 17.3946 20.4984 17.5882C20.3897 17.781 20.3353 18.0185 20.3353 18.3001C20.3354 18.5801 20.3893 18.8166 20.4955 19.0101C20.6026 19.2037 20.7474 19.3509 20.931 19.4505C21.1154 19.5501 21.3239 19.5999 21.556 19.5999C21.7412 19.5999 21.9043 19.5717 22.0443 19.515C22.1844 19.4581 22.3021 19.3825 22.3969 19.2894C22.4922 19.1957 22.5657 19.0939 22.6176 18.9837C22.6956 18.8164 22.5512 18.655 22.3666 18.6537L22.1664 18.6517C22.0773 18.6513 22.0061 18.72 21.9633 18.7982C21.9402 18.841 21.9095 18.8771 21.8724 18.9076C21.8354 18.938 21.7918 18.9624 21.7416 18.9789C21.6915 18.9944 21.6348 19.0023 21.5717 19.0023C21.4604 19.0023 21.3646 18.9761 21.2855 18.9242C21.2065 18.8714 21.1459 18.7925 21.1039 18.6888C21.0628 18.5843 21.0424 18.4547 21.0424 18.3001C21.0424 18.1536 21.0626 18.0278 21.1029 17.9232C21.1441 17.8186 21.2045 17.738 21.2836 17.682C21.3635 17.626 21.4613 17.598 21.5765 17.598C21.6423 17.598 21.7015 17.6074 21.7533 17.6263C21.805 17.6444 21.849 17.6709 21.8851 17.7054C21.9222 17.7392 21.9515 17.7796 21.972 17.8265C22.0102 17.9102 22.0822 17.9837 22.1742 17.9837H22.3304C22.5338 17.9837 22.7012 17.8042 22.6205 17.6175C22.6127 17.5996 22.6048 17.582 22.5961 17.5648C22.5343 17.4429 22.4523 17.3404 22.351 17.2572C22.2496 17.1731 22.1317 17.1094 21.9974 17.0658C21.8632 17.0221 21.7158 17.0003 21.556 17.0003ZM16.472 17.0345C16.1919 17.0347 15.9437 17.2148 15.8558 17.4808L15.3187 19.1078C15.2446 19.3333 15.4123 19.5657 15.6498 19.5658C15.8035 19.5658 15.9392 19.4648 15.9838 19.3177L16.0551 19.0814H16.89L16.9613 19.3177C17.0059 19.4648 17.1416 19.5658 17.2953 19.5658C17.5325 19.5655 17.7004 19.3331 17.6263 19.1078L17.0892 17.4808C17.0014 17.2147 16.7523 17.0345 16.472 17.0345ZM18.891 17.0345C18.4105 17.0345 18.0209 17.4242 18.0209 17.9046V18.6957C18.021 19.176 18.4106 19.5658 18.891 19.5658H19.2123C19.396 19.5658 19.5543 19.5348 19.6869 19.473C19.8195 19.4112 19.9219 19.326 19.9935 19.2181C20.0659 19.1103 20.1019 18.9872 20.1019 18.849C20.1019 18.7296 20.0755 18.6256 20.0228 18.5374C19.9701 18.4485 19.8989 18.3787 19.8099 18.3285C19.7247 18.2796 19.6301 18.2522 19.5267 18.2464C19.5195 18.2458 19.514 18.2391 19.514 18.2318C19.5143 18.2254 19.5185 18.2195 19.5248 18.2181C19.6182 18.1979 19.7003 18.1637 19.7709 18.1146C19.8441 18.0627 19.9014 17.9988 19.9418 17.9222C19.983 17.8456 20.0033 17.7604 20.0033 17.6673C20.0033 17.5388 19.9693 17.4271 19.9017 17.3324C19.835 17.2377 19.7357 17.1645 19.6039 17.1126C19.4729 17.0608 19.3112 17.0345 19.1185 17.0345H18.891Z" fill="#6D6B76"/>
</g>
<defs>
<clipPath id="clip0_4721_566">
<rect width="24" height="24" fill="white"/>
</clipPath>
</defs>
</svg>
