<svg width="40" height="38" viewBox="0 0 40 38" fill="none" xmlns="http://www.w3.org/2000/svg">
<ellipse cx="22.505" cy="14.1523" rx="1.18447" ry="1.18448" fill="#FFE0B2"/>
<path d="M20.1361 0.333332C21.3587 0.333332 22.3951 1.12736 22.7596 2.22765C23.0882 2.02767 23.4742 1.91264 23.887 1.91264C24.6167 1.91264 25.2619 2.2729 25.6556 2.8249C26.2852 2.25786 27.1186 1.91264 28.0326 1.91264C29.9951 1.91264 31.5861 3.50357 31.5861 5.46608C31.5861 5.5997 31.5777 5.73149 31.5633 5.86129C31.5709 5.86122 31.5785 5.8609 31.5861 5.8609C32.8944 5.8609 33.955 6.92152 33.955 8.22986C33.955 8.36471 33.9427 8.49676 33.9211 8.62546C33.9324 8.62522 33.9437 8.62469 33.955 8.62469C34.8272 8.62469 35.5343 9.33177 35.5343 10.204C35.5343 10.2823 35.5284 10.3593 35.5174 10.4346C37.1363 10.9989 38.2981 12.5384 38.2981 14.3497C38.2981 14.9845 38.1549 15.5858 37.8998 16.1237C38.3813 16.4837 38.6929 17.0583 38.6929 17.7057C38.6929 18.796 37.8091 19.6798 36.7188 19.6798C36.2519 19.6798 35.823 19.5175 35.485 19.2465C34.6298 25.9486 28.8957 31.1298 21.9491 31.1298H18.0502C11.5229 31.1298 6.06658 26.5551 4.72214 20.4425C4.59818 20.4595 4.47176 20.4695 4.34312 20.4695C2.81673 20.4695 1.57935 19.2321 1.57935 17.7057C1.57935 16.4581 2.40603 15.4035 3.54152 15.0599C3.29629 14.5457 3.15865 13.9703 3.15865 13.3626C3.15865 11.4174 4.56549 9.80159 6.41711 9.47526C6.35218 9.26912 6.31725 9.04969 6.31725 8.8221C6.31725 7.62279 7.28948 6.65056 8.48879 6.65056C8.56561 6.65056 8.64152 6.65434 8.71628 6.66212C8.69672 6.52947 8.6862 6.39381 8.6862 6.25573C8.6862 4.72933 9.92359 3.49194 11.45 3.49194C11.9383 3.49194 12.3968 3.61905 12.7949 3.84127C13.4838 2.68634 14.7454 1.91264 16.1879 1.91264C16.6624 1.91264 17.1174 1.99629 17.5389 2.14977C17.9256 1.08996 18.9425 0.333332 20.1361 0.333332Z" fill="#FFCC81"/>
<path d="M7.94118 11.3646C8.42827 11.278 8.89361 11.6027 8.98029 12.0898C9.06694 12.5769 8.74213 13.0422 8.25503 13.129C8.06197 13.1633 7.87737 13.2354 7.71215 13.341C7.54699 13.4466 7.40407 13.5836 7.29188 13.7443C7.17968 13.9051 7.10037 14.0865 7.05822 14.278C7.01607 14.4695 7.0123 14.6675 7.04665 14.8606C7.13331 15.3477 6.80847 15.8129 6.32139 15.8997C5.83423 15.9864 5.36896 15.6616 5.28228 15.1744C5.20673 14.7498 5.21544 14.3144 5.30811 13.8932C5.40082 13.4719 5.57563 13.0728 5.82246 12.7191C6.06933 12.3654 6.38363 12.0635 6.74706 11.8311C7.11053 11.5988 7.51647 11.4401 7.94118 11.3646Z" fill="#FFE0B2"/>
<path d="M30.3676 11.8176C30.4737 11.3344 30.9516 11.0287 31.4348 11.1348C31.8561 11.2273 32.2551 11.4017 32.6089 11.6484C32.9627 11.8951 33.2647 12.2092 33.4972 12.5726C33.7297 12.9359 33.8888 13.3417 33.9646 13.7663C34.0403 14.191 34.0312 14.6266 33.9387 15.0479C33.8326 15.5312 33.3548 15.8369 32.8715 15.7308C32.3882 15.6246 32.0825 15.1468 32.1886 14.6635C32.2307 14.472 32.2346 14.2739 32.2002 14.0809C32.1657 13.888 32.0934 13.7035 31.9877 13.5384C31.8821 13.3733 31.7448 13.2307 31.584 13.1185C31.4232 13.0064 31.2419 12.9269 31.0504 12.8849C30.5671 12.7788 30.2615 12.3009 30.3676 11.8176Z" fill="#FFE0B2"/>
<path d="M26.8484 8.22987C27.5026 8.2299 28.0329 8.7602 28.0329 9.41434C28.0329 10.0685 27.5026 10.5988 26.8484 10.5988C26.1943 10.5988 25.664 10.0685 25.664 9.41434C25.664 8.76017 26.1943 8.22987 26.8484 8.22987Z" fill="#FFE0B2"/>
<path d="M11.6477 8.22987C12.1928 8.2299 12.6347 8.67181 12.6347 9.21693C12.6347 9.76205 12.1928 10.204 11.6477 10.204C11.1025 10.204 10.6606 9.76207 10.6606 9.21693C10.6606 8.67179 11.1025 8.22987 11.6477 8.22987Z" fill="#FFE0B2"/>
<path d="M19.939 3.88677C20.4331 3.88678 20.9226 3.99445 21.3791 4.20371C21.8355 4.41297 22.2501 4.71976 22.5995 5.10634C23.0002 5.54986 23.0002 6.26911 22.5995 6.71264C22.1987 7.15612 21.5489 7.15615 21.1482 6.71264C20.9894 6.5369 20.8008 6.3975 20.5933 6.30239C20.3859 6.20729 20.1636 6.15819 19.939 6.15818C19.7145 6.15818 19.4921 6.20732 19.2847 6.30239C19.0772 6.39749 18.8886 6.53693 18.7299 6.71264C18.3291 7.15615 17.6789 7.15612 17.2782 6.71264C16.8776 6.26911 16.8775 5.54982 17.2782 5.10634C17.6275 4.71968 18.0424 4.41299 18.4989 4.20371C18.9554 3.99444 19.4449 3.88677 19.939 3.88677Z" fill="#FFE0B2"/>
<path d="M18.1763 10.2189C19.4544 8.02411 22.2345 6.31469 23.8785 7.27199C25.3241 8.11378 25.4095 10.7369 24.5402 12.8502C25.232 12.9953 25.8133 13.3201 26.147 13.8519C27.0685 15.3207 25.7545 17.8046 23.9348 18.9464C22.1151 20.0882 16.9215 22.2466 15.9999 20.7778C15.8288 20.505 14.1479 23.2991 15.923 20.3333C15.478 20.8093 16.199 20.031 15.5555 20.1111C13.8348 20.3251 13.638 17.011 13.3727 14.8792C13.1076 12.7473 14.2023 10.1596 15.923 9.94554C16.6215 9.85869 17.3159 10.1762 17.9121 10.727C17.9913 10.5563 18.0788 10.3863 18.1763 10.2189Z" fill="#00AE4C"/>
<path d="M16.3101 12.8595C16.6646 12.8417 17.0658 15.0893 17.1662 17.0867C17.2067 17.8916 17.1961 18.6374 17.1474 19.2423C17.2949 18.8064 18.3976 17.8456 19.8553 16.9139C21.5404 15.8368 23.604 14.8596 23.7952 15.1587C23.9861 15.4578 22.2327 16.92 20.5477 17.9971C18.8626 19.0741 17.3414 19.7049 17.1502 19.4059C17.1444 19.3967 17.1399 19.3867 17.1367 19.376C17.0599 20.1963 16.907 20.7256 16.706 20.7357C16.3516 20.753 15.9831 19.1485 15.8827 17.1514C15.7823 15.1542 15.9557 12.8777 16.3101 12.8595Z" fill="#08C359"/>
<path d="M19.6182 13.6521C20.6246 11.9239 22.0134 10.1111 22.3201 10.2897C22.6267 10.4685 21.7357 12.5709 20.7293 14.299C19.7229 16.0273 18.6582 17.2833 18.3515 17.1047C18.045 16.9259 18.612 15.3802 19.6182 13.6521Z" fill="#08C359"/>
<path d="M11.1533 7.85242C15.1693 9.77766 17.5383 16.8845 15.7616 19.2535C13.9848 21.6225 7.79868 22.624 4.26654 20.7359C0.734397 18.8478 -0.587313 14.4331 1.31442 10.8754C3.21614 7.31777 7.62116 5.96432 11.1533 7.85242Z" fill="#CE6504"/>
<path d="M1.3137 10.8757C3.21542 7.31802 7.6203 5.9645 11.1524 7.85257C12.4757 8.55993 13.6482 9.70729 14.4973 11.0526C14.9094 12.637 14.8412 14.2776 14.0873 15.6881C12.1855 19.2457 6.64372 19.9917 3.11157 18.1037C2.08283 17.5538 1.24189 16.7891 0.613189 15.8942C0.254738 14.2535 0.457323 12.4777 1.3137 10.8757Z" fill="#E27303"/>
<path d="M39.2305 18.4952C39.692 18.4952 40.0572 18.89 39.9924 19.3469C39.196 24.965 35.145 29.7393 29.4752 32.2937V35.4727C29.4752 36.3449 28.7681 37.052 27.8959 37.052H12.4977C11.6255 37.0519 10.9184 36.3449 10.9184 35.4727V32.4664C5.04268 29.9586 0.822237 25.0942 0.00747125 19.3469C-0.0572916 18.89 0.307565 18.4952 0.768975 18.4952H39.2305Z" fill="#FF6F6E"/>
<path d="M38.9141 18.4954C36.0632 26.0677 28.0267 31.5247 18.5566 31.5247C11.601 31.5246 5.41854 28.5805 1.49609 24.0168C0.749707 22.5549 0.240304 20.9868 0.0078125 19.3469C-0.0569331 18.8902 0.307319 18.4957 0.768555 18.4954H38.9141Z" fill="#FF8382"/>
</svg>
