<svg width="20" height="20" viewBox="0 0 20 20" fill="none" xmlns="http://www.w3.org/2000/svg">
<path d="M9.99996 1.66675C11.5376 1.66675 12.7744 1.66675 13.7834 1.73994L10.9155 6.04177H7.00112L9.9178 1.66675H9.99996Z" fill="#FAFAFA"/>
<path d="M2.88701 2.88714C3.93065 1.8435 5.51824 1.69235 8.41301 1.67046L5.4988 6.04177H1.75344C1.87615 4.57169 2.17229 3.60186 2.88701 2.88714Z" fill="#FAFAFA"/>
<path fill-rule="evenodd" clip-rule="evenodd" d="M1.66663 10.0001C1.66663 8.96946 1.66663 8.07404 1.68866 7.29177H18.3113C18.3333 8.07404 18.3333 8.96946 18.3333 10.0001C18.3333 13.9285 18.3333 15.8926 17.1129 17.113C15.8925 18.3334 13.9283 18.3334 9.99996 18.3334C6.07159 18.3334 4.1074 18.3334 2.88701 17.113C1.66663 15.8926 1.66663 13.9285 1.66663 10.0001ZM10.8449 10.4878C11.9483 11.1997 12.5 11.5556 12.5 12.0834C12.5 12.6112 11.9483 12.9672 10.8449 13.6791C9.72652 14.4007 9.1673 14.7615 8.7503 14.4966C8.33329 14.2317 8.33329 13.5156 8.33329 12.0834C8.33329 10.6512 8.33329 9.93516 8.7503 9.67024C9.1673 9.40531 9.72651 9.76613 10.8449 10.4878Z" fill="#FAFAFA"/>
<path d="M18.2465 6.04177C18.1238 4.57169 17.8276 3.60186 17.1129 2.88714C16.6151 2.38937 15.9936 2.09463 15.1656 1.9201L12.4178 6.04177H18.2465Z" fill="#FAFAFA"/>
</svg>
