<svg width="48" height="48" viewBox="0 0 48 48" fill="none" xmlns="http://www.w3.org/2000/svg">
<rect width="48" height="48" rx="12" fill="#EFFEF5"/>
<g opacity="0.5">
<path d="M17.7138 15.7732L14.6301 18.2401C13.9551 18.7801 13.4264 19.464 13.0739 20.2299H34.0191C33.6709 19.4657 33.1477 18.7821 32.4787 18.2405L29.4308 15.7732H17.7138Z" fill="#19CE68"/>
<path fill-rule="evenodd" clip-rule="evenodd" d="M34.5127 22.5039C34.5127 22.4313 34.5112 22.359 34.5084 22.2868H12.5765C12.5731 22.3654 12.5714 22.4443 12.5714 22.5234V31.2003H25.2342C25.3868 30.9938 25.5571 30.7955 25.7453 30.6072L28.7773 27.5753C30.3449 26.0077 32.609 25.687 34.5127 26.4631V22.5039ZM24.5705 25.7151V24.001C24.5705 23.4329 24.1101 22.9725 23.542 22.9725C22.974 22.9725 22.5135 23.4329 22.5135 24.001V25.7151H20.7994C20.2314 25.7151 19.7709 26.1756 19.7709 26.7436C19.7709 27.3116 20.2314 27.772 20.7994 27.772H22.5135V29.4862C22.5135 30.0542 22.974 30.5147 23.542 30.5147C24.1101 30.5147 24.5705 30.0542 24.5705 29.4862V27.772H26.2847C26.8527 27.772 27.3132 27.3116 27.3132 26.7436C27.3132 26.1756 26.8527 25.7151 26.2847 25.7151H24.5705Z" fill="#19CE68"/>
<path d="M24.3276 33.2573C24.0238 34.7948 24.4178 36.4418 25.4408 37.714H19.369C18.5858 37.714 18.1942 37.714 17.823 37.6631C16.7219 37.5119 15.6927 37.0299 14.8716 36.2808C14.5949 36.0282 14.3442 35.7274 13.8428 35.1257C13.3808 34.5713 13.0363 33.9357 12.8233 33.2573H24.3276Z" fill="#19CE68"/>
</g>
<path opacity="0.5" d="M15.4195 11.1322C15.3151 11.3842 15.3151 11.7037 15.3151 12.3426C15.3151 12.9816 15.3151 13.301 15.4195 13.553C15.5587 13.889 15.8257 14.156 16.1617 14.2952C16.4137 14.3996 16.7332 14.3996 17.3721 14.3996H19.4291H27.6571H29.7141C30.353 14.3996 30.6725 14.3996 30.9245 14.2952C31.2605 14.156 31.5275 13.889 31.6667 13.553C31.7711 13.301 31.7711 12.9816 31.7711 12.3426C31.7711 11.7037 31.7711 11.3842 31.6667 11.1322C31.5275 10.7962 31.2605 10.5292 30.9245 10.39C30.6725 10.2856 30.353 10.2856 29.7141 10.2856H17.3721C16.7332 10.2856 16.4137 10.2856 16.1617 10.39C15.8257 10.5292 15.5587 10.7962 15.4195 11.1322Z" fill="#19CE68"/>
<path d="M29.5306 29.7318L30.2325 29.0298C31.4884 27.774 33.5671 27.8164 34.8753 29.1246C36.1836 30.4328 36.226 32.5114 34.9701 33.7673L34.2681 34.4693C34.209 34.3191 34.1333 34.1451 34.0373 33.9521C33.7271 33.3284 33.2058 32.5092 32.3483 31.6517C31.4907 30.7941 30.6714 30.2728 30.0477 29.9625C29.8547 29.8665 29.6808 29.7909 29.5306 29.7318Z" fill="#19CE68"/>
<path d="M27.8491 31.4132L27.2005 32.0618C25.9446 33.3177 25.987 35.3963 27.2953 36.7045C28.6035 38.0128 30.6821 38.0552 31.938 36.7993L32.5865 36.1509L32.4498 35.5066L32.4458 35.4912C32.4401 35.4702 32.4288 35.431 32.4101 35.3756C32.3727 35.2649 32.3059 35.09 32.1956 34.8682C31.9755 34.4257 31.5803 33.7927 30.8938 33.1062C30.2072 32.4196 29.5741 32.0244 29.1315 31.8042C28.9097 31.6939 28.7348 31.627 28.624 31.5896C28.5686 31.5709 28.5294 31.5596 28.5084 31.5539L28.4929 31.5499L27.8491 31.4132Z" fill="#19CE68"/>
<path d="M17.462 15.7732L14.3782 18.2401C13.7032 18.7801 13.1746 19.464 12.822 20.2299H33.7672C33.419 19.4657 32.8958 18.7821 32.2268 18.2405L29.1789 15.7732H17.462Z" fill="#19CE68"/>
<path d="M24.0757 33.2573C23.7719 34.7948 24.1659 36.4418 25.1889 37.714H19.1171C18.3339 37.714 17.9423 37.714 17.5711 37.6631C16.47 37.5119 15.4408 37.0299 14.6198 36.2808C14.343 36.0282 14.0923 35.7274 13.5909 35.1257C13.1289 34.5713 12.7844 33.9357 12.5714 33.2573H24.0757Z" fill="#19CE68"/>
</svg>
