<svg width="24" height="24" viewBox="0 0 24 24" fill="none" xmlns="http://www.w3.org/2000/svg">
<path d="M17.9991 9.00488C17.9991 5.52385 15.2873 2.75 12.0001 2.75C8.71297 2.75 6.00113 5.52385 6.00109 9.00488V9.70996C6.00101 10.6974 5.71902 11.6654 5.18859 12.4912L4.08117 14.2148C3.32751 15.3884 3.92549 16.9481 5.17492 17.3018C9.64356 18.5666 14.3567 18.5666 18.8253 17.3018C20.0747 16.9481 20.6727 15.3884 19.9191 14.2148L18.8116 12.4912C18.2812 11.6654 17.9992 10.6974 17.9991 9.70996V9.00488ZM19.4991 9.70996C19.4992 10.4133 19.7002 11.0986 20.0734 11.6797L21.1808 13.4043C22.4499 15.3802 21.5032 18.1016 19.2345 18.7441C14.4985 20.0847 9.50167 20.0847 4.76574 18.7441C2.497 18.1015 1.55034 15.3802 2.81945 13.4043L3.92687 11.6797C4.30002 11.0986 4.50101 10.4133 4.50109 9.70996V9.00488C4.50113 4.74852 7.83243 1.25 12.0001 1.25C16.1678 1.25 19.4991 4.74852 19.4991 9.00488V9.70996Z" fill="#6D6B76"/>
<path d="M12.0001 22.75C14.3779 22.75 16.4331 21.3153 17.2023 19.2637C17.3476 18.876 17.1513 18.4434 16.7638 18.2979C16.3761 18.1525 15.9435 18.3488 15.798 18.7363C15.2569 20.18 13.7772 21.25 12.0001 21.25C10.223 21.25 8.74332 20.18 8.20226 18.7363C8.05673 18.3488 7.62415 18.1525 7.23644 18.2979C6.84887 18.4434 6.65266 18.876 6.79796 19.2637C7.56709 21.3153 9.6223 22.75 12.0001 22.75Z" fill="#6D6B76"/>
</svg>
