<svg width="20" height="20" viewBox="0 0 20 20" fill="none" xmlns="http://www.w3.org/2000/svg">
<path fill-rule="evenodd" clip-rule="evenodd" d="M18.3334 10.0001C18.3334 14.6025 14.6025 18.3334 10.0001 18.3334C5.39771 18.3334 1.66675 14.6025 1.66675 10.0001C1.66675 5.39771 5.39771 1.66675 10.0001 1.66675C14.6025 1.66675 18.3334 5.39771 18.3334 10.0001ZM13.3587 7.47481C13.6028 7.71888 13.6028 8.11461 13.3587 8.35869L9.19202 12.5254C8.94795 12.7694 8.55222 12.7694 8.30814 12.5254L6.64147 10.8587C6.3974 10.6146 6.3974 10.2189 6.64147 9.97481C6.88555 9.73073 7.28128 9.73073 7.52536 9.97481L8.75008 11.1995L10.6124 9.33717L12.4748 7.47481C12.7189 7.23073 13.1146 7.23073 13.3587 7.47481Z" fill="#19CE68"/>
</svg>
