<svg width="56" height="72" viewBox="0 0 56 72" fill="none" xmlns="http://www.w3.org/2000/svg">
<g filter="url(#filter0_d_592_2350)">
<path d="M12 20.9999C12 18.9749 13.3127 17.3333 14.9321 17.3333H37.216C38.8354 17.3333 40.1481 18.9749 40.1481 20.9999V56.3333C40.1481 58.3583 38.8354 59.9999 37.216 59.9999H14.9321C13.3127 59.9999 12 58.3583 12 56.3333V20.9999Z" fill="#BAB9C0"/>
<path d="M14.963 20.9999C14.963 18.9749 16.2758 17.3333 17.8951 17.3333H40.1791C41.7984 17.3333 43.1112 18.9749 43.1112 20.9999V56.3333C43.1112 58.3583 41.7984 59.9999 40.1791 59.9999H17.8951C16.2758 59.9999 14.963 58.3583 14.963 56.3333V20.9999Z" fill="white"/>
<path opacity="0.5" d="M12 21.037C12 18.9915 13.314 17.3333 14.935 17.3333H40.1761C41.7971 17.3333 43.1111 18.9915 43.1111 21.037V26.2221H12V21.037Z" fill="#B17EFF"/>
<path d="M14.963 21.037C14.963 18.9915 16.2758 17.3333 17.8951 17.3333H40.1791C41.7984 17.3333 43.1112 18.9915 43.1112 21.037V26.2221H14.963V21.037Z" fill="#CFB0FF"/>
<path d="M38.2962 33.3333C38.7053 33.3333 39.0369 33.7312 39.0369 34.2221C39.0369 34.7131 38.7053 35.111 38.2962 35.111H26.4444C26.0353 35.111 25.7036 34.7131 25.7036 34.2221C25.7036 33.7312 26.0353 33.3333 26.4444 33.3333H38.2962Z" fill="#BAB9C0"/>
<path d="M38.2962 41.3333C38.7053 41.3333 39.0369 41.7312 39.0369 42.2221C39.0369 42.7131 38.7053 43.111 38.2962 43.111H26.4444C26.0353 43.111 25.7036 42.7131 25.7036 42.2221C25.7036 41.7312 26.0353 41.3333 26.4444 41.3333H38.2962Z" fill="#BAB9C0"/>
<path d="M38.2962 50.2222C38.7053 50.2222 39.0369 50.6201 39.0369 51.1111C39.0369 51.602 38.7053 51.9999 38.2962 51.9999H26.4444C26.0353 51.9999 25.7036 51.602 25.7036 51.1111C25.7036 50.6201 26.0353 50.2222 26.4444 50.2222H38.2962Z" fill="#BAB9C0"/>
<path d="M23.3534 30.8983C23.6559 30.5679 24.124 30.5943 24.3994 30.9573C24.6747 31.3203 24.6527 31.8821 24.3502 32.2125L21.5015 35.3236C21.3517 35.4872 21.1524 35.57 20.9503 35.5528C20.7483 35.5355 20.5607 35.4206 20.4317 35.2333L19.207 33.4555C18.9463 33.0773 18.9903 32.5167 19.3054 32.2038C19.6205 31.891 20.0877 31.9438 20.3485 32.3219L21.0784 33.3809L23.3534 30.8983Z" fill="#19CE68"/>
<path d="M23.3534 38.8983C23.6559 38.5679 24.124 38.5943 24.3994 38.9573C24.6747 39.3203 24.6527 39.8821 24.3502 40.2125L21.5015 43.3236C21.3517 43.4872 21.1524 43.57 20.9503 43.5528C20.7483 43.5355 20.5607 43.4206 20.4317 43.2333L19.207 41.4555C18.9463 41.0773 18.9903 40.5167 19.3054 40.2038C19.6205 39.891 20.0877 39.9438 20.3485 40.3219L21.0784 41.3809L23.3534 38.8983Z" fill="#19CE68"/>
<path d="M23.3534 47.7872C23.6559 47.4568 24.124 47.4832 24.3994 47.8462C24.6747 48.2093 24.6527 48.771 24.3502 49.1014L21.5015 52.2125C21.3517 52.3761 21.1524 52.4589 20.9503 52.4417C20.7483 52.4245 20.5607 52.3095 20.4317 52.1222L19.207 50.3445C18.9463 49.9662 18.9903 49.4056 19.3054 49.0927C19.6205 48.78 20.0877 48.8327 20.3485 49.2108L21.0784 50.2698L23.3534 47.7872Z" fill="#19CE68"/>
<path d="M31.8641 12C32.1947 12.0001 32.485 12.2634 32.5759 12.645L33.0576 14.6667H33.8519C33.8821 14.6667 34.1309 14.6802 34.1543 14.6988C35.0029 14.8711 35.6502 15.7762 35.6502 16.8698V17.2943C35.6502 18.393 34.9971 19.3034 34.1427 19.4696C34.1219 19.483 34.0992 19.4931 34.074 19.4931H25.1113C25.0948 19.4931 25.0791 19.4886 25.0643 19.4826C25.0417 19.4855 25.0191 19.4912 24.9963 19.4931C24.9307 19.4982 24.8769 19.4317 24.8769 19.3507V17.4418C24.8769 17.3609 24.824 17.2945 24.7583 17.2943H23.2074C23.1415 17.2943 23.088 17.2287 23.088 17.1476V16.8698C23.088 15.6533 23.8889 14.6669 24.8769 14.6667C24.9386 14.6667 24.9999 14.6704 25.0599 14.678C25.0759 14.6709 25.0933 14.6667 25.1113 14.6667H26.4966L26.9783 12.645C27.0692 12.2635 27.3595 12.0001 27.6902 12H31.8641Z" fill="#DBDADD"/>
</g>
<defs>
<filter id="filter0_d_592_2350" x="0" y="0" width="55.1112" height="72" filterUnits="userSpaceOnUse" color-interpolation-filters="sRGB">
<feFlood flood-opacity="0" result="BackgroundImageFix"/>
<feColorMatrix in="SourceAlpha" type="matrix" values="0 0 0 0 0 0 0 0 0 0 0 0 0 0 0 0 0 0 127 0" result="hardAlpha"/>
<feOffset/>
<feGaussianBlur stdDeviation="6"/>
<feComposite in2="hardAlpha" operator="out"/>
<feColorMatrix type="matrix" values="0 0 0 0 0.729412 0 0 0 0 0.72549 0 0 0 0 0.752941 0 0 0 0.4 0"/>
<feBlend mode="normal" in2="BackgroundImageFix" result="effect1_dropShadow_592_2350"/>
<feBlend mode="normal" in="SourceGraphic" in2="effect1_dropShadow_592_2350" result="shape"/>
</filter>
</defs>
</svg>
