<svg width="67" height="67" viewBox="0 0 67 67" fill="none" xmlns="http://www.w3.org/2000/svg">
<path d="M0.317689 33.3094C0.238691 30.3148 2.4851 27.8215 5.32642 27.7499L35.4071 26.9936C38.2291 26.9226 40.5729 29.2688 40.6514 32.243L41.2458 54.7747C41.3246 57.7592 39.0932 60.2479 36.2619 60.3335L12.8907 61.0404C11.5365 61.0813 10.2325 61.592 9.1811 62.4934L4.49514 66.5108C3.17506 67.6425 1.19828 66.6879 1.15101 64.8957L0.317689 33.3094Z" fill="#AB77FC"/>
<path d="M12.8907 61.0404L12.6376 61.0533C11.3746 61.1464 10.1669 61.6483 9.1811 62.4934L4.49514 66.5108L4.36982 66.6109C3.05366 67.5824 1.19681 66.6319 1.15101 64.8957L0.317689 33.3094C0.238691 30.3148 2.4851 27.8215 5.32642 27.7499L35.4071 26.9936C38.2291 26.9226 40.5729 29.2688 40.6514 32.243L41.2458 54.7747C41.3246 57.7592 39.0932 60.2479 36.2619 60.3335L36.2045 58.172C37.9032 58.1207 39.242 56.6274 39.1948 54.8368L38.6003 32.3049C38.5531 30.5204 37.147 29.1126 35.4539 29.1552L5.37369 29.9117C3.66889 29.9546 2.32089 31.4507 2.3683 33.2474L3.20161 64.8338L7.88752 60.8167C9.28941 59.6149 11.0281 58.9335 12.8337 58.8789L12.8907 61.0404ZM36.2045 58.172L36.2619 60.3335L12.8907 61.0404L12.8337 58.8789L36.2045 58.172Z" fill="#F9F5FF"/>
<path d="M8.67997 41.9317C10.5406 41.8755 12.091 43.4207 12.1429 45.3829C12.1946 47.3453 10.7281 48.9816 8.86751 49.038C7.00677 49.0942 5.4561 47.549 5.40433 45.5867C5.35256 43.6244 6.81933 41.988 8.67997 41.9317Z" fill="#8E42FF"/>
<path d="M32.6005 41.2083C34.4611 41.1521 36.0116 42.6972 36.0633 44.6596C36.1151 46.6218 34.6485 48.2582 32.788 48.3146C30.9273 48.3708 29.377 46.8256 29.3251 44.8633C29.2734 42.901 30.7398 41.2646 32.6005 41.2083Z" fill="#8E42FF"/>
<path d="M16.8344 49.2624C18.2141 49.7192 19.7435 48.7138 20.2505 47.0167C20.7575 45.3196 20.0501 43.5736 18.6705 43.1168C17.2908 42.66 15.7614 43.6655 15.2544 45.3625C14.7474 47.0596 15.4548 48.8056 16.8344 49.2624Z" fill="#3B3A40"/>
<path d="M17.617 46.6286C18.4645 46.9092 19.0573 47.6763 19.2717 48.6197C18.5824 49.2674 17.6779 49.5426 16.8284 49.2615C15.9804 48.9808 15.3883 48.2125 15.1742 47.2683C15.8633 46.6214 16.7678 46.3475 17.617 46.6286Z" fill="#E4D3FF"/>
<path d="M27.7081 35.2176C29.6984 35.1585 31.41 37.1824 31.8298 39.9076C31.9195 40.49 31.4707 40.9845 30.9102 41.0011L24.8215 41.1821C24.2611 41.1986 23.7865 40.7317 23.8448 40.1449C24.1177 37.3991 25.7178 35.2768 27.7081 35.2176Z" fill="white"/>
<path d="M27.7061 35.2165C29.6963 35.1578 31.4079 37.1815 31.8277 39.9063C31.9173 40.4888 31.4681 40.9834 30.9077 41L28.6383 41.0675C27.4032 40.3566 26.5492 38.9955 26.5067 37.4082C26.4866 36.6662 26.6454 35.9623 26.9431 35.3435C27.1892 35.2677 27.4445 35.2243 27.7061 35.2165Z" fill="#3B3A40"/>
<path d="M13.349 35.6531C15.2554 35.5965 16.8946 37.5346 17.2967 40.1442C17.3826 40.702 16.9527 41.1754 16.4159 41.1914L10.5843 41.3647C10.0475 41.3807 9.59285 40.9335 9.64873 40.3714C9.91008 37.7422 11.4426 35.7098 13.349 35.6531Z" fill="white"/>
<path d="M13.6876 35.6426C15.5939 35.5861 17.2331 37.5237 17.6354 40.133C17.7213 40.6908 17.2915 41.1651 16.7546 41.181L14.5844 41.2455C13.3988 40.5655 12.5785 39.2605 12.5376 37.7386C12.5185 37.0297 12.6705 36.3573 12.9544 35.7657C13.1909 35.6924 13.436 35.6501 13.6876 35.6426Z" fill="#3B3A40"/>
<path d="M62.0684 22.4407C62.3932 20.9798 62.1002 19.4426 61.2651 18.2262L56.1744 10.8114L49.4819 1.48211H48.1739L26.8922 3.22927L20.684 29.3763C20.0246 32.1534 21.6304 34.967 24.2707 35.6606L46.5505 41.5131C47.6029 41.7895 48.5392 42.4235 49.2141 43.3167L53.0252 48.3603C54.0507 49.7172 56.1122 49.2302 56.4875 47.5424L62.0684 22.4407Z" fill="#B382FF" fill-opacity="0.6"/>
<path d="M24.7483 33.6495L24.2707 35.6606L46.5505 41.5131L47.0281 39.5021L24.7483 33.6495ZM22.5963 29.879L28.4607 5.17955L48.2585 3.55432L48.5004 3.55524L54.5768 12.0252L59.6669 19.44C60.1678 20.1697 60.3435 21.0919 60.1487 21.9684L54.5686 47.07L50.7566 42.0267C49.8118 40.7764 48.5014 39.889 47.0281 39.5021L46.5505 41.5131L46.7466 41.5691C47.719 41.8698 48.5814 42.4794 49.2141 43.3167L53.0252 48.3603C54.0185 49.6748 55.9842 49.2588 56.4473 47.6972L56.4875 47.5424L62.0684 22.4407C62.3932 20.9798 62.1002 19.4426 61.2651 18.2262L56.1744 10.8114L49.4819 1.48211H48.1739L26.8922 3.22927L20.684 29.3763L20.6292 29.6366C20.1425 32.2403 21.6124 34.8166 24.0258 35.5893L24.2707 35.6606L24.7483 33.6495C23.1642 33.2333 22.2008 31.5451 22.5963 29.879Z" fill="#F9F5FF" fill-opacity="0.8"/>
<path d="M49.644 -0.997664C51.3066 -1.05019 52.8922 -0.214275 53.8459 1.23847L67.4764 22.0025C68.4039 23.4158 68.0665 25.3522 66.7229 26.3279C65.3793 27.3036 63.5382 26.9485 62.6105 25.5354L49.3091 5.27345L25.9119 7.68674C24.2869 7.85431 22.8405 6.60499 22.681 4.89586C22.5217 3.1867 23.7095 1.66535 25.3344 1.49762L49.31 -0.975394L49.644 -0.997664Z" fill="#F9F5FF" fill-opacity="0.77"/>
<path d="M31.1374 17.4938C31.4276 16.3826 32.5237 15.7336 33.5775 16.049L39.0782 17.6957C40.1038 18.0027 40.7114 19.1123 40.4491 20.1995L36.4629 36.7262L26.7714 34.2087L31.1374 17.4938Z" fill="#681AD6"/>
<path d="M12.3288 7.18364C19.1377 7.18374 24.6576 13.0228 24.6576 20.2253C24.6576 21.3614 24.5186 22.4631 24.2605 23.5136C23.6465 27.1107 24.2128 29.6933 25.4655 31.7525C26.0012 32.6341 25.0777 34.3741 24.1196 34.1073C22.7834 33.7349 21.4589 33.4051 20.5452 33.267C19.3472 33.086 17.1305 32.9882 15.0795 32.9351C14.1947 33.1484 13.2748 33.267 12.3288 33.267C5.51996 33.267 8.86958e-05 27.4279 0 20.2253C0 13.0227 5.51991 7.18364 12.3288 7.18364Z" fill="white" fill-opacity="0.62"/>
<path d="M5.91306 22.6038C7.00162 22.6038 7.88407 21.6756 7.88407 20.5307C7.88407 19.3857 7.00162 18.4575 5.91306 18.4575C4.82449 18.4575 3.94204 19.3857 3.94204 20.5307C3.94204 21.6756 4.82449 22.6038 5.91306 22.6038Z" fill="#9C5CFF"/>
<path d="M11.8261 22.6038C12.9147 22.6038 13.7971 21.6756 13.7971 20.5307C13.7971 19.3857 12.9147 18.4575 11.8261 18.4575C10.7375 18.4575 9.85509 19.3857 9.85509 20.5307C9.85509 21.6756 10.7375 22.6038 11.8261 22.6038Z" fill="#9C5CFF"/>
<path d="M17.7392 22.6038C18.8277 22.6038 19.7102 21.6756 19.7102 20.5307C19.7102 19.3857 18.8277 18.4575 17.7392 18.4575C16.6506 18.4575 15.7681 19.3857 15.7681 20.5307C15.7681 21.6756 16.6506 22.6038 17.7392 22.6038Z" fill="#9C5CFF"/>
<path d="M46.5147 23.6897C46.8127 22.5885 47.903 21.9498 48.95 22.2633L54.4142 23.8991C55.4612 24.2125 56.0684 25.3594 55.7704 26.4606L55.1283 28.8336C54.8303 29.9348 53.74 30.5735 52.693 30.26L45.333 28.0568L46.5147 23.6897Z" fill="#727D84"/>
</svg>
