<svg width="24" height="24" viewBox="0 0 24 24" fill="none" xmlns="http://www.w3.org/2000/svg">
<path d="M11.5108 4.78459C12.019 4.53056 12.6429 4.78715 12.879 5.30386C13.5403 6.75107 15.0312 9.25348 17.4323 9.25355C19.7751 9.25355 21.2513 7.08758 21.9359 5.76025C22.2091 5.23053 22.853 4.95892 23.3978 5.20097C23.9439 5.44361 24.167 6.10302 23.8657 6.61896C23.1806 7.79214 22.577 8.6634 21.8857 9.41404C20.7412 10.6567 20.1382 12.3934 20.7757 13.9577L21.6557 16.1179C21.897 16.7101 21.461 17.3578 20.8214 17.3578H19.6616C19.6764 17.4306 19.6841 17.5059 19.6841 17.5829V20.2844C19.6841 20.906 19.18 21.41 18.5582 21.41C17.9364 21.4099 17.4323 20.906 17.4323 20.2844V17.5829C17.4323 17.5059 17.4399 17.4306 17.4547 17.3578H16.9595C16.9743 17.4306 16.9819 17.5059 16.9819 17.5829V20.2844C16.9819 20.906 16.4778 21.41 15.856 21.41C15.2343 21.4099 14.7301 20.906 14.7301 20.2844V17.5829C14.7301 17.5059 14.7378 17.4306 14.7526 17.3578H13.6394C12.9877 17.3578 12.5515 16.6874 12.8161 16.092L13.862 13.7397C14.5104 12.281 14.0671 10.6065 13.102 9.33489C12.4358 8.45716 11.8331 7.42481 11.1039 6.03022C10.8659 5.57505 11.0513 5.01428 11.5108 4.78459Z" fill="#6D6B76"/>
<path d="M17.4325 2.5C18.4343 2.5 19.3082 3.04542 19.7749 3.85511C20.0299 3.70449 20.411 3.54794 20.8102 3.62911C21.4734 3.764 22.0673 4.80016 22.3402 4.77405C22.3555 4.7685 22.3709 4.76272 22.3864 4.7569C22.3722 4.76684 22.3569 4.77245 22.3402 4.77405C21.0573 5.23997 20.5881 4.77998 20.0818 4.66985C20.1162 4.84175 20.1346 5.01944 20.1346 5.20143C20.1346 6.69338 18.9248 7.90285 17.4325 7.90285C15.9401 7.90285 14.7303 6.69338 14.7303 5.20143C14.7303 5.01947 14.7483 4.84172 14.7826 4.66985C14.2765 4.78014 13.8073 5.23984 12.5247 4.77405C12.5081 4.77245 12.4927 4.76684 12.4785 4.7569C12.494 4.76272 12.5094 4.7685 12.5247 4.77405C12.7976 4.80016 13.3916 3.764 14.0548 3.62911C14.4538 3.54798 14.8346 3.70455 15.0896 3.85511C15.5562 3.04531 16.4305 2.5 17.4325 2.5Z" fill="#6D6B76"/>
<path d="M0.51175 4.19279C1.01975 3.93877 1.64333 4.19535 1.87933 4.71201C2.54035 6.15908 4.03073 8.66116 6.43046 8.66134C8.77202 8.66134 10.2476 6.49559 10.9319 5.16836C11.205 4.63871 11.8486 4.36715 12.3931 4.60914C12.939 4.85175 13.1609 5.51027 12.8745 6.03447C11.7464 8.09866 11.0979 9.22715 9.51511 10.412C9.27857 10.5892 9.1314 10.8639 9.13134 11.1594V20.2821C9.13122 20.9036 8.62742 21.4076 8.00598 21.4076C7.38465 21.4074 6.88073 20.9035 6.88061 20.2821V17.3553C6.88056 17.1068 6.67904 16.9052 6.43046 16.9052C6.18191 16.9052 5.98037 17.1068 5.98032 17.3553V20.2821C5.9802 20.9036 5.4764 21.4076 4.85495 21.4076C4.23363 21.4074 3.72971 20.9035 3.72959 20.2821V11.1031C3.72956 10.8394 3.61246 10.5901 3.41792 10.412C2.00856 9.12171 1.30106 7.79908 0.100728 5.4405C-0.132124 4.9829 0.052625 4.42252 0.51175 4.19279Z" fill="#6D6B76"/>
<ellipse cx="6.4311" cy="5.20118" rx="2.70088" ry="2.70118" fill="#6D6B76"/>
</svg>
