<svg width="15" height="20" viewBox="0 0 15 20" fill="none" xmlns="http://www.w3.org/2000/svg">
<path d="M15 5.33789V17.752C15 18.985 13.9908 20 12.7646 20H2.23535C1.00898 19.9999 0 18.9884 0 17.752V2.24805C0 1.01163 1.00591 0.000130131 2.23535 0H10.0947L15 5.33789ZM3.24609 9.23047V12.4326H4.26758V11.6592H4.93164C5.09839 11.6591 5.24515 11.6317 5.37109 11.5771C5.49697 11.5225 5.59552 11.4554 5.66699 11.377C5.85756 11.1687 5.95312 10.8477 5.95312 10.4141C5.95312 9.62521 5.5866 9.23047 4.85449 9.23047H3.24609ZM6.33594 9.23047V12.4326H7.76562C8.34104 12.4326 8.73663 12.3094 8.95117 12.0635C9.1656 11.8176 9.27246 11.4064 9.27246 10.8311C9.27241 10.256 9.16552 9.84541 8.95117 9.59961C8.73663 9.35372 8.34104 9.23047 7.76562 9.23047H6.33594ZM9.70703 9.23047V12.4326H10.7285V11.2441H11.5967V10.4805H10.7285V10.0508H11.6729L11.8008 9.23047H9.70703ZM7.78125 10.0508C7.92057 10.0508 8.02194 10.0663 8.08496 10.0986C8.14795 10.131 8.17969 10.2062 8.17969 10.3223V11.3408C8.17969 11.4569 8.14795 11.532 8.08496 11.5645C8.02195 11.5967 7.92057 11.6123 7.78125 11.6123H7.35742V10.0508H7.78125ZM4.50195 10.0508C4.62454 10.0508 4.71438 10.0633 4.77051 10.0889C4.8267 10.1145 4.85449 10.1735 4.85449 10.2656V10.624C4.85449 10.7162 4.82671 10.7751 4.77051 10.8008C4.71438 10.8264 4.62454 10.8389 4.50195 10.8389H4.26758V10.0508H4.50195Z" fill="#9C5CFF"/>
<path fill-rule="evenodd" clip-rule="evenodd" d="M11.8767 5.21533H11.876L14.994 7.37962V5.34422H12.8752C12.5065 5.33836 12.1736 5.29442 11.8767 5.21533Z" fill="#7B2AF3"/>
<path fill-rule="evenodd" clip-rule="evenodd" d="M10.0748 0L14.994 5.33744V5.34416H12.8752C11.1185 5.31609 10.1728 4.42951 10.0748 2.9445V0Z" fill="#F0E7FF"/>
</svg>
