<svg width="32" height="32" viewBox="0 0 32 32" fill="none" xmlns="http://www.w3.org/2000/svg">
<path d="M22.6667 2.66675C20.4575 2.66675 18.6667 4.45761 18.6667 6.66675C18.6667 8.53059 19.9414 10.0967 21.6667 10.5407L21.6667 17.3334C21.6667 17.8857 22.1144 18.3334 22.6667 18.3334C23.219 18.3334 23.6667 17.8857 23.6667 17.3334V10.5407C25.3919 10.0967 26.6667 8.53059 26.6667 6.66675C26.6667 4.45761 24.8758 2.66675 22.6667 2.66675Z" fill="#9C5CFF"/>
<path d="M10.6667 29.3334H21.3333C24.643 29.3334 26.5003 29.3334 27.6973 28.5415L16.3454 22.298L5.62104 29.0713C6.78273 29.3334 8.37723 29.3334 10.6667 29.3334Z" fill="#9C5CFF"/>
<path d="M14.3434 21.1969L3.34816 15.1495C2.66667 16.3512 2.66667 18.1853 2.66667 21.3334C2.66667 24.8877 2.66667 26.767 3.64742 27.9523L14.3434 21.1969Z" fill="#9C5CFF"/>
<path d="M29.3333 21.3334C29.3333 17.5622 29.3333 15.6766 28.1618 14.505C27.5086 13.8518 26.6334 13.5628 25.3333 13.4349V17.3334C25.3333 18.8062 24.1394 20.0001 22.6667 20.0001C21.1939 20.0001 20 18.8062 20 17.3334V13.3334H10.6667C7.94016 13.3334 6.19925 13.3334 5.00121 13.7761L28.9157 26.9291C29.3333 25.7335 29.3333 24.0075 29.3333 21.3334Z" fill="#9C5CFF"/>
</svg>
