<svg width="16" height="16" viewBox="0 0 16 16" fill="none" xmlns="http://www.w3.org/2000/svg">
<path d="M13.9997 4.27051V14.2012C13.9997 15.1876 13.1925 16 12.2116 16H3.78778C2.80679 15.9998 1.99969 15.1902 1.99969 14.2012V1.79883C1.99969 0.809777 2.80434 0.000238037 3.78778 0H10.0749L13.9997 4.27051ZM4.59637 7.38477V9.94531H5.41376V9.32715H5.94501C6.07841 9.32712 6.19581 9.30535 6.29657 9.26172C6.39723 9.21804 6.47573 9.16427 6.5329 9.10156C6.68542 8.93493 6.76239 8.67801 6.76239 8.33105C6.76233 7.70011 6.4691 7.38477 5.88348 7.38477H4.59637ZM7.06805 7.38477V9.94531H8.21259C8.67288 9.9453 8.9892 9.8471 9.16083 9.65039C9.33218 9.45363 9.41766 9.1251 9.41766 8.66504C9.41764 8.20497 9.33228 7.87637 9.16083 7.67969C8.9892 7.48298 8.67288 7.38477 8.21259 7.38477H7.06805ZM9.76532 7.38477V9.94531H10.5827V8.99512H11.277V8.38477H10.5827V8.04004H11.3386L11.4401 7.38477H9.76532ZM8.22528 8.04004C8.33644 8.04008 8.41712 8.05331 8.46747 8.0791C8.51786 8.10503 8.54364 8.16496 8.54364 8.25781V9.07324C8.54359 9.16593 8.51781 9.22502 8.46747 9.25098C8.41713 9.27677 8.33656 9.29 8.22528 9.29004H7.88544V8.04004H8.22528ZM5.60126 8.04004C5.69933 8.04004 5.7712 8.0508 5.8161 8.07129C5.861 8.09181 5.88348 8.13919 5.88348 8.21289V8.49902C5.88348 8.5728 5.86107 8.6201 5.8161 8.64062C5.7712 8.66111 5.69933 8.6709 5.60126 8.6709H5.41376V8.04004H5.60126Z" fill="#9C5CFF"/>
<path fill-rule="evenodd" clip-rule="evenodd" d="M11.501 4.17236H11.5004L13.9948 5.90379V4.27547H12.2998C12.0048 4.27078 11.7385 4.23563 11.501 4.17236Z" fill="#7B2AF3"/>
<path fill-rule="evenodd" clip-rule="evenodd" d="M10.0595 0L13.9949 4.26995V4.27533H12.2998C10.8944 4.25287 10.1379 3.54361 10.0595 2.3556V0Z" fill="#F0E7FF"/>
</svg>
