<svg width="20" height="20" viewBox="0 0 20 20" fill="none" xmlns="http://www.w3.org/2000/svg">
<path d="M11.1906 13.3545C11.437 13.3546 11.6365 13.55 11.6366 13.7915C11.6366 14.0331 11.4371 14.2293 11.1906 14.2293H8.80941C8.56291 14.2293 8.36344 14.0331 8.36344 13.7915C8.36353 13.55 8.56296 13.3546 8.80941 13.3545H11.1906Z" fill="#FF4646"/>
<path d="M11.1906 5.77067C11.4371 5.77073 11.6366 5.96691 11.6366 6.2085C11.6365 6.45001 11.437 6.64545 11.1906 6.64551H8.80941C8.56296 6.64545 8.36353 6.45001 8.36344 6.2085C8.36344 5.96691 8.56291 5.77073 8.80941 5.77067H11.1906Z" fill="#FF4646"/>
<path fill-rule="evenodd" clip-rule="evenodd" d="M10 0C15.5228 0 20 4.47715 20 10C20 15.5228 15.5228 20 10 20C4.47715 20 0 15.5228 0 10C0 4.47715 4.47715 0 10 0ZM10 4.16667C7.54005 4.16667 6.30989 4.16663 5.95133 4.92432C5.92052 4.98946 5.89414 5.0574 5.87321 5.12695C5.62988 5.93611 6.50029 6.87434 8.23975 8.75L9.40511 10L8.23975 11.25C6.50029 13.1257 5.62988 14.0639 5.87321 14.873C5.89414 14.9426 5.92052 15.0105 5.95133 15.0757C6.30989 15.8334 7.54005 15.8333 10 15.8333C12.46 15.8333 13.6901 15.8334 14.0487 15.0757C14.0795 15.0105 14.1059 14.9426 14.1268 14.873C14.3701 14.0639 13.4997 13.1257 11.7603 11.25L10.5949 10L11.7603 8.75C13.4997 6.87434 14.3701 5.93611 14.1268 5.12695C14.1059 5.0574 14.0795 4.98946 14.0487 4.92432C13.6901 4.16663 12.46 4.16667 10 4.16667Z" fill="#FF4646"/>
</svg>
