<svg width="14" height="14" viewBox="0 0 14 14" fill="none" xmlns="http://www.w3.org/2000/svg">
<path fill-rule="evenodd" clip-rule="evenodd" d="M6.23111 13.6227C2.91134 13.2415 0.333252 10.4218 0.333252 6.99992C0.333252 3.31802 3.31802 0.333252 6.99992 0.333252C10.6818 0.333252 13.6666 3.31802 13.6666 6.99992C13.6666 10.4376 11.4781 10.1549 9.60894 9.91345C8.53086 9.77418 7.55899 9.64864 7.1745 10.2586C6.91155 10.6757 7.1958 11.1958 7.54446 11.5445C7.9801 11.9801 7.9801 12.6864 7.54446 13.122C7.1958 13.4707 6.72098 13.679 6.23111 13.6227ZM6.38992 3.66642C6.38992 4.21871 5.94221 4.66642 5.38992 4.66642C4.83764 4.66642 4.38992 4.21871 4.38992 3.66642C4.38992 3.11414 4.83764 2.66642 5.38992 2.66642C5.94221 2.66642 6.38992 3.11414 6.38992 3.66642ZM3.33325 7.66658C3.88554 7.66658 4.33325 7.21886 4.33325 6.66658C4.33325 6.11429 3.88554 5.66657 3.33325 5.66657C2.78097 5.66657 2.33325 6.11429 2.33325 6.66658C2.33325 7.21886 2.78097 7.66658 3.33325 7.66658ZM10.6666 7.66658C11.2189 7.66658 11.6666 7.21886 11.6666 6.66658C11.6666 6.11429 11.2189 5.66657 10.6666 5.66657C10.1143 5.66657 9.66659 6.11429 9.66659 6.66658C9.66659 7.21886 10.1143 7.66658 10.6666 7.66658ZM8.66659 4.66657C9.21887 4.66657 9.66659 4.21886 9.66659 3.66657C9.66659 3.11429 9.21887 2.66657 8.66659 2.66657C8.1143 2.66657 7.66659 3.11429 7.66659 3.66657C7.66659 4.21886 8.1143 4.66657 8.66659 4.66657Z" fill="#F93B93"/>
</svg>
