<svg width="48" height="48" viewBox="0 0 48 48" fill="none" xmlns="http://www.w3.org/2000/svg">
<rect width="48" height="48" rx="12" fill="#F7F7F8"/>
<path opacity="0.5" d="M26.1651 10.905C25.6871 10.0786 24.7937 9.52271 23.7704 9.52271C22.7471 9.52271 21.8537 10.0786 21.3757 10.905L26.1651 10.905Z" fill="#5F6885"/>
<path fill-rule="evenodd" clip-rule="evenodd" d="M33.4467 17.8146V28.7084C33.4467 29.7598 33.0056 30.7629 32.2308 31.4737C30.111 33.4184 27.488 34.5016 24.8077 34.7233V36.1252C24.8077 36.6976 24.3435 37.1616 23.771 37.1616C23.1984 37.1616 22.7343 36.6976 22.7343 36.1252V34.7233C20.0539 34.5016 17.431 33.4184 15.3111 31.4737C14.5363 30.7629 14.0952 29.7598 14.0952 28.7084V17.8146C14.0952 15.2088 14.0952 13.9059 14.9049 13.0964C15.7146 12.2869 17.0178 12.2869 19.6242 12.2869H27.9177C30.5241 12.2869 31.8273 12.2869 32.637 13.0964C33.4467 13.9059 33.4467 15.2088 33.4467 17.8146ZM23.771 24.7241C25.2978 24.7241 26.5355 23.4352 26.5355 21.8451C26.5355 20.8502 25.4532 19.5224 24.643 18.6677C24.1634 18.1618 23.3786 18.1618 22.8989 18.6677C22.0887 19.5224 21.0065 20.8502 21.0065 21.8451C21.0065 23.4352 22.2442 24.7241 23.771 24.7241ZM19.9698 28.87C19.9698 28.2976 20.4339 27.8336 21.0065 27.8336H26.5355C27.108 27.8336 27.5722 28.2976 27.5722 28.87C27.5722 29.4424 27.108 29.9065 26.5355 29.9065H21.0065C20.4339 29.9065 19.9698 29.4424 19.9698 28.87Z" fill="#5F6885"/>
<path d="M36.9651 28.9356C37.1834 29.4847 37.9665 29.4847 38.1847 28.9356L38.3975 28.4001C38.4641 28.2325 38.5978 28.0998 38.7668 28.0336L39.3063 27.8225C39.8596 27.6059 39.8596 26.8287 39.3063 26.6121L38.7668 26.401C38.5978 26.3348 38.4641 26.2021 38.3975 26.0345L38.1847 25.499C37.9665 24.9499 37.1834 24.9499 36.9651 25.499L36.7524 26.0345C36.6857 26.2021 36.552 26.3348 36.3831 26.401L35.8436 26.6121C35.2903 26.8287 35.2903 27.6059 35.8436 27.8225L36.3831 28.0336C36.552 28.0998 36.6857 28.2325 36.7524 28.4001L36.9651 28.9356Z" fill="#5F6885"/>
<path d="M9.53656 17.9426C9.75479 18.4918 10.5379 18.4918 10.7561 17.9426L10.9689 17.4072C11.0355 17.2396 11.1692 17.1068 11.3382 17.0407L11.8777 16.8295C12.431 16.613 12.431 15.8358 11.8777 15.6192L11.3382 15.408C11.1692 15.3419 11.0355 15.2092 10.9689 15.0415L10.7561 14.5061C10.5379 13.957 9.75479 13.957 9.53656 14.5061L9.32378 15.0415C9.25716 15.2092 9.12343 15.3419 8.9545 15.408L8.415 15.6192C7.86167 15.8358 7.86167 16.613 8.415 16.8295L8.9545 17.0407C9.12343 17.1068 9.25716 17.2396 9.32378 17.4072L9.53656 17.9426Z" fill="#5F6885"/>
<path opacity="0.5" d="M31.4189 39.5879C31.6372 40.137 32.4203 40.137 32.6385 39.5879L33.2221 38.1194C33.2887 37.9517 33.4224 37.819 33.5914 37.7529L35.071 37.1737C35.6244 36.9572 35.6244 36.18 35.071 35.9634L33.5914 35.3842C33.4224 35.3181 33.2887 35.1854 33.2221 35.0177L32.6385 33.5492C32.4203 33.0001 31.6372 33.0001 31.4189 33.5492L30.8354 35.0177C30.7687 35.1854 30.635 35.3181 30.4661 35.3842L28.9864 35.9634C28.4331 36.18 28.4331 36.9572 28.9864 37.1737L30.4661 37.7529C30.635 37.819 30.7687 37.9517 30.8354 38.1194L31.4189 39.5879Z" fill="#5F6885"/>
<rect opacity="0.3" x="18.6667" y="17.249" width="10.6667" height="13.7111" fill="#5F6885"/>
</svg>
