<svg width="66" height="88" viewBox="0 0 66 88" fill="none" xmlns="http://www.w3.org/2000/svg">
<path d="M66 23.4854V78.1094C65.9998 83.5343 61.5597 87.9998 56.165 88H9.83594C4.43956 88 0.000235265 83.5498 0 78.1094V9.89062C0.000141424 4.45016 4.42599 0 9.83594 0H44.4141L66 23.4854ZM14.2822 40.6152V54.7021H18.7764V51.2988H21.6982C22.4324 51.2988 23.0764 51.1786 23.6309 50.9385C24.1853 50.698 24.6199 50.4049 24.9346 50.0596C25.7734 49.1432 26.1923 47.7303 26.1924 45.8223C26.1924 42.3513 24.5816 40.6152 21.3604 40.6152H14.2822ZM27.8779 40.6152V54.7021H34.1709C36.7023 54.7021 38.4398 54.1608 39.3838 53.0791C40.3274 51.9972 40.7998 50.1902 40.7998 47.6582C40.7998 45.1268 40.3274 43.32 39.3838 42.2383C38.4398 41.1566 36.7024 40.6153 34.1709 40.6152H27.8779ZM42.71 40.6152V54.7021H47.2041V49.4727H51.0254V46.1152H47.2041V44.2217H51.3623L51.9238 40.6152H42.71ZM34.2383 44.2217C34.8524 44.2217 35.2981 44.2928 35.5752 44.4355C35.8523 44.5782 35.9912 44.9055 35.9912 45.416V49.9014C35.9912 50.4118 35.8522 50.7388 35.5752 50.8818C35.2981 51.0243 34.8524 51.0957 34.2383 51.0957H32.3721V44.2217H34.2383ZM19.8105 44.2217C20.3498 44.2217 20.7433 44.278 20.9902 44.3906C21.2375 44.5033 21.3603 44.7625 21.3604 45.168V46.7461C21.3603 47.1517 21.2375 47.4106 20.9902 47.5234C20.7433 47.6361 20.3498 47.6924 19.8105 47.6924H18.7764V44.2217H19.8105Z" fill="#9C5CFF"/>
<path fill-rule="evenodd" clip-rule="evenodd" d="M52.2574 22.9478H52.2542L65.9733 32.4706V23.5149H56.6506C55.0285 23.4891 53.5638 23.2957 52.2574 22.9478Z" fill="#7B2AF3"/>
<path fill-rule="evenodd" clip-rule="evenodd" d="M44.3291 0L65.9735 23.4847V23.5143H56.6508C48.9212 23.3908 44.7601 19.4898 44.3291 12.9558V0Z" fill="#F0E7FF"/>
</svg>
