<svg width="36" height="36" viewBox="0 0 36 36" fill="none" xmlns="http://www.w3.org/2000/svg">
<path fill-rule="evenodd" clip-rule="evenodd" d="M9.33828 13.0676C9.76131 12.8863 10.2512 13.0823 10.4325 13.5053L9.66655 13.8335C10.4325 13.5053 10.4326 13.5056 10.4325 13.5053L10.4321 13.5043C10.4318 13.5037 10.432 13.5041 10.4321 13.5043L10.4353 13.5117C10.4387 13.5192 10.4444 13.5319 10.4526 13.5496C10.4689 13.585 10.4949 13.6399 10.5307 13.7115C10.6024 13.855 10.7132 14.0648 10.8644 14.3188C11.1677 14.8284 11.6286 15.5071 12.2564 16.1832C12.4044 16.3425 12.561 16.5011 12.7264 16.6569C12.7333 16.6632 12.7401 16.6696 12.7469 16.6762C13.9841 17.8347 15.7101 18.8335 17.9999 18.8335C19.0073 18.8335 19.8985 18.6412 20.684 18.332C21.7057 17.9299 22.562 17.3245 23.2629 16.6666C24.0543 15.9239 24.6355 15.1252 25.0193 14.5094C25.2104 14.2026 25.3505 13.9445 25.4415 13.7661C25.4869 13.677 25.52 13.6081 25.5409 13.5632C25.5513 13.5408 25.5587 13.5244 25.5631 13.5146L25.5673 13.5053C25.7487 13.0825 26.2386 12.8863 26.6615 13.0676C27.0845 13.2489 27.2805 13.7388 27.0992 14.1618L26.3332 13.8335C27.0992 14.1618 27.0992 14.1616 27.0992 14.1618L27.0974 14.166L27.0944 14.1729L27.0849 14.1944C27.0769 14.2122 27.0658 14.2367 27.0514 14.2675C27.0227 14.329 26.9811 14.4157 26.9262 14.5233C26.8165 14.7385 26.6532 15.0386 26.4338 15.3908C26.0983 15.9292 25.6266 16.597 25.0079 17.2705L25.6725 17.935C25.9979 18.2604 25.9979 18.7881 25.6725 19.1135C25.347 19.4389 24.8194 19.4389 24.494 19.1135L23.7938 18.4134C23.3236 18.7931 22.7974 19.1514 22.213 19.4604L22.865 20.4624C23.116 20.8482 23.0068 21.3644 22.621 21.6154C22.2353 21.8664 21.7191 21.7571 21.4681 21.3714L20.6468 20.1093C20.081 20.2827 19.4766 20.4056 18.8332 20.4633V21.7502C18.8332 22.2105 18.4601 22.5835 17.9999 22.5835C17.5396 22.5835 17.1665 22.2105 17.1665 21.7502V20.4634C16.521 20.4057 15.9167 20.2825 15.3527 20.1096L14.5317 21.3714C14.2807 21.7571 13.7645 21.8664 13.3787 21.6154C12.993 21.3644 12.8837 20.8482 13.1347 20.4624L13.7867 19.4604C13.2033 19.1516 12.677 18.7934 12.2061 18.4132L11.5058 19.1135C11.1804 19.4389 10.6527 19.4389 10.3273 19.1135C10.0019 18.7881 10.0019 18.2604 10.3273 17.935L10.9918 17.2705C10.2877 16.504 9.77302 15.7437 9.43224 15.1712C9.25792 14.8784 9.12779 14.6324 9.04001 14.4569C8.99608 14.369 8.96266 14.2986 8.93952 14.2485C8.92795 14.2234 8.91894 14.2035 8.91246 14.1889L8.90464 14.1712L8.90215 14.1654L8.90125 14.1633L8.90089 14.1625C8.90074 14.1622 8.90059 14.1618 9.66655 13.8335L8.90089 14.1625C8.7196 13.7395 8.91526 13.2489 9.33828 13.0676Z" fill="#6D6B76"/>
</svg>
