<svg width="20" height="20" viewBox="0 0 20 20" fill="none" xmlns="http://www.w3.org/2000/svg">
<path fill-rule="evenodd" clip-rule="evenodd" d="M10 0C14.714 0 17.0707 0.000377655 18.5352 1.46484C19.9996 2.92931 20 5.28595 20 10C20 14.714 19.9996 17.0707 18.5352 18.5352C17.0707 19.9996 14.714 20 10 20C5.28595 20 2.92931 19.9996 1.46484 18.5352C0.000377655 17.0707 0 14.714 0 10C0 5.28595 0.000377655 2.92931 1.46484 1.46484C2.92931 0.000377655 5.28595 0 10 0ZM4.75098 7.0791C4.54218 7.07914 4.33734 7.13722 4.15918 7.24609L3.27637 7.78613C3.10488 7.89093 3 8.07735 3 8.27832C3.00017 8.72622 3.4886 9.00329 3.87305 8.77344L4.2666 8.53809C4.27073 8.53563 4.27547 8.53418 4.28027 8.53418C4.29486 8.53427 4.3065 8.54597 4.30664 8.56055V12.1084C4.30688 12.5444 4.66065 12.8975 5.09668 12.8975C5.53267 12.8974 5.88648 12.5443 5.88672 12.1084V8.21484C5.88672 7.58792 5.3779 7.0791 4.75098 7.0791ZM14.6533 7C14.2027 7.00001 13.8098 7.07929 13.4746 7.23828C13.1394 7.39737 12.88 7.62544 12.6963 7.9209C12.634 8.02109 12.5822 8.12795 12.541 8.24121C12.3998 8.63041 12.7568 8.97754 13.1709 8.97754H13.4912C13.7281 8.97754 13.9002 8.77151 14.0117 8.5625C14.0723 8.44902 14.1569 8.3624 14.2666 8.30371C14.3783 8.24501 14.5075 8.21583 14.6533 8.21582C14.7992 8.21582 14.9283 8.245 15.04 8.30371C15.1516 8.36044 15.2383 8.44206 15.3008 8.54785C15.3651 8.65387 15.3974 8.7821 15.3975 8.93164C15.3975 9.06792 15.3692 9.19202 15.3125 9.30371C15.2576 9.41542 15.1783 9.52483 15.0742 9.63086C14.9719 9.73503 14.848 9.8465 14.7041 9.96582L12.8145 11.5293C12.637 11.6761 12.5342 11.8947 12.5342 12.125C12.5342 12.5517 12.88 12.8974 13.3066 12.8975H16.3691C16.7175 12.8975 17 12.6149 17 12.2666C16.9998 11.9185 16.7173 11.6367 16.3691 11.6367H14.751C14.7382 11.6367 14.7276 11.626 14.7275 11.6133C14.7275 11.6065 14.7303 11.6001 14.7354 11.5957L15.2725 11.1475C15.7155 10.7783 16.0573 10.4603 16.2979 10.1934C16.5384 9.92632 16.705 9.68259 16.7979 9.46289C16.8906 9.24145 16.9374 9.01923 16.9375 8.7959C16.9375 8.43421 16.8437 8.11852 16.6562 7.84961C16.4706 7.58067 16.2061 7.37234 15.8633 7.22461C15.5224 7.07506 15.1191 7 14.6533 7ZM9.46777 7.89746C9.11632 7.89746 8.83105 8.18273 8.83105 8.53418V9.36328H8.00098C7.64973 9.36352 7.36523 9.64869 7.36523 10C7.36523 10.3513 7.64973 10.6365 8.00098 10.6367H8.83105V11.4658C8.83105 11.8173 9.11632 12.1025 9.46777 12.1025C9.81902 12.1023 10.1035 11.8171 10.1035 11.4658V10.6367H10.9336C11.2849 10.6365 11.5693 10.3513 11.5693 10C11.5693 9.64866 11.2849 9.36347 10.9336 9.36328H10.1035V8.53418C10.1035 8.18287 9.81902 7.8977 9.46777 7.89746Z" fill="#6D6B76"/>
</svg>
