<svg width="24" height="24" viewBox="0 0 24 24" fill="none" xmlns="http://www.w3.org/2000/svg">
<circle cx="14.5" cy="4.5" r="2.5" fill="#6D6B76" stroke="#6D6B76" stroke-width="2.5"/>
<path d="M11.6387 13.8953V11.2751C11.6387 11.0957 11.4551 10.974 11.2901 11.0447L8.83503 12.0974C8.67122 12.1676 8.63125 12.3822 8.75886 12.5066L9.37311 13.1052C9.86709 13.5872 9.87643 14.3786 9.3946 14.8728C8.91263 15.3668 8.12121 15.3771 7.62702 14.8953L7.01374 14.2966C5.61011 12.9281 6.04788 10.5719 7.84968 9.79955L10.3057 8.74682C12.1203 7.96927 14.1387 9.30093 14.1387 11.2751V13.8953C14.1387 14.4508 13.9969 14.9973 13.7257 15.4822L11.0128 20.3298C10.6288 21.0161 10.0093 21.5402 9.26862 21.8044L5.41999 23.1775C4.76979 23.4094 4.05426 23.0699 3.82233 22.4197C3.59067 21.7696 3.93009 21.0549 4.58015 20.823L8.42878 19.4499C8.59953 19.389 8.74252 19.2683 8.83112 19.1101L11.543 14.2615C11.6056 14.1496 11.6387 14.0235 11.6387 13.8953ZM17.7501 21.9997V16.7683C17.7501 16.3061 17.3361 15.954 16.88 16.0281L15.8673 16.1921C15.1859 16.3029 14.5434 15.8403 14.4327 15.1589C14.322 14.4776 14.7846 13.8352 15.4659 13.7244L16.4786 13.5603C18.4556 13.239 20.2501 14.7653 20.2501 16.7683V21.9997C20.2501 22.6901 19.6904 23.2497 19.0001 23.2497C18.3097 23.2497 17.7501 22.6901 17.7501 21.9997Z" fill="#6D6B76"/>
</svg>
