<svg width="32" height="32" viewBox="0 0 32 32" fill="none" xmlns="http://www.w3.org/2000/svg">
<path fill-rule="evenodd" clip-rule="evenodd" d="M6.25 10C6.25 9.58579 6.58579 9.25 7 9.25H24C24.4142 9.25 24.75 9.58579 24.75 10C24.75 10.4142 24.4142 10.75 24 10.75H7C6.58579 10.75 6.25 10.4142 6.25 10ZM6.25 15C6.25 14.5858 6.58579 14.25 7 14.25H16C16.4142 14.25 16.75 14.5858 16.75 15C16.75 15.4142 16.4142 15.75 16 15.75H7C6.58579 15.75 6.25 15.4142 6.25 15ZM6.25 20C6.25 19.5858 6.58579 19.25 7 19.25H15C15.4142 19.25 15.75 19.5858 15.75 20C15.75 20.4142 15.4142 20.75 15 20.75H7C6.58579 20.75 6.25 20.4142 6.25 20Z" fill="#6D6B76"/>
<path fill-rule="evenodd" clip-rule="evenodd" d="M20.9697 21.5303C21.2626 21.8232 21.7374 21.8232 22.0303 21.5303L24.5303 19.0303C24.8232 18.7374 24.8232 18.2626 24.5303 17.9697C24.2374 17.6768 23.7626 17.6768 23.4697 17.9697L22.25 19.1893V13C22.25 12.5858 21.9142 12.25 21.5 12.25C21.0858 12.25 20.75 12.5858 20.75 13V19.1893L19.5303 17.9697C19.2374 17.6768 18.7626 17.6768 18.4697 17.9697C18.1768 18.2626 18.1768 18.7374 18.4697 19.0303L20.9697 21.5303Z" fill="#6D6B76"/>
</svg>
