<svg width="16" height="16" viewBox="0 0 16 16" fill="none" xmlns="http://www.w3.org/2000/svg">
<path d="M5.16668 1.66675C5.16668 1.39061 4.94282 1.16675 4.66668 1.16675C4.39053 1.16675 4.16668 1.39061 4.16668 1.66675V2.71959C3.20712 2.79642 2.57719 2.985 2.11439 3.4478C1.65159 3.9106 1.46302 4.54053 1.38618 5.50008H14.6138C14.537 4.54053 14.3484 3.9106 13.8856 3.4478C13.4228 2.985 12.7929 2.79642 11.8333 2.71959V1.66675C11.8333 1.39061 11.6095 1.16675 11.3333 1.16675C11.0572 1.16675 10.8333 1.39061 10.8333 1.66675V2.67535C10.3898 2.66675 9.8927 2.66675 9.33334 2.66675H6.66668C6.10732 2.66675 5.61019 2.66675 5.16668 2.67535V1.66675Z" fill="#681AD6"/>
<path fill-rule="evenodd" clip-rule="evenodd" d="M14.6667 8.00008C14.6667 7.44073 14.6667 6.94359 14.6581 6.50008H1.34194C1.33334 6.94359 1.33334 7.44073 1.33334 8.00008V9.33342C1.33334 11.8476 1.33334 13.1047 2.11439 13.8857C2.89544 14.6667 4.15252 14.6667 6.66668 14.6667H9.33334C11.8475 14.6667 13.1046 14.6667 13.8856 13.8857C14.6667 13.1047 14.6667 11.8476 14.6667 9.33342V8.00008ZM9.33334 8.16675C8.68901 8.16675 8.16668 8.68908 8.16668 9.33342V10.6667C8.16668 11.3111 8.68901 11.8334 9.33334 11.8334C9.97768 11.8334 10.5 11.3111 10.5 10.6667V9.33342C10.5 8.68908 9.97768 8.16675 9.33334 8.16675ZM9.33334 9.16675C9.2413 9.16675 9.16668 9.24137 9.16668 9.33342V10.6667C9.16668 10.7588 9.2413 10.8334 9.33334 10.8334C9.42539 10.8334 9.50001 10.7588 9.50001 10.6667V9.33342C9.50001 9.24137 9.42539 9.16675 9.33334 9.16675ZM7.19135 8.20481C7.37819 8.2822 7.50001 8.46452 7.50001 8.66675V11.3334C7.50001 11.6096 7.27615 11.8334 7.00001 11.8334C6.72387 11.8334 6.50001 11.6096 6.50001 11.3334V9.87386L6.35356 10.0203C6.1583 10.2156 5.84172 10.2156 5.64646 10.0203C5.45119 9.82504 5.45119 9.50846 5.64646 9.3132L6.64646 8.3132C6.78946 8.1702 7.00451 8.12742 7.19135 8.20481Z" fill="#681AD6"/>
</svg>
