<svg width="40" height="40" viewBox="0 0 40 40" fill="none" xmlns="http://www.w3.org/2000/svg">
<path opacity="0.5" d="M13.5595 13.5768C13.4202 11.0303 15.4427 8.88887 17.9872 8.88887H29.9034C32.4478 8.88887 34.4704 11.0303 34.331 13.5767L33.1147 35.7989C32.9858 38.1554 31.0417 39.9999 28.6871 39.9999H19.2034C16.8488 39.9999 14.9048 38.1554 14.7758 35.7989L13.5595 13.5768Z" fill="#60FCFF"/>
<path d="M13.5595 13.5768C13.4202 11.0303 15.4427 8.88887 17.9872 8.88887H29.9034C32.4478 8.88887 34.4704 11.0303 34.331 13.5767L33.1147 35.7989C32.9858 38.1554 31.0417 39.9999 28.6871 39.9999H19.2034C16.8488 39.9999 14.9048 38.1554 14.7758 35.7989L13.5595 13.5768Z" fill="#2FF3F0"/>
<path d="M34.0236 13.28C34.0236 18.8885 29.4874 17.5556 23.8917 17.5556C18.296 17.5556 13.7598 18.8885 13.7598 13.28C13.7598 7.67145 18.296 3.12485 23.8917 3.12485C29.4874 3.12485 34.0236 7.67145 34.0236 13.28Z" fill="#12D6D7"/>
<path opacity="0.3" d="M23.8918 3.12485C29.4874 3.12509 34.0237 7.67176 34.0237 13.2801C34.0237 13.7001 33.994 14.1137 33.9446 14.5204C33.6458 14.5594 33.3265 14.5819 32.9846 14.5819C28.3083 10.6761 20.7742 12.4988 21.0344 5.98911C21.0344 5.09778 21.1688 4.23793 21.4202 3.42954C22.2112 3.23082 23.0394 3.12485 23.8918 3.12485Z" fill="white"/>
<path d="M18.5569 23.1111C23.7873 23.1111 25.618 27.572 31.633 27.572C32.4309 27.572 32.8968 27.7547 33.4789 27.9999L33.2572 34.6666C33.1795 38.1006 31.4835 39.9999 28.1126 39.9999H19.985C15.52 39.9999 14.9194 37.7129 14.7628 34.7882L14.1897 24.0863C15.4796 23.4587 16.9447 23.1111 18.5569 23.1111Z" fill="#1ED448"/>
<ellipse opacity="0.5" cx="18.9555" cy="31.4935" rx="1.55876" ry="1.30194" fill="white"/>
<ellipse opacity="0.5" cx="29.0875" cy="29.9447" rx="1.29897" ry="1.30194" fill="white"/>
<rect x="10.6423" y="12.4988" width="26.4989" height="6.24929" rx="3.12465" fill="#01C3C8"/>
<path d="M37.6907 0.0678829C38.6578 -0.203453 39.6611 0.362348 39.9319 1.33168C40.2026 2.30101 39.6381 3.30661 38.671 3.57803L33.534 5.01982C33.28 5.09109 33.0791 5.28632 33.0002 5.53856L24.45 33.2497C24.1499 34.2103 23.1297 34.7451 22.1712 34.4443C21.2128 34.1435 20.6792 33.121 20.9793 32.1603L29.5295 4.4492C29.9762 3.01963 31.1139 1.91361 32.5532 1.50968L37.6907 0.0678829Z" fill="#EEDA13"/>
<rect opacity="0.8" x="17.9165" y="12.4988" width="19.2247" height="6.24929" rx="3.12465" fill="#60EDF0"/>
<path opacity="0.4" d="M13.7463 18.4876L34.0102 18.4876L33.0577 35.8002C32.9281 38.1561 30.9843 39.9999 28.6302 39.9999H19.1282C16.7743 39.9999 14.8305 38.1564 14.7007 35.8007L13.7463 18.4876Z" fill="#76E7E5"/>
<ellipse opacity="0.5" cx="19.2155" cy="22.8065" rx="1.29897" ry="1.30194" fill="white"/>
<path d="M19.0041 30.8571H1.90039L2.87371 36.6615C3.19684 38.5884 4.86478 40 6.81864 40H14.0859C16.0398 40 17.7077 38.5884 18.0308 36.6615L19.0041 30.8571Z" fill="#FBBFA0"/>
<path d="M11.9726 20.1904C12.3254 20.1904 12.6531 20.2975 12.9254 20.4809C13.6451 20.9658 14.3169 21.7508 15.1551 21.9737C18.4651 22.854 20.9045 25.8771 20.9046 29.4717C20.9046 30.2368 20.2856 30.8571 19.5223 30.8571H1.38226C0.618931 30.8571 0 30.2368 0 29.4717C6.30902e-05 25.7652 2.5936 22.6662 6.06096 21.8977C6.93368 21.7043 7.66054 20.9052 8.42399 20.4394C8.68283 20.2814 8.98683 20.1904 9.31204 20.1904H11.9726Z" fill="#FF6A9A"/>
<path d="M12.5698 33.2764C12.7064 32.6604 13.3156 32.2716 13.9302 32.4083C14.5446 32.5453 14.9327 33.1556 14.7964 33.7715L13.4155 40.0001H11.0796L12.5698 33.2764ZM6.97412 32.4083C7.58871 32.2716 8.1979 32.6604 8.33447 33.2764L9.82568 40.0001H7.48877L6.10791 33.7715C5.9716 33.1556 6.35955 32.5452 6.97412 32.4083Z" fill="#EAA987"/>
<ellipse cx="10.8956" cy="18.4762" rx="2.47054" ry="2.47619" fill="#FF2929"/>
<path d="M18 25C18 25.5523 17.7761 26 17.5 26C17.2239 26 17 25.5523 17 25C17 24.4477 17.2239 24 17.5 24C17.7761 24 18 24.4477 18 25Z" fill="#F8FCDB"/>
<path d="M8 24C8 24.5523 7.55228 25 7 25C6.44772 25 6 24.5523 6 24C6 23.4477 6.44772 23 7 23C7.55228 23 8 23.4477 8 24Z" fill="#F8FCDB"/>
<path d="M16 29C16 29.5523 15.7761 30 15.5 30C15.2239 30 15 29.5523 15 29C15 28.4477 15.2239 28 15.5 28C15.7761 28 16 28.4477 16 29Z" fill="#AEE6FB"/>
<path d="M14 23C14 23.5523 13.7761 24 13.5 24C13.2239 24 13 23.5523 13 23C13 22.4477 13.2239 22 13.5 22C13.7761 22 14 22.4477 14 23Z" fill="#AEE6FB"/>
<path d="M3.19873 28.5C3.19873 28.7761 2.97487 29 2.69873 29C2.42259 29 2.19873 28.7761 2.19873 28.5C2.19873 28.2238 2.42259 28 2.69873 28C2.97487 28 3.19873 28.2238 3.19873 28.5Z" fill="#AEE6FB"/>
<path d="M12 28C12 28.5523 11.5523 29 11 29C10.4477 29 10 28.5523 10 28C10 27.4477 10.4477 27 11 27C11.5523 27 12 27.4477 12 28Z" fill="#FE6A5F"/>
</svg>
