<svg width="24" height="24" viewBox="0 0 24 24" fill="none" xmlns="http://www.w3.org/2000/svg">
<path d="M11.5039 4.43478C12.3684 4.43478 13.0691 5.13555 13.0691 6C13.0691 6.86445 12.3684 7.56522 11.5039 7.56522C10.6395 7.5652 9.93869 6.86444 9.93869 6C9.93869 5.13556 10.6395 4.4348 11.5039 4.43478Z" fill="#6D6B76"/>
<path fill-rule="evenodd" clip-rule="evenodd" d="M16.9822 0C17.9907 0 18.8083 0.817567 18.8083 1.82609C18.8083 2.74602 18.128 3.50672 17.243 3.63332V8.33458C17.243 8.39233 17.2622 8.44888 17.2976 8.49457L22.4615 15.1697C25.2467 18.7701 22.6806 23.9999 18.1286 24H5.78924C1.20762 23.9998 -1.3499 18.7101 1.49559 15.1192L6.7517 8.48641C6.78822 8.44032 6.80826 8.38319 6.80826 8.32439V3.63332C5.92341 3.50666 5.24304 2.74597 5.24304 1.82609C5.24304 0.817615 6.06067 7.80051e-05 7.06913 0H16.9822ZM14.6343 16.4348C13.4818 16.4348 12.5474 17.3691 12.5474 18.5217C12.5474 19.6743 13.4818 20.6087 14.6343 20.6087C15.7869 20.6087 16.7213 19.6743 16.7213 18.5217C16.7213 17.3691 15.7869 16.4348 14.6343 16.4348ZM9.93869 13.3043C9.07425 13.3044 8.37348 14.0051 8.37348 14.8696C8.37348 15.734 9.07425 16.4348 9.93869 16.4348C10.8031 16.4348 11.5039 15.734 11.5039 14.8696C11.5039 14.0051 10.8031 13.3043 9.93869 13.3043ZM9.41695 8.32439C9.41695 8.97141 9.1982 9.59955 8.79637 10.1067L7.50272 11.7391H16.5093L15.234 10.0909C14.8452 9.58818 14.6343 8.9701 14.6343 8.33458V2.6087H9.41695V8.32439Z" fill="#6D6B76"/>
</svg>
