<svg width="16" height="16" viewBox="0 0 16 16" fill="none" xmlns="http://www.w3.org/2000/svg">
<path fill-rule="evenodd" clip-rule="evenodd" d="M14.6666 7.99992C14.6666 11.6818 11.6818 14.6666 7.99992 14.6666C4.31802 14.6666 1.33325 11.6818 1.33325 7.99992C1.33325 4.31802 4.31802 1.33325 7.99992 1.33325C11.6818 1.33325 14.6666 4.31802 14.6666 7.99992ZM10.6868 5.9797C10.8821 6.17496 10.8821 6.49154 10.6868 6.68681L7.35347 10.0201C7.15821 10.2154 6.84163 10.2154 6.64637 10.0201L5.31303 8.68681C5.11777 8.49154 5.11777 8.17496 5.31303 7.9797C5.50829 7.78444 5.82488 7.78444 6.02014 7.9797L6.99992 8.95948L8.48981 7.46959L9.9797 5.9797C10.175 5.78444 10.4915 5.78444 10.6868 5.9797Z" fill="#2CD0FF"/>
</svg>
