<svg width="64" height="64" viewBox="0 0 64 64" fill="none" xmlns="http://www.w3.org/2000/svg">
<path d="M0.319988 30.1575C0.240418 27.1494 2.50308 24.6448 5.36497 24.5729L35.6633 23.8132C38.5057 23.7419 40.8665 26.0987 40.9455 29.0863L41.5443 51.7196C41.6236 54.7175 39.3761 57.2175 36.5243 57.3035L12.9839 58.0135C11.62 58.0546 10.3066 58.5676 9.24754 59.4731L4.52767 63.5086C3.19804 64.6455 1.20695 63.6865 1.15934 61.8862L0.319988 30.1575Z" fill="#FE64B0"/>
<path d="M12.9839 58.0135L12.729 58.0265C11.4569 58.12 10.2405 58.6242 9.24754 59.4731L4.52767 63.5086L4.40144 63.6092C3.07576 64.5851 1.20547 63.6302 1.15934 61.8862L0.319988 30.1575C0.240418 27.1494 2.50308 24.6448 5.36497 24.5729L35.6633 23.8132C38.5057 23.7419 40.8665 26.0987 40.9455 29.0863L41.5443 51.7196C41.6236 54.7175 39.3761 57.2175 36.5243 57.3035L36.4665 55.1322C38.1775 55.0807 39.526 53.5807 39.4784 51.782L38.8797 29.1484C38.8321 27.3559 37.4158 25.9418 35.7105 25.9846L5.41257 26.7445C3.69544 26.7876 2.33769 28.2904 2.38544 30.0952L3.22478 61.8241L7.9446 57.7888C9.35663 56.5816 11.108 55.8971 12.9266 55.8423L12.9839 58.0135ZM36.4665 55.1322L36.5243 57.3035L12.9839 58.0135L12.9266 55.8423L36.4665 55.1322Z" fill="#FEF1F8"/>
<path d="M8.74279 38.8187C10.6169 38.7622 12.1785 40.3143 12.2307 42.2854C12.2828 44.2566 10.8057 45.9003 8.93168 45.957C7.05748 46.0134 5.49558 44.4613 5.44344 42.4901C5.39129 40.519 6.86868 38.8752 8.74279 38.8187Z" fill="#E9196F"/>
<path d="M32.8364 38.092C34.7105 38.0355 36.2722 39.5876 36.3243 41.5588C36.3764 43.5299 34.8993 45.1737 33.0253 45.2303C31.1511 45.2868 29.5895 43.7346 29.5373 41.7634C29.4852 39.7923 30.9623 38.1485 32.8364 38.092Z" fill="#E9196F"/>
<path d="M16.9562 46.1824C18.3459 46.6413 19.8864 45.6313 20.397 43.9266C20.9077 42.2219 20.1952 40.468 18.8056 40.0091C17.416 39.5503 15.8755 40.5603 15.3648 42.265C14.8541 43.9697 15.5666 45.7236 16.9562 46.1824Z" fill="#3B3A40"/>
<path d="M17.7444 43.5367C18.5981 43.8186 19.1952 44.5892 19.4112 45.5368C18.7168 46.1874 17.8058 46.4639 16.9501 46.1815C16.0961 45.8995 15.4997 45.1277 15.284 44.1794C15.9781 43.5295 16.8892 43.2544 17.7444 43.5367Z" fill="#FECCE7"/>
<path d="M27.9086 32.0742C29.9133 32.0149 31.6373 34.0479 32.0601 36.7854C32.1505 37.3705 31.6984 37.8672 31.1339 37.8838L25.0012 38.0656C24.4366 38.0823 23.9586 37.6132 24.0173 37.0237C24.2922 34.2656 25.9039 32.1337 27.9086 32.0742Z" fill="white"/>
<path d="M27.9066 32.0732C29.9112 32.0142 31.6352 34.047 32.058 36.7841C32.1483 37.3692 31.6958 37.8661 31.1314 37.8828L28.8456 37.9506C27.6015 37.2365 26.7414 35.8692 26.6985 34.2747C26.6783 33.5294 26.8382 32.8224 27.1381 32.2007C27.386 32.1246 27.6431 32.081 27.9066 32.0732Z" fill="#3B3A40"/>
<path d="M13.4456 32.5118C15.3658 32.4549 17.0168 34.4018 17.4218 37.0231C17.5084 37.5834 17.0754 38.059 16.5347 38.075L10.6609 38.2491C10.1202 38.2651 9.66227 37.8159 9.71855 37.2514C9.9818 34.6102 11.5255 32.5687 13.4456 32.5118Z" fill="white"/>
<path d="M13.7867 32.5012C15.7068 32.4444 17.3578 34.3908 17.763 37.0119C17.8496 37.5722 17.4166 38.0485 16.8759 38.0646L14.6899 38.1293C13.4957 37.4463 12.6695 36.1354 12.6283 34.6067C12.6091 33.8946 12.7622 33.2191 13.0482 32.6249C13.2864 32.5512 13.5333 32.5088 13.7867 32.5012Z" fill="#3B3A40"/>
<path d="M63.8459 14.0783C64.5234 11.282 62.9039 8.44095 60.2348 7.74385L31.1835 0.155482C28.5328 -0.536922 25.8469 1.14784 25.174 3.92508L19.9179 25.6189C19.2427 28.4057 20.849 31.2389 23.5056 31.9472L46.3642 38.0412C47.423 38.3234 48.3636 38.9644 49.0398 39.8646L53.0194 45.1618C54.0383 46.5179 56.0974 46.0591 56.5028 44.3857L63.8459 14.0783Z" fill="#FE64B0" fill-opacity="0.6"/>
<path d="M46.3642 38.0412L46.5607 38.0982C47.5392 38.4046 48.4057 39.0207 49.0398 39.8646L53.0194 45.1618L53.1176 45.2831C54.1311 46.449 55.9846 46.0362 56.4594 44.5394L56.5028 44.3857L63.8459 14.0783C64.5234 11.282 62.9039 8.44095 60.2348 7.74385L31.1835 0.155482C28.5328 -0.536922 25.8469 1.14784 25.174 3.92508L19.9179 25.6189L19.8613 25.8801C19.3608 28.4937 20.8317 31.0883 23.2599 31.8747L23.5056 31.9472L23.9942 29.9291C22.4004 29.5042 21.4368 27.804 21.8416 26.1322L27.0978 4.43791C27.5015 2.77171 29.1131 1.76082 30.7034 2.17608L59.7547 9.76481C61.3561 10.1831 62.328 11.8877 61.9214 13.5655L54.5784 43.8732L50.5989 38.5757C49.6521 37.3155 48.335 36.4184 46.8525 36.0231L46.3642 38.0412ZM23.9942 29.9291L23.5056 31.9472L46.3642 38.0412L46.8525 36.0231L23.9942 29.9291Z" fill="#FFF4FA" fill-opacity="0.8"/>
<path d="M12.418 3.91389C19.2762 3.91399 24.8361 9.77939 24.8361 17.0143C24.8361 18.1556 24.696 19.2622 24.436 20.3175C23.8176 23.9308 24.388 26.5251 25.6497 28.5935C26.1893 29.4791 25.2591 31.227 24.2941 30.959C22.9483 30.5849 21.6142 30.2536 20.6939 30.1149C19.4872 29.9331 17.2545 29.8348 15.1886 29.7815C14.2974 29.9958 13.3709 30.1149 12.418 30.1149C5.5599 30.1149 8.93377e-05 24.2494 0 17.0143C0 9.77928 5.55985 3.91389 12.418 3.91389Z" fill="white" fill-opacity="0.62"/>
<path d="M5.95585 15.2386C7.05232 15.2386 7.94113 16.1709 7.94113 17.3211C7.94113 18.4712 7.05232 19.4036 5.95585 19.4036C4.8594 19.4036 3.97056 18.4712 3.97056 17.3211C3.97056 16.1709 4.8594 15.2386 5.95585 15.2386Z" fill="#F93B93"/>
<path d="M11.9117 15.2386C13.0082 15.2386 13.897 16.1709 13.897 17.3211C13.897 18.4712 13.0082 19.4036 11.9117 19.4036C10.8152 19.4036 9.92641 18.4712 9.92641 17.3211C9.92641 16.1709 10.8152 15.2386 11.9117 15.2386Z" fill="#F93B93"/>
<path d="M17.8675 15.2386C18.964 15.2386 19.8528 16.1709 19.8528 17.3211C19.8528 18.4712 18.964 19.4036 17.8675 19.4036C16.7711 19.4036 15.8823 18.4712 15.8823 17.3211C15.8823 16.1709 16.7711 15.2386 17.8675 15.2386Z" fill="#F93B93"/>
<path d="M50.3407 28.0173C52.1392 28.6061 54.0521 27.5545 54.6133 25.6684C55.1744 23.7823 54.1713 21.776 52.3728 21.1872C50.5743 20.5984 48.6614 21.6501 48.1003 23.5362C47.5391 25.4223 48.5422 27.4286 50.3407 28.0173Z" fill="#E9196F"/>
<path d="M28.9689 21.0227C30.8798 21.6483 32.9122 20.5309 33.5085 18.5269C34.1047 16.5229 33.0389 14.3913 31.128 13.7657C29.2171 13.1401 27.1846 14.2575 26.5884 16.2615C25.9922 18.2654 27.058 20.3971 28.9689 21.0227Z" fill="#E9196F"/>
<path d="M37.8183 17.6948C38.2277 17.74 38.5248 18.1248 38.4818 18.5542C38.4111 19.2599 38.5715 19.9699 38.9365 20.5676C39.3015 21.1652 39.8496 21.6148 40.4904 21.8428C41.1314 22.0706 41.8271 22.0631 42.4634 21.8213C43.0996 21.5796 43.6384 21.1181 43.9913 20.5128C44.206 20.1446 44.6649 20.0285 45.0162 20.2535C45.3674 20.4787 45.4781 20.9602 45.2634 21.3286C44.734 22.2367 43.9257 22.929 42.9713 23.2916C42.017 23.6541 40.9733 23.6655 40.0119 23.3237C39.0506 22.982 38.2285 22.3073 37.681 21.4108C37.1335 20.5144 36.8929 19.4492 36.9989 18.3905C37.042 17.9613 37.409 17.6496 37.8183 17.6948Z" fill="#727D84"/>
<path d="M32.4173 12.9221C32.6792 13.0079 32.8254 13.3002 32.7437 13.575C32.4779 14.468 32.9529 15.4179 33.8044 15.6966C34.656 15.9755 35.5617 15.4776 35.8274 14.5845C35.9091 14.3097 36.1878 14.1565 36.4498 14.2423L36.687 14.32C36.949 14.4057 37.0951 14.698 37.0134 14.9728C36.5434 16.5528 34.941 17.4337 33.4344 16.9404C31.9278 16.4473 31.0875 14.7667 31.5576 13.1867C31.6393 12.9119 31.9181 12.7587 32.18 12.8445L32.4173 12.9221Z" fill="#727D84"/>
<path d="M48.073 18.0474C48.335 18.1332 48.4812 18.4255 48.3994 18.7002C48.1337 19.5932 48.6086 20.5432 49.4601 20.8219C50.3117 21.1006 51.2174 20.6027 51.4831 19.7097C51.5648 19.435 51.8436 19.2818 52.1055 19.3676L52.3428 19.4452C52.6047 19.531 52.7509 19.8232 52.6691 20.098C52.1991 21.6779 50.5967 22.5589 49.0902 22.0657C47.5835 21.5725 46.7433 19.8919 47.2134 18.312C47.2951 18.0372 47.5738 17.884 47.8358 17.9698L48.073 18.0474Z" fill="#727D84"/>
</svg>
