<svg width="25" height="16" viewBox="0 0 25 16" fill="none" xmlns="http://www.w3.org/2000/svg">
<path fill-rule="evenodd" clip-rule="evenodd" d="M5.43261 7.17433C8.41738 3.72478 9.90977 2 12.2731 2C14.6364 2 16.1288 3.72477 19.1136 7.17432L19.4855 7.60418C21.9659 10.4707 23.206 11.904 22.0852 12.952C20.9643 14 18.1912 14 12.645 14H11.9012C6.35498 14 3.58189 14 2.46103 12.952C1.34018 11.904 2.58034 10.4707 5.06067 7.60418L5.43261 7.17433ZM12.2731 4.83333C12.6967 4.83333 13.0402 5.05719 13.0402 5.33333V8.66667C13.0402 8.94281 12.6967 9.16667 12.2731 9.16667C11.8495 9.16667 11.506 8.94281 11.506 8.66667V5.33333C11.506 5.05719 11.8495 4.83333 12.2731 4.83333ZM12.2731 11.3333C12.838 11.3333 13.2959 11.0349 13.2959 10.6667C13.2959 10.2985 12.838 10 12.2731 10C11.7083 10 11.2503 10.2985 11.2503 10.6667C11.2503 11.0349 11.7083 11.3333 12.2731 11.3333Z" fill="#ED6009"/>
</svg>
